<mxfile host="app.diagrams.net" agent="Mozilla/5.0 (Windows NT 10.0; Win64; x64) AppleWebKit/537.36 (KHTML, like Gecko) Chrome/134.0.0.0 Safari/537.36" version="26.1.1" pages="18">
  <diagram id="WTmoefqdIlMFf84cwBk6" name="Mô hình Use case">
    <mxGraphModel grid="0" page="1" gridSize="10" guides="1" tooltips="1" connect="1" arrows="1" fold="1" pageScale="1" pageWidth="850" pageHeight="1100" math="0" shadow="0">
      <root>
        <mxCell id="0" />
        <mxCell id="1" parent="0" />
        <mxCell id="o1YWJX3G4C8y9CxXnFkc-1" value="Admin" style="shape=umlActor;verticalLabelPosition=bottom;verticalAlign=top;html=1;outlineConnect=0;" vertex="1" parent="1">
          <mxGeometry x="265" y="190" width="50" height="96" as="geometry" />
        </mxCell>
        <mxCell id="o1YWJX3G4C8y9CxXnFkc-4" value="Thêm, xóa, chỉnh sửa trận đấu, số lượng vé" style="ellipse;whiteSpace=wrap;html=1;fillColor=#dae8fc;strokeColor=#6c8ebf;" vertex="1" parent="1">
          <mxGeometry x="465" y="15" width="120" height="80" as="geometry" />
        </mxCell>
        <mxCell id="o1YWJX3G4C8y9CxXnFkc-5" value="Cập nhật thông tin trận đấu, số lượng vé" style="ellipse;whiteSpace=wrap;html=1;fillColor=#dae8fc;strokeColor=#6c8ebf;" vertex="1" parent="1">
          <mxGeometry x="465" y="105" width="120" height="80" as="geometry" />
        </mxCell>
        <mxCell id="o1YWJX3G4C8y9CxXnFkc-6" value="Xem thông tin, danh sách Customer" style="ellipse;whiteSpace=wrap;html=1;fillColor=#dae8fc;strokeColor=#6c8ebf;" vertex="1" parent="1">
          <mxGeometry x="465" y="196" width="120" height="80" as="geometry" />
        </mxCell>
        <mxCell id="o1YWJX3G4C8y9CxXnFkc-7" value="Xem hóa đơn" style="ellipse;whiteSpace=wrap;html=1;fillColor=#dae8fc;strokeColor=#6c8ebf;" vertex="1" parent="1">
          <mxGeometry x="465" y="286" width="120" height="80" as="geometry" />
        </mxCell>
        <mxCell id="o1YWJX3G4C8y9CxXnFkc-8" value="Xem hoạt động doanh thu" style="ellipse;whiteSpace=wrap;html=1;fillColor=#dae8fc;strokeColor=#6c8ebf;" vertex="1" parent="1">
          <mxGeometry x="465" y="376" width="120" height="80" as="geometry" />
        </mxCell>
        <mxCell id="o1YWJX3G4C8y9CxXnFkc-9" value="Đăng xuất" style="ellipse;whiteSpace=wrap;html=1;fillColor=#dae8fc;strokeColor=#6c8ebf;" vertex="1" parent="1">
          <mxGeometry x="465" y="466" width="120" height="80" as="geometry" />
        </mxCell>
        <mxCell id="o1YWJX3G4C8y9CxXnFkc-14" value="" style="endArrow=classic;html=1;rounded=0;exitX=1;exitY=0.5;exitDx=0;exitDy=0;entryX=0;entryY=0.5;entryDx=0;entryDy=0;" edge="1" parent="1" target="o1YWJX3G4C8y9CxXnFkc-4">
          <mxGeometry width="50" height="50" relative="1" as="geometry">
            <mxPoint x="354" y="236" as="sourcePoint" />
            <mxPoint x="575" y="115" as="targetPoint" />
          </mxGeometry>
        </mxCell>
        <mxCell id="o1YWJX3G4C8y9CxXnFkc-17" value="" style="endArrow=classic;html=1;rounded=0;exitX=1;exitY=0.5;exitDx=0;exitDy=0;entryX=0;entryY=0.5;entryDx=0;entryDy=0;" edge="1" parent="1" target="o1YWJX3G4C8y9CxXnFkc-6">
          <mxGeometry width="50" height="50" relative="1" as="geometry">
            <mxPoint x="354" y="236" as="sourcePoint" />
            <mxPoint x="575" y="115" as="targetPoint" />
          </mxGeometry>
        </mxCell>
        <mxCell id="o1YWJX3G4C8y9CxXnFkc-18" value="" style="endArrow=classic;html=1;rounded=0;exitX=1;exitY=0.5;exitDx=0;exitDy=0;entryX=0;entryY=0.5;entryDx=0;entryDy=0;" edge="1" parent="1" target="o1YWJX3G4C8y9CxXnFkc-7">
          <mxGeometry width="50" height="50" relative="1" as="geometry">
            <mxPoint x="354" y="236" as="sourcePoint" />
            <mxPoint x="475" y="246" as="targetPoint" />
          </mxGeometry>
        </mxCell>
        <mxCell id="o1YWJX3G4C8y9CxXnFkc-19" value="" style="endArrow=classic;html=1;rounded=0;entryX=0;entryY=0.5;entryDx=0;entryDy=0;exitX=1;exitY=0.5;exitDx=0;exitDy=0;" edge="1" parent="1" target="o1YWJX3G4C8y9CxXnFkc-8">
          <mxGeometry width="50" height="50" relative="1" as="geometry">
            <mxPoint x="354" y="236" as="sourcePoint" />
            <mxPoint x="475" y="336" as="targetPoint" />
          </mxGeometry>
        </mxCell>
        <mxCell id="o1YWJX3G4C8y9CxXnFkc-20" value="" style="endArrow=classic;html=1;rounded=0;entryX=0;entryY=0.5;entryDx=0;entryDy=0;exitX=1;exitY=0.5;exitDx=0;exitDy=0;" edge="1" parent="1" target="o1YWJX3G4C8y9CxXnFkc-9">
          <mxGeometry width="50" height="50" relative="1" as="geometry">
            <mxPoint x="354" y="236" as="sourcePoint" />
            <mxPoint x="475" y="426" as="targetPoint" />
          </mxGeometry>
        </mxCell>
        <mxCell id="o1YWJX3G4C8y9CxXnFkc-21" value="" style="endArrow=classic;html=1;rounded=0;exitX=1;exitY=0.5;exitDx=0;exitDy=0;entryX=0;entryY=0.5;entryDx=0;entryDy=0;" edge="1" parent="1" target="o1YWJX3G4C8y9CxXnFkc-5">
          <mxGeometry width="50" height="50" relative="1" as="geometry">
            <mxPoint x="354" y="236" as="sourcePoint" />
            <mxPoint x="475" y="246" as="targetPoint" />
          </mxGeometry>
        </mxCell>
        <mxCell id="o1YWJX3G4C8y9CxXnFkc-24" value="User" style="shape=umlActor;verticalLabelPosition=bottom;verticalAlign=top;html=1;outlineConnect=0;" vertex="1" parent="1">
          <mxGeometry x="265" y="792" width="50" height="92" as="geometry" />
        </mxCell>
        <mxCell id="o1YWJX3G4C8y9CxXnFkc-25" value="Đăng nhập" style="ellipse;whiteSpace=wrap;html=1;fillColor=#dae8fc;strokeColor=#6c8ebf;" vertex="1" parent="1">
          <mxGeometry x="465" y="573" width="120" height="80" as="geometry" />
        </mxCell>
        <mxCell id="o1YWJX3G4C8y9CxXnFkc-26" value="Xem thông tin, danh sách trận đấu, vé" style="ellipse;whiteSpace=wrap;html=1;fillColor=#dae8fc;strokeColor=#6c8ebf;" vertex="1" parent="1">
          <mxGeometry x="465" y="663" width="120" height="80" as="geometry" />
        </mxCell>
        <mxCell id="o1YWJX3G4C8y9CxXnFkc-27" value="Đăng ký" style="ellipse;whiteSpace=wrap;html=1;fillColor=#dae8fc;strokeColor=#6c8ebf;" vertex="1" parent="1">
          <mxGeometry x="465" y="753" width="120" height="80" as="geometry" />
        </mxCell>
        <mxCell id="o1YWJX3G4C8y9CxXnFkc-28" value="Liên hệ" style="ellipse;whiteSpace=wrap;html=1;fillColor=#dae8fc;strokeColor=#6c8ebf;" vertex="1" parent="1">
          <mxGeometry x="465" y="844" width="120" height="80" as="geometry" />
        </mxCell>
        <mxCell id="o1YWJX3G4C8y9CxXnFkc-29" value="Chọn trận đấu và mua vé" style="ellipse;whiteSpace=wrap;html=1;fillColor=#dae8fc;strokeColor=#6c8ebf;" vertex="1" parent="1">
          <mxGeometry x="465" y="934" width="120" height="80" as="geometry" />
        </mxCell>
        <mxCell id="o1YWJX3G4C8y9CxXnFkc-30" value="Thanh toán" style="ellipse;whiteSpace=wrap;html=1;fillColor=#dae8fc;strokeColor=#6c8ebf;" vertex="1" parent="1">
          <mxGeometry x="465" y="1024" width="120" height="80" as="geometry" />
        </mxCell>
        <mxCell id="o1YWJX3G4C8y9CxXnFkc-32" value="" style="endArrow=classic;html=1;rounded=0;exitX=1;exitY=0.5;exitDx=0;exitDy=0;entryX=0;entryY=0.5;entryDx=0;entryDy=0;" edge="1" parent="1" target="o1YWJX3G4C8y9CxXnFkc-26">
          <mxGeometry width="50" height="50" relative="1" as="geometry">
            <mxPoint x="354" y="838" as="sourcePoint" />
            <mxPoint x="575" y="763" as="targetPoint" />
          </mxGeometry>
        </mxCell>
        <mxCell id="o1YWJX3G4C8y9CxXnFkc-33" value="" style="endArrow=classic;html=1;rounded=0;exitX=1;exitY=0.5;exitDx=0;exitDy=0;entryX=0;entryY=0.5;entryDx=0;entryDy=0;" edge="1" parent="1" target="o1YWJX3G4C8y9CxXnFkc-25">
          <mxGeometry width="50" height="50" relative="1" as="geometry">
            <mxPoint x="354" y="838" as="sourcePoint" />
            <mxPoint x="475" y="713" as="targetPoint" />
          </mxGeometry>
        </mxCell>
        <mxCell id="o1YWJX3G4C8y9CxXnFkc-34" value="" style="endArrow=classic;html=1;rounded=0;exitX=1;exitY=0.5;exitDx=0;exitDy=0;entryX=0;entryY=0.5;entryDx=0;entryDy=0;" edge="1" parent="1" target="o1YWJX3G4C8y9CxXnFkc-28">
          <mxGeometry width="50" height="50" relative="1" as="geometry">
            <mxPoint x="354" y="838" as="sourcePoint" />
            <mxPoint x="575" y="763" as="targetPoint" />
          </mxGeometry>
        </mxCell>
        <mxCell id="o1YWJX3G4C8y9CxXnFkc-35" value="" style="endArrow=classic;html=1;rounded=0;exitX=1;exitY=0.5;exitDx=0;exitDy=0;entryX=0;entryY=0.5;entryDx=0;entryDy=0;" edge="1" parent="1" target="o1YWJX3G4C8y9CxXnFkc-29">
          <mxGeometry width="50" height="50" relative="1" as="geometry">
            <mxPoint x="354" y="838" as="sourcePoint" />
            <mxPoint x="475" y="894" as="targetPoint" />
          </mxGeometry>
        </mxCell>
        <mxCell id="o1YWJX3G4C8y9CxXnFkc-36" value="" style="endArrow=classic;html=1;rounded=0;entryX=0;entryY=0.5;entryDx=0;entryDy=0;exitX=1;exitY=0.5;exitDx=0;exitDy=0;" edge="1" parent="1" target="o1YWJX3G4C8y9CxXnFkc-30">
          <mxGeometry width="50" height="50" relative="1" as="geometry">
            <mxPoint x="354" y="838" as="sourcePoint" />
            <mxPoint x="475" y="984" as="targetPoint" />
          </mxGeometry>
        </mxCell>
        <mxCell id="o1YWJX3G4C8y9CxXnFkc-38" value="" style="endArrow=classic;html=1;rounded=0;exitX=1;exitY=0.5;exitDx=0;exitDy=0;entryX=0;entryY=0.5;entryDx=0;entryDy=0;" edge="1" parent="1" target="o1YWJX3G4C8y9CxXnFkc-27">
          <mxGeometry width="50" height="50" relative="1" as="geometry">
            <mxPoint x="354" y="838" as="sourcePoint" />
            <mxPoint x="475" y="894" as="targetPoint" />
          </mxGeometry>
        </mxCell>
        <mxCell id="o1YWJX3G4C8y9CxXnFkc-39" value="" style="endArrow=classic;html=1;rounded=0;exitX=1;exitY=0.5;exitDx=0;exitDy=0;entryX=0;entryY=0.5;entryDx=0;entryDy=0;" edge="1" parent="1" target="o1YWJX3G4C8y9CxXnFkc-9">
          <mxGeometry width="50" height="50" relative="1" as="geometry">
            <mxPoint x="354" y="838" as="sourcePoint" />
            <mxPoint x="475" y="623" as="targetPoint" />
          </mxGeometry>
        </mxCell>
        <mxCell id="o1YWJX3G4C8y9CxXnFkc-40" value="" style="endArrow=classic;html=1;rounded=0;entryX=0;entryY=0.5;entryDx=0;entryDy=0;exitX=1;exitY=0.5;exitDx=0;exitDy=0;" edge="1" parent="1" target="o1YWJX3G4C8y9CxXnFkc-25">
          <mxGeometry width="50" height="50" relative="1" as="geometry">
            <mxPoint x="354" y="236" as="sourcePoint" />
            <mxPoint x="475" y="516" as="targetPoint" />
          </mxGeometry>
        </mxCell>
        <mxCell id="o1YWJX3G4C8y9CxXnFkc-41" value="Xem các vé đã mua" style="ellipse;whiteSpace=wrap;html=1;fillColor=#dae8fc;strokeColor=#6c8ebf;" vertex="1" parent="1">
          <mxGeometry x="465" y="1115" width="120" height="80" as="geometry" />
        </mxCell>
        <mxCell id="o1YWJX3G4C8y9CxXnFkc-42" value="" style="endArrow=classic;html=1;rounded=0;entryX=0;entryY=0.5;entryDx=0;entryDy=0;exitX=1;exitY=0.5;exitDx=0;exitDy=0;" edge="1" parent="1" target="o1YWJX3G4C8y9CxXnFkc-41">
          <mxGeometry width="50" height="50" relative="1" as="geometry">
            <mxPoint x="354" y="838" as="sourcePoint" />
            <mxPoint x="475" y="1074" as="targetPoint" />
          </mxGeometry>
        </mxCell>
        <mxCell id="o1YWJX3G4C8y9CxXnFkc-43" value="" style="endArrow=classic;html=1;rounded=0;entryX=0;entryY=0.5;entryDx=0;entryDy=0;" edge="1" parent="1" target="o1YWJX3G4C8y9CxXnFkc-26">
          <mxGeometry width="50" height="50" relative="1" as="geometry">
            <mxPoint x="354" y="235" as="sourcePoint" />
            <mxPoint x="475" y="623" as="targetPoint" />
          </mxGeometry>
        </mxCell>
        <mxCell id="o9WT-9b0RjDSxsOtSDms-1" value="Xem thông tin cá nhân" style="ellipse;whiteSpace=wrap;html=1;fillColor=#dae8fc;strokeColor=#6c8ebf;" vertex="1" parent="1">
          <mxGeometry x="465" y="1205" width="120" height="80" as="geometry" />
        </mxCell>
        <mxCell id="o9WT-9b0RjDSxsOtSDms-2" value="" style="endArrow=classic;html=1;rounded=0;entryX=0;entryY=0.5;entryDx=0;entryDy=0;" edge="1" parent="1" target="o9WT-9b0RjDSxsOtSDms-1">
          <mxGeometry width="50" height="50" relative="1" as="geometry">
            <mxPoint x="355" y="845" as="sourcePoint" />
            <mxPoint x="475" y="1165" as="targetPoint" />
          </mxGeometry>
        </mxCell>
      </root>
    </mxGraphModel>
  </diagram>
  <diagram name="Log in" id="uZDnNfs9_86vt3D78XSh">
    <mxGraphModel grid="0" page="1" gridSize="10" guides="1" tooltips="1" connect="1" arrows="1" fold="1" pageScale="1" pageWidth="827" pageHeight="1169" math="0" shadow="0">
      <root>
        <mxCell id="0" />
        <mxCell id="1" parent="0" />
        <mxCell id="SjXEUnyNqR522pF95CPm-16" value="" style="edgeStyle=orthogonalEdgeStyle;rounded=0;orthogonalLoop=1;jettySize=auto;html=1;" edge="1" parent="1" source="SjXEUnyNqR522pF95CPm-1" target="SjXEUnyNqR522pF95CPm-3">
          <mxGeometry relative="1" as="geometry" />
        </mxCell>
        <mxCell id="SjXEUnyNqR522pF95CPm-1" value="Bắt đầu" style="ellipse;whiteSpace=wrap;html=1;fillColor=#fff2cc;strokeColor=#d6b656;" vertex="1" parent="1">
          <mxGeometry x="360" y="145" width="120" height="80" as="geometry" />
        </mxCell>
        <mxCell id="SjXEUnyNqR522pF95CPm-17" style="edgeStyle=orthogonalEdgeStyle;rounded=0;orthogonalLoop=1;jettySize=auto;html=1;entryX=0.5;entryY=0;entryDx=0;entryDy=0;" edge="1" parent="1" source="SjXEUnyNqR522pF95CPm-3" target="SjXEUnyNqR522pF95CPm-10">
          <mxGeometry relative="1" as="geometry" />
        </mxCell>
        <mxCell id="SjXEUnyNqR522pF95CPm-18" style="edgeStyle=orthogonalEdgeStyle;rounded=0;orthogonalLoop=1;jettySize=auto;html=1;" edge="1" parent="1" source="SjXEUnyNqR522pF95CPm-3" target="SjXEUnyNqR522pF95CPm-11">
          <mxGeometry relative="1" as="geometry" />
        </mxCell>
        <mxCell id="SjXEUnyNqR522pF95CPm-3" value="Chọn vai trò" style="rounded=0;whiteSpace=wrap;html=1;fillColor=#dae8fc;strokeColor=#6c8ebf;" vertex="1" parent="1">
          <mxGeometry x="360" y="265" width="120" height="60" as="geometry" />
        </mxCell>
        <mxCell id="SjXEUnyNqR522pF95CPm-28" value="" style="edgeStyle=orthogonalEdgeStyle;rounded=0;orthogonalLoop=1;jettySize=auto;html=1;" edge="1" parent="1" source="SjXEUnyNqR522pF95CPm-6" target="SjXEUnyNqR522pF95CPm-14">
          <mxGeometry relative="1" as="geometry" />
        </mxCell>
        <mxCell id="SjXEUnyNqR522pF95CPm-32" style="edgeStyle=orthogonalEdgeStyle;rounded=0;orthogonalLoop=1;jettySize=auto;html=1;entryX=0.5;entryY=1;entryDx=0;entryDy=0;" edge="1" parent="1" source="SjXEUnyNqR522pF95CPm-6" target="SjXEUnyNqR522pF95CPm-9">
          <mxGeometry relative="1" as="geometry" />
        </mxCell>
        <mxCell id="SjXEUnyNqR522pF95CPm-6" value="Kiểm tra trên&lt;div&gt;database&lt;/div&gt;" style="rhombus;whiteSpace=wrap;html=1;fillColor=#d5e8d4;strokeColor=#82b366;" vertex="1" parent="1">
          <mxGeometry x="556" y="576" width="126" height="120" as="geometry" />
        </mxCell>
        <mxCell id="SjXEUnyNqR522pF95CPm-23" style="edgeStyle=orthogonalEdgeStyle;rounded=0;orthogonalLoop=1;jettySize=auto;html=1;entryX=0.5;entryY=1;entryDx=0;entryDy=0;" edge="1" parent="1" source="SjXEUnyNqR522pF95CPm-7" target="SjXEUnyNqR522pF95CPm-8">
          <mxGeometry relative="1" as="geometry" />
        </mxCell>
        <mxCell id="SjXEUnyNqR522pF95CPm-27" value="" style="edgeStyle=orthogonalEdgeStyle;rounded=0;orthogonalLoop=1;jettySize=auto;html=1;" edge="1" parent="1" source="SjXEUnyNqR522pF95CPm-7" target="SjXEUnyNqR522pF95CPm-12">
          <mxGeometry relative="1" as="geometry" />
        </mxCell>
        <mxCell id="SjXEUnyNqR522pF95CPm-7" value="Kiểm tra trên&lt;div&gt;database&lt;/div&gt;" style="rhombus;whiteSpace=wrap;html=1;fillColor=#d5e8d4;strokeColor=#82b366;" vertex="1" parent="1">
          <mxGeometry x="169" y="585" width="126" height="120" as="geometry" />
        </mxCell>
        <mxCell id="SjXEUnyNqR522pF95CPm-25" style="edgeStyle=orthogonalEdgeStyle;rounded=0;orthogonalLoop=1;jettySize=auto;html=1;entryX=0;entryY=0.25;entryDx=0;entryDy=0;" edge="1" parent="1">
          <mxGeometry relative="1" as="geometry">
            <Array as="points">
              <mxPoint x="64" y="474" />
            </Array>
            <mxPoint x="64" y="525" as="sourcePoint" />
            <mxPoint x="183.8461538461538" y="473.46153846153845" as="targetPoint" />
          </mxGeometry>
        </mxCell>
        <mxCell id="SjXEUnyNqR522pF95CPm-8" value="Thông báo lỗi" style="rounded=0;whiteSpace=wrap;html=1;fillColor=#dae8fc;strokeColor=#6c8ebf;" vertex="1" parent="1">
          <mxGeometry x="16" y="525" width="120" height="60" as="geometry" />
        </mxCell>
        <mxCell id="SjXEUnyNqR522pF95CPm-26" style="edgeStyle=orthogonalEdgeStyle;rounded=0;orthogonalLoop=1;jettySize=auto;html=1;entryX=1;entryY=0.5;entryDx=0;entryDy=0;" edge="1" parent="1">
          <mxGeometry relative="1" as="geometry">
            <mxPoint x="763.0000000000005" y="545" as="sourcePoint" />
            <Array as="points">
              <mxPoint x="756" y="545" />
              <mxPoint x="756" y="485" />
            </Array>
            <mxPoint x="679" y="485" as="targetPoint" />
          </mxGeometry>
        </mxCell>
        <mxCell id="SjXEUnyNqR522pF95CPm-9" value="Thông báo lỗi" style="rounded=0;whiteSpace=wrap;html=1;fillColor=#dae8fc;strokeColor=#6c8ebf;" vertex="1" parent="1">
          <mxGeometry x="696" y="545" width="120" height="60" as="geometry" />
        </mxCell>
        <mxCell id="W6HOsK8QwRFAVCTyOao0-2" value="" style="edgeStyle=orthogonalEdgeStyle;rounded=0;orthogonalLoop=1;jettySize=auto;html=1;" edge="1" parent="1" source="SjXEUnyNqR522pF95CPm-10" target="W6HOsK8QwRFAVCTyOao0-1">
          <mxGeometry relative="1" as="geometry" />
        </mxCell>
        <mxCell id="SjXEUnyNqR522pF95CPm-10" value="Admin" style="rounded=0;whiteSpace=wrap;html=1;fillColor=#dae8fc;strokeColor=#6c8ebf;" vertex="1" parent="1">
          <mxGeometry x="172" y="335" width="120" height="60" as="geometry" />
        </mxCell>
        <mxCell id="OG6vs_Mp54oyjm39g1XN-2" value="" style="edgeStyle=orthogonalEdgeStyle;rounded=0;orthogonalLoop=1;jettySize=auto;html=1;" edge="1" parent="1" source="SjXEUnyNqR522pF95CPm-11" target="OG6vs_Mp54oyjm39g1XN-1">
          <mxGeometry relative="1" as="geometry" />
        </mxCell>
        <mxCell id="W6HOsK8QwRFAVCTyOao0-6" value="" style="edgeStyle=orthogonalEdgeStyle;rounded=0;orthogonalLoop=1;jettySize=auto;html=1;" edge="1" parent="1" source="SjXEUnyNqR522pF95CPm-11" target="W6HOsK8QwRFAVCTyOao0-5">
          <mxGeometry relative="1" as="geometry" />
        </mxCell>
        <mxCell id="SjXEUnyNqR522pF95CPm-11" value="User" style="rounded=0;whiteSpace=wrap;html=1;fillColor=#dae8fc;strokeColor=#6c8ebf;" vertex="1" parent="1">
          <mxGeometry x="559" y="335" width="120" height="60" as="geometry" />
        </mxCell>
        <mxCell id="FgMPWWHsU0grk8vN2JKN-3" style="edgeStyle=orthogonalEdgeStyle;rounded=0;orthogonalLoop=1;jettySize=auto;html=1;entryX=0;entryY=0.5;entryDx=0;entryDy=0;" edge="1" parent="1" source="SjXEUnyNqR522pF95CPm-12" target="SjXEUnyNqR522pF95CPm-15">
          <mxGeometry relative="1" as="geometry">
            <Array as="points">
              <mxPoint x="236" y="985" />
            </Array>
          </mxGeometry>
        </mxCell>
        <mxCell id="SjXEUnyNqR522pF95CPm-12" value="Đăng nhập giao diện&amp;nbsp;&lt;div&gt;Admin&lt;/div&gt;" style="rounded=0;whiteSpace=wrap;html=1;fillColor=#dae8fc;strokeColor=#6c8ebf;" vertex="1" parent="1">
          <mxGeometry x="172" y="765" width="120" height="60" as="geometry" />
        </mxCell>
        <mxCell id="FgMPWWHsU0grk8vN2JKN-2" style="edgeStyle=orthogonalEdgeStyle;rounded=0;orthogonalLoop=1;jettySize=auto;html=1;entryX=1;entryY=0.5;entryDx=0;entryDy=0;" edge="1" parent="1" source="SjXEUnyNqR522pF95CPm-14" target="SjXEUnyNqR522pF95CPm-15">
          <mxGeometry relative="1" as="geometry">
            <Array as="points">
              <mxPoint x="619" y="985" />
            </Array>
          </mxGeometry>
        </mxCell>
        <mxCell id="SjXEUnyNqR522pF95CPm-14" value="Đăng nhập giao diện&lt;div&gt;User&lt;/div&gt;" style="rounded=0;whiteSpace=wrap;html=1;fillColor=#dae8fc;strokeColor=#6c8ebf;" vertex="1" parent="1">
          <mxGeometry x="559" y="775" width="120" height="60" as="geometry" />
        </mxCell>
        <mxCell id="SjXEUnyNqR522pF95CPm-15" value="Kết thúc" style="ellipse;whiteSpace=wrap;html=1;fillColor=#fff2cc;strokeColor=#d6b656;" vertex="1" parent="1">
          <mxGeometry x="386" y="945" width="120" height="80" as="geometry" />
        </mxCell>
        <mxCell id="SjXEUnyNqR522pF95CPm-33" value="Sai" style="text;html=1;align=center;verticalAlign=middle;whiteSpace=wrap;rounded=0;" vertex="1" parent="1">
          <mxGeometry x="112" y="615" width="60" height="30" as="geometry" />
        </mxCell>
        <mxCell id="SjXEUnyNqR522pF95CPm-34" value="Sai" style="text;html=1;align=center;verticalAlign=middle;whiteSpace=wrap;rounded=0;" vertex="1" parent="1">
          <mxGeometry x="682" y="625" width="60" height="30" as="geometry" />
        </mxCell>
        <mxCell id="SjXEUnyNqR522pF95CPm-35" value="Đúng" style="text;html=1;align=center;verticalAlign=middle;whiteSpace=wrap;rounded=0;" vertex="1" parent="1">
          <mxGeometry x="226" y="719.5" width="60" height="30" as="geometry" />
        </mxCell>
        <mxCell id="SjXEUnyNqR522pF95CPm-36" value="Đúng" style="text;html=1;align=center;verticalAlign=middle;whiteSpace=wrap;rounded=0;" vertex="1" parent="1">
          <mxGeometry x="619" y="725" width="60" height="30" as="geometry" />
        </mxCell>
        <mxCell id="OG6vs_Mp54oyjm39g1XN-4" value="" style="edgeStyle=orthogonalEdgeStyle;rounded=0;orthogonalLoop=1;jettySize=auto;html=1;" edge="1" parent="1" source="OG6vs_Mp54oyjm39g1XN-1" target="OG6vs_Mp54oyjm39g1XN-3">
          <mxGeometry relative="1" as="geometry" />
        </mxCell>
        <mxCell id="OG6vs_Mp54oyjm39g1XN-1" value="Chọn contact" style="rounded=0;whiteSpace=wrap;html=1;fillColor=#dae8fc;strokeColor=#6c8ebf;" vertex="1" parent="1">
          <mxGeometry x="386" y="455" width="120" height="60" as="geometry" />
        </mxCell>
        <mxCell id="FgMPWWHsU0grk8vN2JKN-1" value="" style="edgeStyle=orthogonalEdgeStyle;rounded=0;orthogonalLoop=1;jettySize=auto;html=1;" edge="1" parent="1" source="OG6vs_Mp54oyjm39g1XN-3" target="SjXEUnyNqR522pF95CPm-15">
          <mxGeometry relative="1" as="geometry" />
        </mxCell>
        <mxCell id="OG6vs_Mp54oyjm39g1XN-3" value="mở browser và hiển thị fanpage" style="rounded=0;whiteSpace=wrap;html=1;fillColor=#dae8fc;strokeColor=#6c8ebf;" vertex="1" parent="1">
          <mxGeometry x="386" y="775" width="120" height="60" as="geometry" />
        </mxCell>
        <mxCell id="W6HOsK8QwRFAVCTyOao0-3" value="" style="edgeStyle=orthogonalEdgeStyle;rounded=0;orthogonalLoop=1;jettySize=auto;html=1;" edge="1" parent="1" source="W6HOsK8QwRFAVCTyOao0-1" target="SjXEUnyNqR522pF95CPm-7">
          <mxGeometry relative="1" as="geometry" />
        </mxCell>
        <mxCell id="W6HOsK8QwRFAVCTyOao0-1" value="Nhập thông tin&amp;nbsp;&lt;div&gt;tài khoản Admin&lt;/div&gt;" style="shape=parallelogram;perimeter=parallelogramPerimeter;whiteSpace=wrap;html=1;fixedSize=1;fillColor=#f8cecc;strokeColor=#b85450;rounded=0;" vertex="1" parent="1">
          <mxGeometry x="172" y="455" width="120" height="60" as="geometry" />
        </mxCell>
        <mxCell id="W6HOsK8QwRFAVCTyOao0-7" value="" style="edgeStyle=orthogonalEdgeStyle;rounded=0;orthogonalLoop=1;jettySize=auto;html=1;" edge="1" parent="1" source="W6HOsK8QwRFAVCTyOao0-5" target="SjXEUnyNqR522pF95CPm-6">
          <mxGeometry relative="1" as="geometry" />
        </mxCell>
        <mxCell id="W6HOsK8QwRFAVCTyOao0-5" value="Nhập thông tin&amp;nbsp;&lt;div&gt;tài khoản User&lt;/div&gt;" style="shape=parallelogram;perimeter=parallelogramPerimeter;whiteSpace=wrap;html=1;fixedSize=1;fillColor=#f8cecc;strokeColor=#b85450;rounded=0;" vertex="1" parent="1">
          <mxGeometry x="559" y="455" width="120" height="60" as="geometry" />
        </mxCell>
      </root>
    </mxGraphModel>
  </diagram>
  <diagram id="FL9obdvXA2ZxmB2gSEsp" name="Sign up">
    <mxGraphModel grid="0" page="1" gridSize="10" guides="1" tooltips="1" connect="1" arrows="1" fold="1" pageScale="1" pageWidth="827" pageHeight="1169" math="0" shadow="0">
      <root>
        <mxCell id="0" />
        <mxCell id="1" parent="0" />
        <mxCell id="i9oYagT4DsbQKwe3-sEY-4" value="" style="edgeStyle=orthogonalEdgeStyle;rounded=0;orthogonalLoop=1;jettySize=auto;html=1;" edge="1" parent="1" source="cKWcje6F4_vjxgwABRA7-1" target="i9oYagT4DsbQKwe3-sEY-3">
          <mxGeometry relative="1" as="geometry" />
        </mxCell>
        <mxCell id="cKWcje6F4_vjxgwABRA7-1" value="Bắt đầu" style="ellipse;whiteSpace=wrap;html=1;fillColor=#fff2cc;strokeColor=#d6b656;" vertex="1" parent="1">
          <mxGeometry x="440" y="13" width="120" height="80" as="geometry" />
        </mxCell>
        <mxCell id="cKWcje6F4_vjxgwABRA7-5" style="edgeStyle=orthogonalEdgeStyle;rounded=0;orthogonalLoop=1;jettySize=auto;html=1;entryX=0.5;entryY=1;entryDx=0;entryDy=0;" edge="1" parent="1" source="cKWcje6F4_vjxgwABRA7-3" target="cKWcje6F4_vjxgwABRA7-4">
          <mxGeometry relative="1" as="geometry" />
        </mxCell>
        <mxCell id="cKWcje6F4_vjxgwABRA7-10" value="" style="edgeStyle=orthogonalEdgeStyle;rounded=0;orthogonalLoop=1;jettySize=auto;html=1;" edge="1" parent="1" source="cKWcje6F4_vjxgwABRA7-3" target="cKWcje6F4_vjxgwABRA7-7">
          <mxGeometry relative="1" as="geometry" />
        </mxCell>
        <mxCell id="cKWcje6F4_vjxgwABRA7-3" value="Kiểm tra điều kiện&lt;div&gt;đăng kí (email, mật khẩu)&lt;/div&gt;" style="rhombus;whiteSpace=wrap;html=1;fillColor=#d5e8d4;strokeColor=#82b366;" vertex="1" parent="1">
          <mxGeometry x="410.5" y="391" width="179" height="160" as="geometry" />
        </mxCell>
        <mxCell id="cKWcje6F4_vjxgwABRA7-6" style="edgeStyle=orthogonalEdgeStyle;rounded=0;orthogonalLoop=1;jettySize=auto;html=1;entryX=0;entryY=0.5;entryDx=0;entryDy=0;" edge="1" parent="1" source="cKWcje6F4_vjxgwABRA7-4" target="jZaSQD1pOiQckflQSw3g-1">
          <mxGeometry relative="1" as="geometry">
            <Array as="points">
              <mxPoint x="266" y="300" />
            </Array>
            <mxPoint x="440" y="300" as="targetPoint" />
          </mxGeometry>
        </mxCell>
        <mxCell id="cKWcje6F4_vjxgwABRA7-4" value="Thông báo lỗi&lt;div&gt;yêu cầu nhập lại&lt;/div&gt;" style="rounded=0;whiteSpace=wrap;html=1;fillColor=#dae8fc;strokeColor=#6c8ebf;" vertex="1" parent="1">
          <mxGeometry x="206" y="360" width="120" height="60" as="geometry" />
        </mxCell>
        <mxCell id="cKWcje6F4_vjxgwABRA7-11" value="" style="edgeStyle=orthogonalEdgeStyle;rounded=0;orthogonalLoop=1;jettySize=auto;html=1;" edge="1" parent="1" source="cKWcje6F4_vjxgwABRA7-7" target="cKWcje6F4_vjxgwABRA7-8">
          <mxGeometry relative="1" as="geometry" />
        </mxCell>
        <mxCell id="cKWcje6F4_vjxgwABRA7-12" style="edgeStyle=orthogonalEdgeStyle;rounded=0;orthogonalLoop=1;jettySize=auto;html=1;entryX=0.5;entryY=1;entryDx=0;entryDy=0;" edge="1" parent="1" source="cKWcje6F4_vjxgwABRA7-7" target="cKWcje6F4_vjxgwABRA7-4">
          <mxGeometry relative="1" as="geometry" />
        </mxCell>
        <mxCell id="cKWcje6F4_vjxgwABRA7-7" value="Kiểm tra tài khoản, email&lt;div&gt;đã tồn tại tên databse&lt;/div&gt;" style="rhombus;whiteSpace=wrap;html=1;fillColor=#d5e8d4;strokeColor=#82b366;" vertex="1" parent="1">
          <mxGeometry x="407.5" y="590" width="185" height="170" as="geometry" />
        </mxCell>
        <mxCell id="cKWcje6F4_vjxgwABRA7-18" value="" style="edgeStyle=orthogonalEdgeStyle;rounded=0;orthogonalLoop=1;jettySize=auto;html=1;" edge="1" parent="1" source="cKWcje6F4_vjxgwABRA7-8" target="cKWcje6F4_vjxgwABRA7-17">
          <mxGeometry relative="1" as="geometry" />
        </mxCell>
        <mxCell id="cKWcje6F4_vjxgwABRA7-8" value="lưu vào database&lt;div&gt;và thông báo thành công&lt;/div&gt;" style="rounded=0;whiteSpace=wrap;html=1;fillColor=#dae8fc;strokeColor=#6c8ebf;" vertex="1" parent="1">
          <mxGeometry x="422" y="820" width="156" height="60" as="geometry" />
        </mxCell>
        <mxCell id="cKWcje6F4_vjxgwABRA7-13" value="Sai" style="text;html=1;align=center;verticalAlign=middle;whiteSpace=wrap;rounded=0;" vertex="1" parent="1">
          <mxGeometry x="336" y="440" width="60" height="30" as="geometry" />
        </mxCell>
        <mxCell id="cKWcje6F4_vjxgwABRA7-14" value="Không" style="text;html=1;align=center;verticalAlign=middle;whiteSpace=wrap;rounded=0;" vertex="1" parent="1">
          <mxGeometry x="492" y="769" width="60" height="30" as="geometry" />
        </mxCell>
        <mxCell id="cKWcje6F4_vjxgwABRA7-15" value="Đúng" style="text;html=1;align=center;verticalAlign=middle;whiteSpace=wrap;rounded=0;" vertex="1" parent="1">
          <mxGeometry x="500" y="551" width="60" height="30" as="geometry" />
        </mxCell>
        <mxCell id="cKWcje6F4_vjxgwABRA7-16" value="Có" style="text;html=1;align=center;verticalAlign=middle;whiteSpace=wrap;rounded=0;" vertex="1" parent="1">
          <mxGeometry x="331" y="646" width="60" height="30" as="geometry" />
        </mxCell>
        <mxCell id="cKWcje6F4_vjxgwABRA7-17" value="Kết thúc" style="ellipse;whiteSpace=wrap;html=1;fillColor=#fff2cc;strokeColor=#d6b656;" vertex="1" parent="1">
          <mxGeometry x="440" y="930" width="120" height="80" as="geometry" />
        </mxCell>
        <mxCell id="jZaSQD1pOiQckflQSw3g-3" value="" style="edgeStyle=orthogonalEdgeStyle;rounded=0;orthogonalLoop=1;jettySize=auto;html=1;" edge="1" parent="1" source="jZaSQD1pOiQckflQSw3g-1" target="cKWcje6F4_vjxgwABRA7-3">
          <mxGeometry relative="1" as="geometry" />
        </mxCell>
        <mxCell id="jZaSQD1pOiQckflQSw3g-1" value="Nhập thông tin&#xa;đăng kí" style="shape=parallelogram;perimeter=parallelogramPerimeter;whiteSpace=wrap;html=1;fixedSize=1;fillColor=#f8cecc;strokeColor=#b85450;" vertex="1" parent="1">
          <mxGeometry x="440" y="271" width="120" height="60" as="geometry" />
        </mxCell>
        <mxCell id="i9oYagT4DsbQKwe3-sEY-5" value="" style="edgeStyle=orthogonalEdgeStyle;rounded=0;orthogonalLoop=1;jettySize=auto;html=1;" edge="1" parent="1" source="i9oYagT4DsbQKwe3-sEY-3" target="jZaSQD1pOiQckflQSw3g-1">
          <mxGeometry relative="1" as="geometry" />
        </mxCell>
        <mxCell id="i9oYagT4DsbQKwe3-sEY-3" value="Chọn &quot;Sign up now&quot; ở giao diện &quot;Log in&quot;" style="whiteSpace=wrap;html=1;fillColor=#fff2cc;strokeColor=#d6b656;" vertex="1" parent="1">
          <mxGeometry x="440" y="140" width="120" height="60" as="geometry" />
        </mxCell>
      </root>
    </mxGraphModel>
  </diagram>
  <diagram id="QAVLR1469ZHxBbi_BJLp" name="Log out">
    <mxGraphModel grid="0" page="1" gridSize="10" guides="1" tooltips="1" connect="1" arrows="1" fold="1" pageScale="1" pageWidth="850" pageHeight="1100" math="0" shadow="0">
      <root>
        <mxCell id="0" />
        <mxCell id="1" parent="0" />
        <mxCell id="iAplpCPKM6OuJI0kFeSs-4" value="" style="edgeStyle=orthogonalEdgeStyle;rounded=0;orthogonalLoop=1;jettySize=auto;html=1;" edge="1" parent="1" source="iAplpCPKM6OuJI0kFeSs-2" target="iAplpCPKM6OuJI0kFeSs-3">
          <mxGeometry relative="1" as="geometry" />
        </mxCell>
        <mxCell id="iAplpCPKM6OuJI0kFeSs-2" value="Bắt đầu" style="ellipse;whiteSpace=wrap;html=1;fillColor=#fff2cc;strokeColor=#d6b656;" vertex="1" parent="1">
          <mxGeometry x="405" y="38" width="120" height="80" as="geometry" />
        </mxCell>
        <mxCell id="iAplpCPKM6OuJI0kFeSs-6" value="" style="edgeStyle=orthogonalEdgeStyle;rounded=0;orthogonalLoop=1;jettySize=auto;html=1;fillColor=#dae8fc;strokeColor=#6c8ebf;" edge="1" parent="1" source="iAplpCPKM6OuJI0kFeSs-3" target="iAplpCPKM6OuJI0kFeSs-5">
          <mxGeometry relative="1" as="geometry" />
        </mxCell>
        <mxCell id="iAplpCPKM6OuJI0kFeSs-3" value="Chọn biểu tượng “Log out” ở góc phải màn hình" style="whiteSpace=wrap;html=1;fillColor=#dae8fc;strokeColor=#6c8ebf;" vertex="1" parent="1">
          <mxGeometry x="405" y="158" width="120" height="60" as="geometry" />
        </mxCell>
        <mxCell id="iAplpCPKM6OuJI0kFeSs-8" value="" style="edgeStyle=orthogonalEdgeStyle;rounded=0;orthogonalLoop=1;jettySize=auto;html=1;" edge="1" parent="1" source="iAplpCPKM6OuJI0kFeSs-5" target="iAplpCPKM6OuJI0kFeSs-7">
          <mxGeometry relative="1" as="geometry" />
        </mxCell>
        <mxCell id="iAplpCPKM6OuJI0kFeSs-5" value="Hệ thống hiện thị thông báo xác nhận" style="whiteSpace=wrap;html=1;fillColor=#dae8fc;strokeColor=#6c8ebf;" vertex="1" parent="1">
          <mxGeometry x="405" y="258" width="120" height="60" as="geometry" />
        </mxCell>
        <mxCell id="iAplpCPKM6OuJI0kFeSs-10" value="Có" style="edgeStyle=orthogonalEdgeStyle;rounded=0;orthogonalLoop=1;jettySize=auto;html=1;" edge="1" parent="1" source="iAplpCPKM6OuJI0kFeSs-7" target="iAplpCPKM6OuJI0kFeSs-9">
          <mxGeometry relative="1" as="geometry" />
        </mxCell>
        <mxCell id="iAplpCPKM6OuJI0kFeSs-14" value="" style="edgeStyle=orthogonalEdgeStyle;rounded=0;orthogonalLoop=1;jettySize=auto;html=1;" edge="1" parent="1" source="iAplpCPKM6OuJI0kFeSs-7" target="iAplpCPKM6OuJI0kFeSs-13">
          <mxGeometry relative="1" as="geometry" />
        </mxCell>
        <mxCell id="iAplpCPKM6OuJI0kFeSs-16" value="Không" style="edgeStyle=orthogonalEdgeStyle;rounded=0;orthogonalLoop=1;jettySize=auto;html=1;" edge="1" parent="1" source="iAplpCPKM6OuJI0kFeSs-7" target="iAplpCPKM6OuJI0kFeSs-13">
          <mxGeometry relative="1" as="geometry" />
        </mxCell>
        <mxCell id="iAplpCPKM6OuJI0kFeSs-7" value="Kiểm tra&amp;nbsp;&lt;div&gt;lựa chọn&lt;/div&gt;" style="rhombus;whiteSpace=wrap;html=1;fillColor=#d5e8d4;strokeColor=#82b366;" vertex="1" parent="1">
          <mxGeometry x="425" y="368" width="80" height="80" as="geometry" />
        </mxCell>
        <mxCell id="iAplpCPKM6OuJI0kFeSs-12" value="" style="edgeStyle=orthogonalEdgeStyle;rounded=0;orthogonalLoop=1;jettySize=auto;html=1;" edge="1" parent="1" source="iAplpCPKM6OuJI0kFeSs-9" target="iAplpCPKM6OuJI0kFeSs-11">
          <mxGeometry relative="1" as="geometry" />
        </mxCell>
        <mxCell id="iAplpCPKM6OuJI0kFeSs-9" value="Đăng xuất khỏi hệ thống" style="whiteSpace=wrap;html=1;fillColor=#dae8fc;strokeColor=#6c8ebf;" vertex="1" parent="1">
          <mxGeometry x="405" y="488" width="120" height="60" as="geometry" />
        </mxCell>
        <mxCell id="iAplpCPKM6OuJI0kFeSs-11" value="Kết thúc" style="ellipse;whiteSpace=wrap;html=1;fillColor=#fff2cc;strokeColor=#d6b656;" vertex="1" parent="1">
          <mxGeometry x="405" y="588" width="120" height="80" as="geometry" />
        </mxCell>
        <mxCell id="iAplpCPKM6OuJI0kFeSs-15" style="edgeStyle=orthogonalEdgeStyle;rounded=0;orthogonalLoop=1;jettySize=auto;html=1;entryX=0;entryY=0.5;entryDx=0;entryDy=0;" edge="1" parent="1" source="iAplpCPKM6OuJI0kFeSs-13" target="iAplpCPKM6OuJI0kFeSs-11">
          <mxGeometry relative="1" as="geometry">
            <mxPoint x="305" y="638" as="targetPoint" />
            <Array as="points">
              <mxPoint x="305" y="628" />
            </Array>
          </mxGeometry>
        </mxCell>
        <mxCell id="iAplpCPKM6OuJI0kFeSs-13" value="Tài khoản duy trì đăng nhập" style="whiteSpace=wrap;html=1;fillColor=#dae8fc;strokeColor=#6c8ebf;" vertex="1" parent="1">
          <mxGeometry x="245" y="378" width="120" height="60" as="geometry" />
        </mxCell>
      </root>
    </mxGraphModel>
  </diagram>
  <diagram id="b-9OhGS0KtYPSKtzIBDa" name="Dashboard (Admin)">
    <mxGraphModel grid="0" page="1" gridSize="10" guides="1" tooltips="1" connect="1" arrows="1" fold="1" pageScale="1" pageWidth="827" pageHeight="1169" math="0" shadow="0">
      <root>
        <mxCell id="0" />
        <mxCell id="1" parent="0" />
        <mxCell id="lg5o-WsUFgnjtNpovaiP-2" value="" style="edgeStyle=orthogonalEdgeStyle;rounded=0;orthogonalLoop=1;jettySize=auto;html=1;" edge="1" parent="1" source="wfb6mJW_auNpmEfb5ObG-1" target="lg5o-WsUFgnjtNpovaiP-1">
          <mxGeometry relative="1" as="geometry" />
        </mxCell>
        <mxCell id="wfb6mJW_auNpmEfb5ObG-1" value="Bắt đầu" style="ellipse;whiteSpace=wrap;html=1;fillColor=#fff2cc;strokeColor=#d6b656;" vertex="1" parent="1">
          <mxGeometry x="354" y="270" width="120" height="80" as="geometry" />
        </mxCell>
        <mxCell id="CEXm6id1ukD9V598ay_--2" value="" style="edgeStyle=orthogonalEdgeStyle;rounded=0;orthogonalLoop=1;jettySize=auto;html=1;" edge="1" parent="1" source="Hv9JL4UqXdByD-EHIG3P-1" target="CEXm6id1ukD9V598ay_--1">
          <mxGeometry relative="1" as="geometry" />
        </mxCell>
        <mxCell id="Hv9JL4UqXdByD-EHIG3P-1" value="Tải dữ liệu trận đấu từ collection Users" style="whiteSpace=wrap;html=1;fillColor=#dae8fc;strokeColor=#6c8ebf;" vertex="1" parent="1">
          <mxGeometry x="354" y="485" width="120" height="60" as="geometry" />
        </mxCell>
        <mxCell id="CEXm6id1ukD9V598ay_--4" value="" style="edgeStyle=orthogonalEdgeStyle;rounded=0;orthogonalLoop=1;jettySize=auto;html=1;" edge="1" parent="1" source="CEXm6id1ukD9V598ay_--1" target="CEXm6id1ukD9V598ay_--3">
          <mxGeometry relative="1" as="geometry" />
        </mxCell>
        <mxCell id="CEXm6id1ukD9V598ay_--1" value="Tính tổng doanh thu từng trận và các trận" style="whiteSpace=wrap;html=1;fillColor=#dae8fc;strokeColor=#6c8ebf;" vertex="1" parent="1">
          <mxGeometry x="354" y="605" width="120" height="60" as="geometry" />
        </mxCell>
        <mxCell id="CEXm6id1ukD9V598ay_--6" value="" style="edgeStyle=orthogonalEdgeStyle;rounded=0;orthogonalLoop=1;jettySize=auto;html=1;" edge="1" parent="1" source="CEXm6id1ukD9V598ay_--3" target="CEXm6id1ukD9V598ay_--5">
          <mxGeometry relative="1" as="geometry" />
        </mxCell>
        <mxCell id="CEXm6id1ukD9V598ay_--3" value="Hiển thị biểu đồ và tổng doanh thu" style="whiteSpace=wrap;html=1;fillColor=#dae8fc;strokeColor=#6c8ebf;" vertex="1" parent="1">
          <mxGeometry x="354" y="713" width="120" height="60" as="geometry" />
        </mxCell>
        <mxCell id="CEXm6id1ukD9V598ay_--5" value="Kết thúc" style="ellipse;whiteSpace=wrap;html=1;fillColor=#fff2cc;strokeColor=#d6b656;" vertex="1" parent="1">
          <mxGeometry x="361" y="820" width="106" height="80" as="geometry" />
        </mxCell>
        <mxCell id="lg5o-WsUFgnjtNpovaiP-3" value="" style="edgeStyle=orthogonalEdgeStyle;rounded=0;orthogonalLoop=1;jettySize=auto;html=1;" edge="1" parent="1" source="lg5o-WsUFgnjtNpovaiP-1" target="Hv9JL4UqXdByD-EHIG3P-1">
          <mxGeometry relative="1" as="geometry" />
        </mxCell>
        <mxCell id="lg5o-WsUFgnjtNpovaiP-1" value="Nhấn chọn &quot;Dashboard&quot; trong trang giao diện chính" style="whiteSpace=wrap;html=1;fillColor=#dae8fc;strokeColor=#6c8ebf;" vertex="1" parent="1">
          <mxGeometry x="354" y="390" width="120" height="60" as="geometry" />
        </mxCell>
      </root>
    </mxGraphModel>
  </diagram>
  <diagram id="6-uvd7h7evCwXRuC0s3n" name="Customers (Admin)">
    <mxGraphModel grid="0" page="1" gridSize="10" guides="1" tooltips="1" connect="1" arrows="1" fold="1" pageScale="1" pageWidth="827" pageHeight="1169" math="0" shadow="0">
      <root>
        <mxCell id="0" />
        <mxCell id="1" parent="0" />
        <mxCell id="uiz_FFuW3FcgGuLaEhhu-2" value="" style="edgeStyle=orthogonalEdgeStyle;rounded=0;orthogonalLoop=1;jettySize=auto;html=1;" edge="1" parent="1" source="D1w-UDw42LadKedsEy9r-1" target="uiz_FFuW3FcgGuLaEhhu-1">
          <mxGeometry relative="1" as="geometry" />
        </mxCell>
        <mxCell id="D1w-UDw42LadKedsEy9r-1" value="Bắt đầu" style="ellipse;whiteSpace=wrap;html=1;fillColor=#fff2cc;strokeColor=#d6b656;" vertex="1" parent="1">
          <mxGeometry x="360" y="5" width="120" height="80" as="geometry" />
        </mxCell>
        <mxCell id="UI-Wv3Ong5dTmT9bhjhN-2" value="" style="edgeStyle=orthogonalEdgeStyle;rounded=0;orthogonalLoop=1;jettySize=auto;html=1;" edge="1" parent="1" source="D1w-UDw42LadKedsEy9r-2" target="UI-Wv3Ong5dTmT9bhjhN-1">
          <mxGeometry relative="1" as="geometry" />
        </mxCell>
        <mxCell id="UI-Wv3Ong5dTmT9bhjhN-17" style="edgeStyle=orthogonalEdgeStyle;rounded=0;orthogonalLoop=1;jettySize=auto;html=1;entryX=1;entryY=0.5;entryDx=0;entryDy=0;" edge="1" parent="1" source="D1w-UDw42LadKedsEy9r-2" target="UI-Wv3Ong5dTmT9bhjhN-7">
          <mxGeometry relative="1" as="geometry">
            <Array as="points">
              <mxPoint x="520" y="250" />
              <mxPoint x="520" y="650" />
            </Array>
          </mxGeometry>
        </mxCell>
        <mxCell id="D1w-UDw42LadKedsEy9r-2" value="Hệ thống tải dữ liệu Users từ database" style="rounded=0;whiteSpace=wrap;html=1;fillColor=#dae8fc;strokeColor=#6c8ebf;" vertex="1" parent="1">
          <mxGeometry x="360" y="220" width="120" height="60" as="geometry" />
        </mxCell>
        <mxCell id="UI-Wv3Ong5dTmT9bhjhN-4" value="" style="edgeStyle=orthogonalEdgeStyle;rounded=0;orthogonalLoop=1;jettySize=auto;html=1;" edge="1" parent="1" source="UI-Wv3Ong5dTmT9bhjhN-1" target="UI-Wv3Ong5dTmT9bhjhN-3">
          <mxGeometry relative="1" as="geometry" />
        </mxCell>
        <mxCell id="UI-Wv3Ong5dTmT9bhjhN-1" value="Nhập thanh tìm&lt;div&gt;kiếm người dùng&lt;/div&gt;" style="shape=parallelogram;perimeter=parallelogramPerimeter;whiteSpace=wrap;html=1;fixedSize=1;fillColor=#f8cecc;strokeColor=#b85450;" vertex="1" parent="1">
          <mxGeometry x="360" y="340" width="120" height="60" as="geometry" />
        </mxCell>
        <mxCell id="UI-Wv3Ong5dTmT9bhjhN-6" value="Không" style="edgeStyle=orthogonalEdgeStyle;rounded=0;orthogonalLoop=1;jettySize=auto;html=1;entryX=0.5;entryY=1;entryDx=0;entryDy=0;" edge="1" parent="1" source="UI-Wv3Ong5dTmT9bhjhN-3" target="UI-Wv3Ong5dTmT9bhjhN-5">
          <mxGeometry relative="1" as="geometry">
            <Array as="points">
              <mxPoint x="220" y="510" />
            </Array>
          </mxGeometry>
        </mxCell>
        <mxCell id="UI-Wv3Ong5dTmT9bhjhN-8" value="Có" style="edgeStyle=orthogonalEdgeStyle;rounded=0;orthogonalLoop=1;jettySize=auto;html=1;" edge="1" parent="1" source="UI-Wv3Ong5dTmT9bhjhN-3" target="UI-Wv3Ong5dTmT9bhjhN-7">
          <mxGeometry relative="1" as="geometry" />
        </mxCell>
        <mxCell id="UI-Wv3Ong5dTmT9bhjhN-3" value="Tên người dùng tồn tại" style="rhombus;whiteSpace=wrap;html=1;fillColor=#d5e8d4;strokeColor=#82b366;" vertex="1" parent="1">
          <mxGeometry x="352" y="450" width="136" height="120" as="geometry" />
        </mxCell>
        <mxCell id="UI-Wv3Ong5dTmT9bhjhN-18" style="edgeStyle=orthogonalEdgeStyle;rounded=0;orthogonalLoop=1;jettySize=auto;html=1;entryX=0;entryY=0.5;entryDx=0;entryDy=0;" edge="1" parent="1" source="UI-Wv3Ong5dTmT9bhjhN-5" target="UI-Wv3Ong5dTmT9bhjhN-1">
          <mxGeometry relative="1" as="geometry">
            <Array as="points">
              <mxPoint x="220" y="370" />
            </Array>
          </mxGeometry>
        </mxCell>
        <mxCell id="UI-Wv3Ong5dTmT9bhjhN-5" value="Không hiện người dùng" style="whiteSpace=wrap;html=1;fillColor=#dae8fc;strokeColor=#6c8ebf;" vertex="1" parent="1">
          <mxGeometry x="160" y="390" width="120" height="60" as="geometry" />
        </mxCell>
        <mxCell id="MTasLnJ_Lm_3a6KFMLkP-2" value="" style="edgeStyle=orthogonalEdgeStyle;rounded=0;orthogonalLoop=1;jettySize=auto;html=1;" edge="1" parent="1" source="UI-Wv3Ong5dTmT9bhjhN-7" target="MTasLnJ_Lm_3a6KFMLkP-1">
          <mxGeometry relative="1" as="geometry" />
        </mxCell>
        <mxCell id="UI-Wv3Ong5dTmT9bhjhN-7" value="Hiển thị người dùng" style="whiteSpace=wrap;html=1;fillColor=#dae8fc;strokeColor=#6c8ebf;" vertex="1" parent="1">
          <mxGeometry x="360" y="620" width="120" height="60" as="geometry" />
        </mxCell>
        <mxCell id="UI-Wv3Ong5dTmT9bhjhN-20" value="" style="edgeStyle=orthogonalEdgeStyle;rounded=0;orthogonalLoop=1;jettySize=auto;html=1;" edge="1" parent="1" source="UI-Wv3Ong5dTmT9bhjhN-11" target="UI-Wv3Ong5dTmT9bhjhN-19">
          <mxGeometry relative="1" as="geometry" />
        </mxCell>
        <mxCell id="UI-Wv3Ong5dTmT9bhjhN-11" value="Hệ thống lấy dữ liệu&amp;nbsp;&lt;div&gt;User đó trên database&lt;/div&gt;" style="whiteSpace=wrap;html=1;fillColor=#dae8fc;strokeColor=#6c8ebf;" vertex="1" parent="1">
          <mxGeometry x="350" y="830" width="140" height="70" as="geometry" />
        </mxCell>
        <mxCell id="UI-Wv3Ong5dTmT9bhjhN-22" value="" style="edgeStyle=orthogonalEdgeStyle;rounded=0;orthogonalLoop=1;jettySize=auto;html=1;" edge="1" parent="1" source="UI-Wv3Ong5dTmT9bhjhN-19" target="UI-Wv3Ong5dTmT9bhjhN-21">
          <mxGeometry relative="1" as="geometry" />
        </mxCell>
        <mxCell id="UI-Wv3Ong5dTmT9bhjhN-19" value="Hiển thị thông tin các vé khách hàng đã mua" style="rounded=0;whiteSpace=wrap;html=1;fillColor=#dae8fc;strokeColor=#6c8ebf;" vertex="1" parent="1">
          <mxGeometry x="351" y="960" width="138" height="70" as="geometry" />
        </mxCell>
        <mxCell id="UI-Wv3Ong5dTmT9bhjhN-21" value="Kết thúc" style="ellipse;whiteSpace=wrap;html=1;rounded=0;fillColor=#fff2cc;strokeColor=#d6b656;" vertex="1" parent="1">
          <mxGeometry x="355" y="1080" width="130" height="80" as="geometry" />
        </mxCell>
        <mxCell id="uiz_FFuW3FcgGuLaEhhu-3" value="" style="edgeStyle=orthogonalEdgeStyle;rounded=0;orthogonalLoop=1;jettySize=auto;html=1;" edge="1" parent="1" source="uiz_FFuW3FcgGuLaEhhu-1" target="D1w-UDw42LadKedsEy9r-2">
          <mxGeometry relative="1" as="geometry" />
        </mxCell>
        <mxCell id="uiz_FFuW3FcgGuLaEhhu-1" value="Nhấn chọn &quot;Customers&quot; ở trang giao diện chính" style="whiteSpace=wrap;html=1;fillColor=#dae8fc;strokeColor=#6c8ebf;" vertex="1" parent="1">
          <mxGeometry x="360" y="120" width="120" height="60" as="geometry" />
        </mxCell>
        <mxCell id="MTasLnJ_Lm_3a6KFMLkP-3" value="" style="edgeStyle=orthogonalEdgeStyle;rounded=0;orthogonalLoop=1;jettySize=auto;html=1;" edge="1" parent="1" source="MTasLnJ_Lm_3a6KFMLkP-1" target="UI-Wv3Ong5dTmT9bhjhN-11">
          <mxGeometry relative="1" as="geometry" />
        </mxCell>
        <mxCell id="MTasLnJ_Lm_3a6KFMLkP-1" value="Nhấn chọn người dùng" style="whiteSpace=wrap;html=1;fillColor=#dae8fc;strokeColor=#6c8ebf;" vertex="1" parent="1">
          <mxGeometry x="360" y="720" width="120" height="60" as="geometry" />
        </mxCell>
      </root>
    </mxGraphModel>
  </diagram>
  <diagram id="GySXV9sZ-NyqWMpYqUNp" name="Invoices (Admin)">
    <mxGraphModel grid="1" page="1" gridSize="10" guides="1" tooltips="1" connect="1" arrows="1" fold="1" pageScale="1" pageWidth="850" pageHeight="1100" math="0" shadow="0">
      <root>
        <mxCell id="0" />
        <mxCell id="1" parent="0" />
        <mxCell id="90rgP4B6oXMKbR944ouz-1" value="" style="edgeStyle=orthogonalEdgeStyle;rounded=0;orthogonalLoop=1;jettySize=auto;html=1;" edge="1" parent="1" source="90rgP4B6oXMKbR944ouz-2" target="90rgP4B6oXMKbR944ouz-3">
          <mxGeometry relative="1" as="geometry" />
        </mxCell>
        <mxCell id="90rgP4B6oXMKbR944ouz-2" value="Bắt đầu" style="ellipse;whiteSpace=wrap;html=1;fillColor=#fff2cc;strokeColor=#d6b656;" vertex="1" parent="1">
          <mxGeometry x="461" y="57" width="120" height="80" as="geometry" />
        </mxCell>
        <mxCell id="Wsh5x2R2vOsAGjH2NhP7-1" value="" style="edgeStyle=orthogonalEdgeStyle;rounded=0;orthogonalLoop=1;jettySize=auto;html=1;" edge="1" parent="1" source="90rgP4B6oXMKbR944ouz-3" target="IAZPWuvqafSnLCPUOySt-1">
          <mxGeometry relative="1" as="geometry" />
        </mxCell>
        <mxCell id="90rgP4B6oXMKbR944ouz-3" value="Nhấn chọn &quot;Invoices&quot; ở trang giao diện chính" style="whiteSpace=wrap;html=1;fillColor=#dae8fc;strokeColor=#6c8ebf;" vertex="1" parent="1">
          <mxGeometry x="461" y="172" width="120" height="60" as="geometry" />
        </mxCell>
        <mxCell id="kuzLX3K9vDtxzujHeOiG-9" value="" style="edgeStyle=orthogonalEdgeStyle;rounded=0;orthogonalLoop=1;jettySize=auto;html=1;" edge="1" parent="1" source="IAZPWuvqafSnLCPUOySt-1" target="kuzLX3K9vDtxzujHeOiG-2">
          <mxGeometry relative="1" as="geometry" />
        </mxCell>
        <mxCell id="IAZPWuvqafSnLCPUOySt-1" value="Hệ thống tải dữ liệu trận đấu từ database" style="rounded=0;whiteSpace=wrap;html=1;fillColor=#dae8fc;strokeColor=#6c8ebf;" vertex="1" parent="1">
          <mxGeometry x="461" y="267" width="120" height="60" as="geometry" />
        </mxCell>
        <mxCell id="OyFqBhTnQfqnjsFA-pcN-3" value="" style="edgeStyle=orthogonalEdgeStyle;rounded=0;orthogonalLoop=1;jettySize=auto;html=1;" edge="1" parent="1" source="tCTC6jiJQGQDL5rPs6_O-1" target="OyFqBhTnQfqnjsFA-pcN-2">
          <mxGeometry relative="1" as="geometry" />
        </mxCell>
        <mxCell id="tCTC6jiJQGQDL5rPs6_O-1" value="Admin nhấn chọn&amp;nbsp;&lt;div&gt;&lt;span style=&quot;background-color: transparent; color: light-dark(rgb(0, 0, 0), rgb(255, 255, 255));&quot;&gt;trận đấu&lt;/span&gt;&lt;/div&gt;" style="whiteSpace=wrap;html=1;rounded=0;fillColor=#dae8fc;strokeColor=#6c8ebf;" vertex="1" parent="1">
          <mxGeometry x="461" y="725" width="120" height="50" as="geometry" />
        </mxCell>
        <mxCell id="kuzLX3K9vDtxzujHeOiG-1" value="" style="edgeStyle=orthogonalEdgeStyle;rounded=0;orthogonalLoop=1;jettySize=auto;html=1;" edge="1" parent="1" source="kuzLX3K9vDtxzujHeOiG-2" target="kuzLX3K9vDtxzujHeOiG-5">
          <mxGeometry relative="1" as="geometry" />
        </mxCell>
        <mxCell id="kuzLX3K9vDtxzujHeOiG-2" value="Nhập thanh tìm&lt;div&gt;kiếm trận đấu&lt;/div&gt;" style="shape=parallelogram;perimeter=parallelogramPerimeter;whiteSpace=wrap;html=1;fixedSize=1;fillColor=#f8cecc;strokeColor=#b85450;" vertex="1" parent="1">
          <mxGeometry x="461" y="367" width="120" height="60" as="geometry" />
        </mxCell>
        <mxCell id="kuzLX3K9vDtxzujHeOiG-3" value="Không" style="edgeStyle=orthogonalEdgeStyle;rounded=0;orthogonalLoop=1;jettySize=auto;html=1;entryX=0.5;entryY=1;entryDx=0;entryDy=0;" edge="1" parent="1" source="kuzLX3K9vDtxzujHeOiG-5" target="kuzLX3K9vDtxzujHeOiG-7">
          <mxGeometry relative="1" as="geometry">
            <Array as="points">
              <mxPoint x="321" y="537" />
            </Array>
          </mxGeometry>
        </mxCell>
        <mxCell id="kuzLX3K9vDtxzujHeOiG-4" value="Có" style="edgeStyle=orthogonalEdgeStyle;rounded=0;orthogonalLoop=1;jettySize=auto;html=1;" edge="1" parent="1" source="kuzLX3K9vDtxzujHeOiG-5" target="kuzLX3K9vDtxzujHeOiG-8">
          <mxGeometry relative="1" as="geometry" />
        </mxCell>
        <mxCell id="kuzLX3K9vDtxzujHeOiG-5" value="Trận đấu tồn tại" style="rhombus;whiteSpace=wrap;html=1;fillColor=#d5e8d4;strokeColor=#82b366;" vertex="1" parent="1">
          <mxGeometry x="453" y="477" width="136" height="100" as="geometry" />
        </mxCell>
        <mxCell id="kuzLX3K9vDtxzujHeOiG-6" style="edgeStyle=orthogonalEdgeStyle;rounded=0;orthogonalLoop=1;jettySize=auto;html=1;entryX=0;entryY=0.5;entryDx=0;entryDy=0;" edge="1" parent="1" source="kuzLX3K9vDtxzujHeOiG-7" target="kuzLX3K9vDtxzujHeOiG-2">
          <mxGeometry relative="1" as="geometry">
            <Array as="points">
              <mxPoint x="321" y="397" />
            </Array>
          </mxGeometry>
        </mxCell>
        <mxCell id="kuzLX3K9vDtxzujHeOiG-7" value="Không hiện trận đấu" style="whiteSpace=wrap;html=1;fillColor=#dae8fc;strokeColor=#6c8ebf;" vertex="1" parent="1">
          <mxGeometry x="261" y="427" width="120" height="60" as="geometry" />
        </mxCell>
        <mxCell id="OyFqBhTnQfqnjsFA-pcN-1" value="" style="edgeStyle=orthogonalEdgeStyle;rounded=0;orthogonalLoop=1;jettySize=auto;html=1;" edge="1" parent="1" source="kuzLX3K9vDtxzujHeOiG-8" target="tCTC6jiJQGQDL5rPs6_O-1">
          <mxGeometry relative="1" as="geometry" />
        </mxCell>
        <mxCell id="kuzLX3K9vDtxzujHeOiG-8" value="Hệ thống hiển thị&amp;nbsp;&lt;div&gt;t&lt;span style=&quot;background-color: transparent; color: light-dark(rgb(0, 0, 0), rgb(255, 255, 255));&quot;&gt;rận đấu và doanh thu&lt;/span&gt;&lt;/div&gt;" style="whiteSpace=wrap;html=1;fillColor=#dae8fc;strokeColor=#6c8ebf;" vertex="1" parent="1">
          <mxGeometry x="461" y="625" width="120" height="60" as="geometry" />
        </mxCell>
        <mxCell id="OyFqBhTnQfqnjsFA-pcN-5" value="" style="edgeStyle=orthogonalEdgeStyle;rounded=0;orthogonalLoop=1;jettySize=auto;html=1;" edge="1" parent="1" source="OyFqBhTnQfqnjsFA-pcN-2" target="OyFqBhTnQfqnjsFA-pcN-4">
          <mxGeometry relative="1" as="geometry" />
        </mxCell>
        <mxCell id="OyFqBhTnQfqnjsFA-pcN-2" value="Hệ thống hiển thị thông tin chi tiết các vé đã bán theo từng User" style="whiteSpace=wrap;html=1;rounded=0;fillColor=#dae8fc;strokeColor=#6c8ebf;" vertex="1" parent="1">
          <mxGeometry x="456" y="805" width="130" height="60" as="geometry" />
        </mxCell>
        <mxCell id="OyFqBhTnQfqnjsFA-pcN-4" value="Kết thúc" style="ellipse;whiteSpace=wrap;html=1;fillColor=#fff2cc;strokeColor=#d6b656;" vertex="1" parent="1">
          <mxGeometry x="461" y="907" width="120" height="80" as="geometry" />
        </mxCell>
      </root>
    </mxGraphModel>
  </diagram>
  <diagram id="DPZgAgEDiB4FoPLs1BSZ" name="Products (Admin)">
    <mxGraphModel grid="1" page="1" gridSize="10" guides="1" tooltips="1" connect="1" arrows="1" fold="1" pageScale="1" pageWidth="850" pageHeight="1100" math="0" shadow="0">
      <root>
        <mxCell id="0" />
        <mxCell id="1" parent="0" />
        <mxCell id="fj4JxyPEQ0fU7CWB26eV-4" value="" style="edgeStyle=orthogonalEdgeStyle;rounded=0;orthogonalLoop=1;jettySize=auto;html=1;" edge="1" parent="1" source="JQq-BRNiJm0xPVf3Np2E-2" target="fj4JxyPEQ0fU7CWB26eV-2">
          <mxGeometry relative="1" as="geometry" />
        </mxCell>
        <mxCell id="JQq-BRNiJm0xPVf3Np2E-2" value="Bắt đầu" style="ellipse;whiteSpace=wrap;html=1;fillColor=#fff2cc;strokeColor=#d6b656;" vertex="1" parent="1">
          <mxGeometry x="305" y="19" width="120" height="80" as="geometry" />
        </mxCell>
        <mxCell id="fj4JxyPEQ0fU7CWB26eV-1" value="" style="edgeStyle=orthogonalEdgeStyle;rounded=0;orthogonalLoop=1;jettySize=auto;html=1;fillColor=#dae8fc;strokeColor=#6c8ebf;" edge="1" parent="1" source="fj4JxyPEQ0fU7CWB26eV-2" target="fj4JxyPEQ0fU7CWB26eV-3">
          <mxGeometry relative="1" as="geometry" />
        </mxCell>
        <mxCell id="fj4JxyPEQ0fU7CWB26eV-2" value="Nhấn chọn &quot;Products&quot; ở trang giao diện chính" style="whiteSpace=wrap;html=1;fillColor=#dae8fc;strokeColor=#6c8ebf;" vertex="1" parent="1">
          <mxGeometry x="300" y="139" width="130" height="60" as="geometry" />
        </mxCell>
        <mxCell id="XUwcHm47Wl36WM48n3df-16" value="" style="edgeStyle=orthogonalEdgeStyle;rounded=0;orthogonalLoop=1;jettySize=auto;html=1;" edge="1" parent="1" source="fj4JxyPEQ0fU7CWB26eV-3" target="XUwcHm47Wl36WM48n3df-4">
          <mxGeometry relative="1" as="geometry" />
        </mxCell>
        <mxCell id="fj4JxyPEQ0fU7CWB26eV-3" value="Hệ thống tải dữ&amp;nbsp;&lt;div&gt;liệu trận đấu&amp;nbsp;&lt;/div&gt;&lt;div&gt;từ database&lt;/div&gt;" style="rounded=0;whiteSpace=wrap;html=1;fillColor=#dae8fc;strokeColor=#6c8ebf;" vertex="1" parent="1">
          <mxGeometry x="305" y="234" width="120" height="60" as="geometry" />
        </mxCell>
        <mxCell id="XUwcHm47Wl36WM48n3df-1" value="" style="edgeStyle=orthogonalEdgeStyle;rounded=0;orthogonalLoop=1;jettySize=auto;html=1;" edge="1" parent="1" source="XUwcHm47Wl36WM48n3df-2" target="XUwcHm47Wl36WM48n3df-13">
          <mxGeometry relative="1" as="geometry" />
        </mxCell>
        <mxCell id="XUwcHm47Wl36WM48n3df-2" value="Admin nhấn chọn&amp;nbsp;&lt;div&gt;&lt;span style=&quot;background-color: transparent; color: light-dark(rgb(0, 0, 0), rgb(255, 255, 255));&quot;&gt;trận đấu&lt;/span&gt;&lt;/div&gt;" style="whiteSpace=wrap;html=1;rounded=0;fillColor=#dae8fc;strokeColor=#6c8ebf;" vertex="1" parent="1">
          <mxGeometry x="305" y="697" width="120" height="50" as="geometry" />
        </mxCell>
        <mxCell id="XUwcHm47Wl36WM48n3df-3" value="" style="edgeStyle=orthogonalEdgeStyle;rounded=0;orthogonalLoop=1;jettySize=auto;html=1;" edge="1" parent="1" source="XUwcHm47Wl36WM48n3df-4" target="XUwcHm47Wl36WM48n3df-7">
          <mxGeometry relative="1" as="geometry" />
        </mxCell>
        <mxCell id="XUwcHm47Wl36WM48n3df-4" value="Nhập thanh tìm&lt;div&gt;kiếm trận đấu&lt;/div&gt;" style="shape=parallelogram;perimeter=parallelogramPerimeter;whiteSpace=wrap;html=1;fixedSize=1;fillColor=#f8cecc;strokeColor=#b85450;" vertex="1" parent="1">
          <mxGeometry x="305" y="339" width="120" height="60" as="geometry" />
        </mxCell>
        <mxCell id="XUwcHm47Wl36WM48n3df-5" value="Không" style="edgeStyle=orthogonalEdgeStyle;rounded=0;orthogonalLoop=1;jettySize=auto;html=1;entryX=0.5;entryY=1;entryDx=0;entryDy=0;" edge="1" parent="1" source="XUwcHm47Wl36WM48n3df-7" target="XUwcHm47Wl36WM48n3df-9">
          <mxGeometry relative="1" as="geometry">
            <Array as="points">
              <mxPoint x="165" y="509" />
            </Array>
          </mxGeometry>
        </mxCell>
        <mxCell id="XUwcHm47Wl36WM48n3df-6" value="Có" style="edgeStyle=orthogonalEdgeStyle;rounded=0;orthogonalLoop=1;jettySize=auto;html=1;" edge="1" parent="1" source="XUwcHm47Wl36WM48n3df-7" target="XUwcHm47Wl36WM48n3df-11">
          <mxGeometry relative="1" as="geometry" />
        </mxCell>
        <mxCell id="XUwcHm47Wl36WM48n3df-7" value="Trận đấu tồn tại" style="rhombus;whiteSpace=wrap;html=1;fillColor=#d5e8d4;strokeColor=#82b366;" vertex="1" parent="1">
          <mxGeometry x="297" y="449" width="136" height="100" as="geometry" />
        </mxCell>
        <mxCell id="XUwcHm47Wl36WM48n3df-8" style="edgeStyle=orthogonalEdgeStyle;rounded=0;orthogonalLoop=1;jettySize=auto;html=1;entryX=0;entryY=0.5;entryDx=0;entryDy=0;" edge="1" parent="1" source="XUwcHm47Wl36WM48n3df-9" target="XUwcHm47Wl36WM48n3df-4">
          <mxGeometry relative="1" as="geometry">
            <Array as="points">
              <mxPoint x="165" y="369" />
            </Array>
          </mxGeometry>
        </mxCell>
        <mxCell id="XUwcHm47Wl36WM48n3df-9" value="Không hiện trận đấu" style="whiteSpace=wrap;html=1;fillColor=#dae8fc;strokeColor=#6c8ebf;" vertex="1" parent="1">
          <mxGeometry x="105" y="389" width="120" height="60" as="geometry" />
        </mxCell>
        <mxCell id="XUwcHm47Wl36WM48n3df-10" value="" style="edgeStyle=orthogonalEdgeStyle;rounded=0;orthogonalLoop=1;jettySize=auto;html=1;" edge="1" parent="1" source="XUwcHm47Wl36WM48n3df-11" target="XUwcHm47Wl36WM48n3df-2">
          <mxGeometry relative="1" as="geometry" />
        </mxCell>
        <mxCell id="XUwcHm47Wl36WM48n3df-11" value="Hệ thống hiển thị&amp;nbsp;&lt;div&gt;t&lt;span style=&quot;background-color: transparent; color: light-dark(rgb(0, 0, 0), rgb(255, 255, 255));&quot;&gt;rận đấu&lt;/span&gt;&lt;/div&gt;" style="whiteSpace=wrap;html=1;fillColor=#dae8fc;strokeColor=#6c8ebf;" vertex="1" parent="1">
          <mxGeometry x="305" y="597" width="120" height="60" as="geometry" />
        </mxCell>
        <mxCell id="XUwcHm47Wl36WM48n3df-20" value="" style="edgeStyle=orthogonalEdgeStyle;rounded=0;orthogonalLoop=1;jettySize=auto;html=1;" edge="1" parent="1" source="XUwcHm47Wl36WM48n3df-13" target="XUwcHm47Wl36WM48n3df-19">
          <mxGeometry relative="1" as="geometry" />
        </mxCell>
        <mxCell id="XUwcHm47Wl36WM48n3df-13" value="Hệ thống hiển thị popup &quot;Product update&quot;" style="whiteSpace=wrap;html=1;rounded=0;fillColor=#dae8fc;strokeColor=#6c8ebf;" vertex="1" parent="1">
          <mxGeometry x="300" y="777" width="130" height="60" as="geometry" />
        </mxCell>
        <mxCell id="XUwcHm47Wl36WM48n3df-14" value="Kết thúc" style="ellipse;whiteSpace=wrap;html=1;fillColor=#fff2cc;strokeColor=#d6b656;" vertex="1" parent="1">
          <mxGeometry x="305" y="1339" width="120" height="80" as="geometry" />
        </mxCell>
        <mxCell id="XUwcHm47Wl36WM48n3df-22" value="Có" style="edgeStyle=orthogonalEdgeStyle;rounded=0;orthogonalLoop=1;jettySize=auto;html=1;" edge="1" parent="1" source="XUwcHm47Wl36WM48n3df-19" target="XUwcHm47Wl36WM48n3df-21">
          <mxGeometry relative="1" as="geometry" />
        </mxCell>
        <mxCell id="XUwcHm47Wl36WM48n3df-32" value="Không" style="edgeStyle=orthogonalEdgeStyle;rounded=0;orthogonalLoop=1;jettySize=auto;html=1;" edge="1" parent="1" source="XUwcHm47Wl36WM48n3df-19" target="XUwcHm47Wl36WM48n3df-31">
          <mxGeometry relative="1" as="geometry" />
        </mxCell>
        <mxCell id="XUwcHm47Wl36WM48n3df-19" value="&lt;div&gt;&lt;br&gt;&lt;/div&gt;Người dùng&lt;div&gt;&amp;nbsp;chỉnh sửa thông&amp;nbsp;&lt;div&gt;tin trận đấu&lt;/div&gt;&lt;/div&gt;" style="rhombus;whiteSpace=wrap;html=1;rounded=0;fillColor=#d5e8d4;strokeColor=#82b366;" vertex="1" parent="1">
          <mxGeometry x="302.5" y="879" width="125" height="130" as="geometry" />
        </mxCell>
        <mxCell id="XUwcHm47Wl36WM48n3df-24" value="" style="edgeStyle=orthogonalEdgeStyle;rounded=0;orthogonalLoop=1;jettySize=auto;html=1;" edge="1" parent="1" source="XUwcHm47Wl36WM48n3df-21" target="XUwcHm47Wl36WM48n3df-23">
          <mxGeometry relative="1" as="geometry" />
        </mxCell>
        <mxCell id="XUwcHm47Wl36WM48n3df-21" value="Nhập đầy đủ các thông tin cần sửa" style="shape=parallelogram;perimeter=parallelogramPerimeter;whiteSpace=wrap;html=1;fixedSize=1;rounded=0;fillColor=#f8cecc;strokeColor=#b85450;" vertex="1" parent="1">
          <mxGeometry x="305" y="1049" width="120" height="60" as="geometry" />
        </mxCell>
        <mxCell id="XUwcHm47Wl36WM48n3df-26" value="Có" style="edgeStyle=orthogonalEdgeStyle;rounded=0;orthogonalLoop=1;jettySize=auto;html=1;" edge="1" parent="1" source="XUwcHm47Wl36WM48n3df-23" target="XUwcHm47Wl36WM48n3df-25">
          <mxGeometry relative="1" as="geometry" />
        </mxCell>
        <mxCell id="XUwcHm47Wl36WM48n3df-29" value="Không" style="edgeStyle=orthogonalEdgeStyle;rounded=0;orthogonalLoop=1;jettySize=auto;html=1;" edge="1" parent="1" source="XUwcHm47Wl36WM48n3df-23" target="XUwcHm47Wl36WM48n3df-28">
          <mxGeometry relative="1" as="geometry" />
        </mxCell>
        <mxCell id="XUwcHm47Wl36WM48n3df-23" value="Thông tin&amp;nbsp;&lt;div&gt;nhập hợp lệ&lt;/div&gt;" style="rhombus;whiteSpace=wrap;html=1;rounded=0;fillColor=#d5e8d4;strokeColor=#82b366;" vertex="1" parent="1">
          <mxGeometry x="317.5" y="1139" width="95" height="80" as="geometry" />
        </mxCell>
        <mxCell id="XUwcHm47Wl36WM48n3df-27" value="" style="edgeStyle=orthogonalEdgeStyle;rounded=0;orthogonalLoop=1;jettySize=auto;html=1;" edge="1" parent="1" source="XUwcHm47Wl36WM48n3df-25" target="XUwcHm47Wl36WM48n3df-14">
          <mxGeometry relative="1" as="geometry" />
        </mxCell>
        <mxCell id="XUwcHm47Wl36WM48n3df-25" value="Hệ thống duyệt qua database và cập nhật thông tin mới" style="whiteSpace=wrap;html=1;rounded=0;fillColor=#dae8fc;strokeColor=#6c8ebf;" vertex="1" parent="1">
          <mxGeometry x="305" y="1259" width="120" height="60" as="geometry" />
        </mxCell>
        <mxCell id="XUwcHm47Wl36WM48n3df-30" style="edgeStyle=orthogonalEdgeStyle;rounded=0;orthogonalLoop=1;jettySize=auto;html=1;entryX=0;entryY=0.5;entryDx=0;entryDy=0;" edge="1" parent="1" source="XUwcHm47Wl36WM48n3df-28" target="XUwcHm47Wl36WM48n3df-21">
          <mxGeometry relative="1" as="geometry">
            <Array as="points">
              <mxPoint x="190" y="1079" />
            </Array>
          </mxGeometry>
        </mxCell>
        <mxCell id="XUwcHm47Wl36WM48n3df-28" value="Hệ thống hiện thị thông báo lỗi và yêu cầu nhập lại" style="whiteSpace=wrap;html=1;rounded=0;fillColor=#dae8fc;strokeColor=#6c8ebf;" vertex="1" parent="1">
          <mxGeometry x="130" y="1149" width="120" height="60" as="geometry" />
        </mxCell>
        <mxCell id="XUwcHm47Wl36WM48n3df-34" value="Không" style="edgeStyle=orthogonalEdgeStyle;rounded=0;orthogonalLoop=1;jettySize=auto;html=1;" edge="1" parent="1" source="XUwcHm47Wl36WM48n3df-31" target="XUwcHm47Wl36WM48n3df-33">
          <mxGeometry relative="1" as="geometry" />
        </mxCell>
        <mxCell id="XUwcHm47Wl36WM48n3df-36" value="Có" style="edgeStyle=orthogonalEdgeStyle;rounded=0;orthogonalLoop=1;jettySize=auto;html=1;" edge="1" parent="1" source="XUwcHm47Wl36WM48n3df-31" target="XUwcHm47Wl36WM48n3df-35">
          <mxGeometry relative="1" as="geometry" />
        </mxCell>
        <mxCell id="XUwcHm47Wl36WM48n3df-31" value="Người dùng&amp;nbsp;&lt;div&gt;&lt;span style=&quot;background-color: transparent; color: light-dark(rgb(0, 0, 0), rgb(255, 255, 255));&quot;&gt;&amp;nbsp;xóa&amp;nbsp;&lt;/span&gt;&lt;div&gt;trận đấu&lt;/div&gt;&lt;/div&gt;" style="rhombus;whiteSpace=wrap;html=1;rounded=0;fillColor=#d5e8d4;strokeColor=#82b366;" vertex="1" parent="1">
          <mxGeometry x="493" y="891.5" width="100" height="105" as="geometry" />
        </mxCell>
        <mxCell id="XUwcHm47Wl36WM48n3df-40" style="edgeStyle=orthogonalEdgeStyle;rounded=0;orthogonalLoop=1;jettySize=auto;html=1;entryX=1;entryY=0.5;entryDx=0;entryDy=0;exitX=0.5;exitY=1;exitDx=0;exitDy=0;" edge="1" parent="1">
          <mxGeometry relative="1" as="geometry">
            <mxPoint x="721" y="974" as="sourcePoint" />
            <mxPoint x="423" y="1379" as="targetPoint" />
            <Array as="points">
              <mxPoint x="723" y="974" />
              <mxPoint x="723" y="1379" />
            </Array>
          </mxGeometry>
        </mxCell>
        <mxCell id="XUwcHm47Wl36WM48n3df-33" value="Chọn &quot;Cancel&quot; để thoát popup" style="whiteSpace=wrap;html=1;rounded=0;fillColor=#dae8fc;strokeColor=#6c8ebf;" vertex="1" parent="1">
          <mxGeometry x="663" y="914" width="120" height="60" as="geometry" />
        </mxCell>
        <mxCell id="XUwcHm47Wl36WM48n3df-37" style="edgeStyle=orthogonalEdgeStyle;rounded=0;orthogonalLoop=1;jettySize=auto;html=1;entryX=1;entryY=0.5;entryDx=0;entryDy=0;exitX=0.5;exitY=1;exitDx=0;exitDy=0;" edge="1" parent="1">
          <mxGeometry relative="1" as="geometry">
            <mxPoint x="541" y="1109" as="sourcePoint" />
            <mxPoint x="423" y="1289" as="targetPoint" />
            <Array as="points">
              <mxPoint x="543" y="1109" />
              <mxPoint x="543" y="1289" />
            </Array>
          </mxGeometry>
        </mxCell>
        <mxCell id="XUwcHm47Wl36WM48n3df-35" value="Chọn &quot;Delete Match&quot;" style="whiteSpace=wrap;html=1;rounded=0;fillColor=#dae8fc;strokeColor=#6c8ebf;" vertex="1" parent="1">
          <mxGeometry x="483" y="1049" width="120" height="60" as="geometry" />
        </mxCell>
      </root>
    </mxGraphModel>
  </diagram>
  <diagram id="Fq9LVPSfdDWhjt_nwT9y" name="Add Product (Admin)">
    <mxGraphModel grid="1" page="1" gridSize="10" guides="1" tooltips="1" connect="1" arrows="1" fold="1" pageScale="1" pageWidth="850" pageHeight="1100" math="0" shadow="0">
      <root>
        <mxCell id="0" />
        <mxCell id="1" parent="0" />
        <mxCell id="6g-XfwaM_3Nq53yrJ-dp-1" value="" style="edgeStyle=orthogonalEdgeStyle;rounded=0;orthogonalLoop=1;jettySize=auto;html=1;" edge="1" parent="1" source="6g-XfwaM_3Nq53yrJ-dp-2" target="6g-XfwaM_3Nq53yrJ-dp-4">
          <mxGeometry relative="1" as="geometry" />
        </mxCell>
        <mxCell id="6g-XfwaM_3Nq53yrJ-dp-2" value="Bắt đầu" style="ellipse;whiteSpace=wrap;html=1;fillColor=#fff2cc;strokeColor=#d6b656;" vertex="1" parent="1">
          <mxGeometry x="386" y="68" width="120" height="80" as="geometry" />
        </mxCell>
        <mxCell id="6g-XfwaM_3Nq53yrJ-dp-3" value="" style="edgeStyle=orthogonalEdgeStyle;rounded=0;orthogonalLoop=1;jettySize=auto;html=1;fillColor=#dae8fc;strokeColor=#000000;" edge="1" parent="1" source="6g-XfwaM_3Nq53yrJ-dp-4" target="6g-XfwaM_3Nq53yrJ-dp-5">
          <mxGeometry relative="1" as="geometry" />
        </mxCell>
        <mxCell id="6g-XfwaM_3Nq53yrJ-dp-4" value="Nhấn chọn &quot;Add New Product&quot; ở trang giao diện &quot;Products&quot;" style="whiteSpace=wrap;html=1;fillColor=#dae8fc;strokeColor=#6c8ebf;" vertex="1" parent="1">
          <mxGeometry x="381" y="188" width="130" height="60" as="geometry" />
        </mxCell>
        <mxCell id="6g-XfwaM_3Nq53yrJ-dp-9" value="" style="edgeStyle=orthogonalEdgeStyle;rounded=0;orthogonalLoop=1;jettySize=auto;html=1;" edge="1" parent="1" source="6g-XfwaM_3Nq53yrJ-dp-5" target="6g-XfwaM_3Nq53yrJ-dp-8">
          <mxGeometry relative="1" as="geometry" />
        </mxCell>
        <mxCell id="6g-XfwaM_3Nq53yrJ-dp-5" value="Hệ thống hiển thị giao diện cho người dùng nhập các thông tin về trận đấu mới" style="rounded=0;whiteSpace=wrap;html=1;fillColor=#dae8fc;strokeColor=#6c8ebf;" vertex="1" parent="1">
          <mxGeometry x="379.13" y="278" width="133.75" height="70" as="geometry" />
        </mxCell>
        <mxCell id="6g-XfwaM_3Nq53yrJ-dp-11" value="" style="edgeStyle=orthogonalEdgeStyle;rounded=0;orthogonalLoop=1;jettySize=auto;html=1;entryX=0.5;entryY=0;entryDx=0;entryDy=0;" edge="1" parent="1" source="6g-XfwaM_3Nq53yrJ-dp-8" target="_Z7UKvPdG9wm-H9_1HVw-1">
          <mxGeometry relative="1" as="geometry">
            <mxPoint x="446.0049999999999" y="535.5000000000002" as="targetPoint" />
          </mxGeometry>
        </mxCell>
        <mxCell id="6g-XfwaM_3Nq53yrJ-dp-8" value="Nhập đầy đủ các thông tin hiển thị&amp;nbsp;&lt;div&gt;trên màn hình&lt;/div&gt;" style="shape=parallelogram;perimeter=parallelogramPerimeter;whiteSpace=wrap;html=1;fixedSize=1;rounded=0;fillColor=#f8cecc;strokeColor=#b85450;" vertex="1" parent="1">
          <mxGeometry x="383.5" y="386" width="125.01" height="65" as="geometry" />
        </mxCell>
        <mxCell id="0xFt429Wg5Up6ecTt_AN-2" value="Đúng" style="edgeStyle=orthogonalEdgeStyle;rounded=0;orthogonalLoop=1;jettySize=auto;html=1;" edge="1" parent="1" source="_Z7UKvPdG9wm-H9_1HVw-1" target="0xFt429Wg5Up6ecTt_AN-1">
          <mxGeometry relative="1" as="geometry" />
        </mxCell>
        <mxCell id="1hQs19jxyl-HawYijcBR-2" value="Sai" style="edgeStyle=orthogonalEdgeStyle;rounded=0;orthogonalLoop=1;jettySize=auto;html=1;" edge="1" parent="1" source="_Z7UKvPdG9wm-H9_1HVw-1" target="1hQs19jxyl-HawYijcBR-1">
          <mxGeometry relative="1" as="geometry" />
        </mxCell>
        <mxCell id="_Z7UKvPdG9wm-H9_1HVw-1" value="Kiểm tra điều&amp;nbsp;&lt;div&gt;kiện nhập&lt;/div&gt;" style="rhombus;whiteSpace=wrap;html=1;fillColor=#d5e8d4;strokeColor=#82b366;" vertex="1" parent="1">
          <mxGeometry x="388.5" y="488" width="115" height="90" as="geometry" />
        </mxCell>
        <mxCell id="1hQs19jxyl-HawYijcBR-5" value="" style="edgeStyle=orthogonalEdgeStyle;rounded=0;orthogonalLoop=1;jettySize=auto;html=1;" edge="1" parent="1" source="0xFt429Wg5Up6ecTt_AN-1" target="1hQs19jxyl-HawYijcBR-4">
          <mxGeometry relative="1" as="geometry" />
        </mxCell>
        <mxCell id="0xFt429Wg5Up6ecTt_AN-1" value="Hệ thống cập nhật trận đấu mới&amp;nbsp;&lt;div&gt;lên database&lt;/div&gt;" style="whiteSpace=wrap;html=1;rounded=0;fillColor=#dae8fc;strokeColor=#6c8ebf;" vertex="1" parent="1">
          <mxGeometry x="386.01" y="618" width="120" height="50" as="geometry" />
        </mxCell>
        <mxCell id="1hQs19jxyl-HawYijcBR-3" style="edgeStyle=orthogonalEdgeStyle;rounded=0;orthogonalLoop=1;jettySize=auto;html=1;exitX=0.561;exitY=0.02;exitDx=0;exitDy=0;exitPerimeter=0;" edge="1" parent="1" source="1hQs19jxyl-HawYijcBR-1">
          <mxGeometry relative="1" as="geometry">
            <mxPoint x="441" y="368" as="targetPoint" />
            <Array as="points">
              <mxPoint x="291" y="504" />
              <mxPoint x="291" y="368" />
            </Array>
          </mxGeometry>
        </mxCell>
        <mxCell id="1hQs19jxyl-HawYijcBR-1" value="Hiển thị thông báo lỗi và yêu cầu nhập lại" style="whiteSpace=wrap;html=1;fillColor=#dae8fc;strokeColor=#6c8ebf;" vertex="1" parent="1">
          <mxGeometry x="227" y="503" width="120" height="60" as="geometry" />
        </mxCell>
        <mxCell id="1hQs19jxyl-HawYijcBR-4" value="Kết thúc" style="ellipse;whiteSpace=wrap;html=1;fillColor=#fff2cc;strokeColor=#d6b656;" vertex="1" parent="1">
          <mxGeometry x="386.01" y="698" width="120" height="80" as="geometry" />
        </mxCell>
      </root>
    </mxGraphModel>
  </diagram>
  <diagram id="N3wx5rhmRgf-M4FTdlEd" name="Info Customer">
    <mxGraphModel grid="1" page="1" gridSize="10" guides="1" tooltips="1" connect="1" arrows="1" fold="1" pageScale="1" pageWidth="850" pageHeight="1100" math="0" shadow="0">
      <root>
        <mxCell id="0" />
        <mxCell id="1" parent="0" />
        <mxCell id="pisSwycYfjnaQo4Zz6IE-3" value="" style="edgeStyle=orthogonalEdgeStyle;rounded=0;orthogonalLoop=1;jettySize=auto;html=1;" edge="1" parent="1" source="pisSwycYfjnaQo4Zz6IE-1" target="pisSwycYfjnaQo4Zz6IE-2">
          <mxGeometry relative="1" as="geometry" />
        </mxCell>
        <mxCell id="pisSwycYfjnaQo4Zz6IE-1" value="Bắt đầu" style="ellipse;whiteSpace=wrap;html=1;fillColor=#fff2cc;strokeColor=#d6b656;" vertex="1" parent="1">
          <mxGeometry x="365" y="270" width="120" height="80" as="geometry" />
        </mxCell>
        <mxCell id="q4N_fGIOV3k560iTRzYj-3" value="" style="edgeStyle=orthogonalEdgeStyle;rounded=0;orthogonalLoop=1;jettySize=auto;html=1;" edge="1" parent="1" source="pisSwycYfjnaQo4Zz6IE-2" target="q4N_fGIOV3k560iTRzYj-2">
          <mxGeometry relative="1" as="geometry" />
        </mxCell>
        <mxCell id="pisSwycYfjnaQo4Zz6IE-2" value="Nhấn chọn&amp;nbsp; Avatar User" style="whiteSpace=wrap;html=1;fillColor=#dae8fc;strokeColor=#6c8ebf;" vertex="1" parent="1">
          <mxGeometry x="365" y="400" width="120" height="60" as="geometry" />
        </mxCell>
        <mxCell id="pO_dDi_91cqd8LSQz6ok-5" value="" style="edgeStyle=orthogonalEdgeStyle;rounded=0;orthogonalLoop=1;jettySize=auto;html=1;" edge="1" parent="1" source="pO_dDi_91cqd8LSQz6ok-2" target="pO_dDi_91cqd8LSQz6ok-4">
          <mxGeometry relative="1" as="geometry" />
        </mxCell>
        <mxCell id="pO_dDi_91cqd8LSQz6ok-2" value="Hệ thống hiển thị thông tin tài khoản" style="whiteSpace=wrap;html=1;fillColor=#dae8fc;strokeColor=#6c8ebf;" vertex="1" parent="1">
          <mxGeometry x="365" y="613" width="120" height="60" as="geometry" />
        </mxCell>
        <mxCell id="pO_dDi_91cqd8LSQz6ok-7" value="" style="edgeStyle=orthogonalEdgeStyle;rounded=0;orthogonalLoop=1;jettySize=auto;html=1;entryX=0.5;entryY=0;entryDx=0;entryDy=0;" edge="1" parent="1" source="pO_dDi_91cqd8LSQz6ok-4" target="pO_dDi_91cqd8LSQz6ok-8">
          <mxGeometry relative="1" as="geometry">
            <mxPoint x="425" y="943" as="targetPoint" />
          </mxGeometry>
        </mxCell>
        <mxCell id="pO_dDi_91cqd8LSQz6ok-4" value="Người dùng xem chi tiết thông tin tài khoản" style="whiteSpace=wrap;html=1;fillColor=#dae8fc;strokeColor=#6c8ebf;" vertex="1" parent="1">
          <mxGeometry x="365" y="733" width="120" height="60" as="geometry" />
        </mxCell>
        <mxCell id="pO_dDi_91cqd8LSQz6ok-8" value="Kết thúc" style="ellipse;whiteSpace=wrap;html=1;fillColor=#fff2cc;strokeColor=#d6b656;" vertex="1" parent="1">
          <mxGeometry x="365" y="843" width="120" height="80" as="geometry" />
        </mxCell>
        <mxCell id="q4N_fGIOV3k560iTRzYj-4" value="" style="edgeStyle=orthogonalEdgeStyle;rounded=0;orthogonalLoop=1;jettySize=auto;html=1;" edge="1" parent="1" source="q4N_fGIOV3k560iTRzYj-2" target="pO_dDi_91cqd8LSQz6ok-2">
          <mxGeometry relative="1" as="geometry" />
        </mxCell>
        <mxCell id="q4N_fGIOV3k560iTRzYj-2" value="Hệ thống lấy thông tin người dùng đó trên database&amp;nbsp;" style="whiteSpace=wrap;html=1;fillColor=#dae8fc;strokeColor=#6c8ebf;" vertex="1" parent="1">
          <mxGeometry x="365" y="510" width="120" height="60" as="geometry" />
        </mxCell>
      </root>
    </mxGraphModel>
  </diagram>
  <diagram id="q7O3AnEruyLQGIvL8N4b" name="Purchase History">
    <mxGraphModel grid="1" page="1" gridSize="10" guides="1" tooltips="1" connect="1" arrows="1" fold="1" pageScale="1" pageWidth="850" pageHeight="1100" math="0" shadow="0">
      <root>
        <mxCell id="0" />
        <mxCell id="1" parent="0" />
        <mxCell id="WAQwdRN3GGgVE4ET4-yB-1" value="" style="edgeStyle=orthogonalEdgeStyle;rounded=0;orthogonalLoop=1;jettySize=auto;html=1;" edge="1" parent="1" source="WAQwdRN3GGgVE4ET4-yB-2" target="WAQwdRN3GGgVE4ET4-yB-4">
          <mxGeometry relative="1" as="geometry" />
        </mxCell>
        <mxCell id="WAQwdRN3GGgVE4ET4-yB-2" value="Bắt đầu" style="ellipse;whiteSpace=wrap;html=1;fillColor=#fff2cc;strokeColor=#d6b656;" vertex="1" parent="1">
          <mxGeometry x="390" y="30" width="120" height="80" as="geometry" />
        </mxCell>
        <mxCell id="WAQwdRN3GGgVE4ET4-yB-11" value="" style="edgeStyle=orthogonalEdgeStyle;rounded=0;orthogonalLoop=1;jettySize=auto;html=1;" edge="1" parent="1" source="WAQwdRN3GGgVE4ET4-yB-4" target="WAQwdRN3GGgVE4ET4-yB-10">
          <mxGeometry relative="1" as="geometry" />
        </mxCell>
        <mxCell id="WAQwdRN3GGgVE4ET4-yB-4" value="Nhấn chọn&amp;nbsp; &quot;My Tickets&quot; để vào trang &quot;Purchase History&quot;" style="whiteSpace=wrap;html=1;fillColor=#dae8fc;strokeColor=#6c8ebf;" vertex="1" parent="1">
          <mxGeometry x="390" y="160" width="120" height="60" as="geometry" />
        </mxCell>
        <mxCell id="1YFn9JICmitMNWQ-kQnc-2" value="" style="edgeStyle=orthogonalEdgeStyle;rounded=0;orthogonalLoop=1;jettySize=auto;html=1;" edge="1" parent="1" source="WAQwdRN3GGgVE4ET4-yB-6" target="WAQwdRN3GGgVE4ET4-yB-8">
          <mxGeometry relative="1" as="geometry" />
        </mxCell>
        <mxCell id="WAQwdRN3GGgVE4ET4-yB-6" value="Hệ thống lấy thông tin người dùng đó trên database&amp;nbsp;" style="whiteSpace=wrap;html=1;fillColor=#dae8fc;strokeColor=#6c8ebf;" vertex="1" parent="1">
          <mxGeometry x="390" y="418" width="120" height="60" as="geometry" />
        </mxCell>
        <mxCell id="WAQwdRN3GGgVE4ET4-yB-7" value="" style="edgeStyle=orthogonalEdgeStyle;rounded=0;orthogonalLoop=1;jettySize=auto;html=1;entryX=0.5;entryY=0;entryDx=0;entryDy=0;" edge="1" parent="1" source="WAQwdRN3GGgVE4ET4-yB-8" target="WAQwdRN3GGgVE4ET4-yB-9">
          <mxGeometry relative="1" as="geometry">
            <mxPoint x="450" y="735" as="targetPoint" />
          </mxGeometry>
        </mxCell>
        <mxCell id="WAQwdRN3GGgVE4ET4-yB-8" value="Hệ thống hiển thị danh sách vé đã mua" style="whiteSpace=wrap;html=1;fillColor=#dae8fc;strokeColor=#6c8ebf;" vertex="1" parent="1">
          <mxGeometry x="390" y="525" width="120" height="60" as="geometry" />
        </mxCell>
        <mxCell id="WAQwdRN3GGgVE4ET4-yB-9" value="Kết thúc" style="ellipse;whiteSpace=wrap;html=1;fillColor=#fff2cc;strokeColor=#d6b656;" vertex="1" parent="1">
          <mxGeometry x="390" y="635" width="120" height="80" as="geometry" />
        </mxCell>
        <mxCell id="BO58-dFfYSpBGPsrBz4M-3" value="Không" style="edgeStyle=orthogonalEdgeStyle;rounded=0;orthogonalLoop=1;jettySize=auto;html=1;" edge="1" parent="1" source="WAQwdRN3GGgVE4ET4-yB-10" target="BO58-dFfYSpBGPsrBz4M-2">
          <mxGeometry relative="1" as="geometry" />
        </mxCell>
        <mxCell id="1YFn9JICmitMNWQ-kQnc-1" value="Có" style="edgeStyle=orthogonalEdgeStyle;rounded=0;orthogonalLoop=1;jettySize=auto;html=1;" edge="1" parent="1" source="WAQwdRN3GGgVE4ET4-yB-10" target="WAQwdRN3GGgVE4ET4-yB-6">
          <mxGeometry relative="1" as="geometry" />
        </mxCell>
        <mxCell id="WAQwdRN3GGgVE4ET4-yB-10" value="Người dùng đã&amp;nbsp;&lt;div&gt;mua vé&lt;/div&gt;" style="rhombus;whiteSpace=wrap;html=1;fillColor=#d5e8d4;strokeColor=#82b366;" vertex="1" parent="1">
          <mxGeometry x="390" y="260" width="120" height="100" as="geometry" />
        </mxCell>
        <mxCell id="QWpjKcnUXpFYfZn0z6LJ-1" style="edgeStyle=orthogonalEdgeStyle;rounded=0;orthogonalLoop=1;jettySize=auto;html=1;entryX=0;entryY=0.5;entryDx=0;entryDy=0;" edge="1" parent="1" source="BO58-dFfYSpBGPsrBz4M-2" target="WAQwdRN3GGgVE4ET4-yB-9">
          <mxGeometry relative="1" as="geometry">
            <mxPoint x="250" y="680" as="targetPoint" />
            <Array as="points">
              <mxPoint x="250" y="675" />
            </Array>
          </mxGeometry>
        </mxCell>
        <mxCell id="BO58-dFfYSpBGPsrBz4M-2" value="Hiện thị rỗng" style="whiteSpace=wrap;html=1;fillColor=#dae8fc;strokeColor=#6c8ebf;" vertex="1" parent="1">
          <mxGeometry x="190" y="280" width="120" height="60" as="geometry" />
        </mxCell>
      </root>
    </mxGraphModel>
  </diagram>
  <diagram id="gUOFj9slkLKu3xtZ9sQ8" name="View Product">
    <mxGraphModel grid="1" page="1" gridSize="10" guides="1" tooltips="1" connect="1" arrows="1" fold="1" pageScale="1" pageWidth="850" pageHeight="1100" math="0" shadow="0">
      <root>
        <mxCell id="0" />
        <mxCell id="1" parent="0" />
        <mxCell id="jkO1j8jIexRBrFsk-YcQ-3" value="" style="edgeStyle=orthogonalEdgeStyle;rounded=0;orthogonalLoop=1;jettySize=auto;html=1;" edge="1" parent="1" source="jkO1j8jIexRBrFsk-YcQ-1" target="jkO1j8jIexRBrFsk-YcQ-2">
          <mxGeometry relative="1" as="geometry" />
        </mxCell>
        <mxCell id="jkO1j8jIexRBrFsk-YcQ-1" value="Bắt đầu" style="ellipse;whiteSpace=wrap;html=1;strokeColor=#d6b656;fillColor=#fff2cc;" vertex="1" parent="1">
          <mxGeometry x="365" y="80" width="120" height="80" as="geometry" />
        </mxCell>
        <mxCell id="jkO1j8jIexRBrFsk-YcQ-5" value="" style="edgeStyle=orthogonalEdgeStyle;rounded=0;orthogonalLoop=1;jettySize=auto;html=1;" edge="1" parent="1" source="jkO1j8jIexRBrFsk-YcQ-2" target="jkO1j8jIexRBrFsk-YcQ-4">
          <mxGeometry relative="1" as="geometry" />
        </mxCell>
        <mxCell id="jkO1j8jIexRBrFsk-YcQ-2" value="Chọn câu lạc bộ ở &quot;Main page&quot;" style="whiteSpace=wrap;html=1;fillColor=#dae8fc;strokeColor=#6c8ebf;" vertex="1" parent="1">
          <mxGeometry x="365" y="230" width="120" height="60" as="geometry" />
        </mxCell>
        <mxCell id="5056k7IUc46kQ1U5ynVm-2" value="" style="edgeStyle=orthogonalEdgeStyle;rounded=0;orthogonalLoop=1;jettySize=auto;html=1;" edge="1" parent="1" source="jkO1j8jIexRBrFsk-YcQ-4" target="5056k7IUc46kQ1U5ynVm-1">
          <mxGeometry relative="1" as="geometry" />
        </mxCell>
        <mxCell id="jkO1j8jIexRBrFsk-YcQ-4" value="Hệ thống lấy thông&amp;nbsp;&lt;div&gt;tin trận đấu trên database&amp;nbsp;&lt;/div&gt;" style="whiteSpace=wrap;html=1;fillColor=#dae8fc;strokeColor=#6c8ebf;" vertex="1" parent="1">
          <mxGeometry x="365" y="350" width="120" height="60" as="geometry" />
        </mxCell>
        <mxCell id="jkO1j8jIexRBrFsk-YcQ-14" value="Kết thúc" style="ellipse;whiteSpace=wrap;html=1;strokeColor=#d6b656;fillColor=#fff2cc;" vertex="1" parent="1">
          <mxGeometry x="365" y="580" width="120" height="80" as="geometry" />
        </mxCell>
        <mxCell id="5056k7IUc46kQ1U5ynVm-3" value="" style="edgeStyle=orthogonalEdgeStyle;rounded=0;orthogonalLoop=1;jettySize=auto;html=1;" edge="1" parent="1" source="5056k7IUc46kQ1U5ynVm-1" target="jkO1j8jIexRBrFsk-YcQ-14">
          <mxGeometry relative="1" as="geometry" />
        </mxCell>
        <mxCell id="5056k7IUc46kQ1U5ynVm-1" value="Hệ thống hiển thị trang &quot;View product&quot;" style="whiteSpace=wrap;html=1;fillColor=#dae8fc;strokeColor=#6c8ebf;" vertex="1" parent="1">
          <mxGeometry x="365" y="470" width="120" height="60" as="geometry" />
        </mxCell>
      </root>
    </mxGraphModel>
  </diagram>
  <diagram id="OsyHlP8_v9lL6p3igzg1" name="Select Section">
    <mxGraphModel grid="1" page="1" gridSize="10" guides="1" tooltips="1" connect="1" arrows="1" fold="1" pageScale="1" pageWidth="850" pageHeight="1100" math="0" shadow="0">
      <root>
        <mxCell id="0" />
        <mxCell id="1" parent="0" />
        <mxCell id="FXHuuTmdMfarynpQRhEC-4" value="" style="edgeStyle=orthogonalEdgeStyle;rounded=0;orthogonalLoop=1;jettySize=auto;html=1;" edge="1" parent="1" source="FXHuuTmdMfarynpQRhEC-2" target="FXHuuTmdMfarynpQRhEC-3">
          <mxGeometry relative="1" as="geometry" />
        </mxCell>
        <mxCell id="FXHuuTmdMfarynpQRhEC-2" value="Bắt đầu" style="ellipse;whiteSpace=wrap;html=1;fillColor=#fff2cc;strokeColor=#d6b656;" vertex="1" parent="1">
          <mxGeometry x="415.5" y="40" width="120" height="80" as="geometry" />
        </mxCell>
        <mxCell id="uLqooL3gnOaS8QB5w6WV-2" value="" style="edgeStyle=orthogonalEdgeStyle;rounded=0;orthogonalLoop=1;jettySize=auto;html=1;" edge="1" parent="1" source="FXHuuTmdMfarynpQRhEC-3" target="uLqooL3gnOaS8QB5w6WV-1">
          <mxGeometry relative="1" as="geometry" />
        </mxCell>
        <mxCell id="FXHuuTmdMfarynpQRhEC-3" value="Người dùng chọn &quot;View tickets&quot; ở trận đấu muốn xem" style="whiteSpace=wrap;html=1;fillColor=#dae8fc;strokeColor=#6c8ebf;" vertex="1" parent="1">
          <mxGeometry x="415.5" y="160" width="120" height="60" as="geometry" />
        </mxCell>
        <mxCell id="dI0PJrfHZjMLXNORlnSs-2" value="" style="edgeStyle=orthogonalEdgeStyle;rounded=0;orthogonalLoop=1;jettySize=auto;html=1;" edge="1" parent="1" source="FXHuuTmdMfarynpQRhEC-5">
          <mxGeometry relative="1" as="geometry">
            <mxPoint x="475" y="492" as="targetPoint" />
          </mxGeometry>
        </mxCell>
        <mxCell id="FXHuuTmdMfarynpQRhEC-5" value="Hệ thống hiển thị sơ đồ sân và giá vé theo các khu vực ghế ngồi" style="whiteSpace=wrap;html=1;fillColor=#dae8fc;strokeColor=#6c8ebf;" vertex="1" parent="1">
          <mxGeometry x="415" y="392" width="120" height="60" as="geometry" />
        </mxCell>
        <mxCell id="QDGjG7MIFozxsaGwBkKe-2" value="" style="edgeStyle=orthogonalEdgeStyle;rounded=0;orthogonalLoop=1;jettySize=auto;html=1;exitX=0.5;exitY=1;exitDx=0;exitDy=0;" edge="1" parent="1" source="9pV4f0Mx8YKD6piD85fC-1" target="QDGjG7MIFozxsaGwBkKe-1">
          <mxGeometry relative="1" as="geometry">
            <mxPoint x="475" y="552" as="sourcePoint" />
          </mxGeometry>
        </mxCell>
        <mxCell id="_AfLNXQa3lP72RdjYh_J-2" value="Đúng" style="edgeStyle=orthogonalEdgeStyle;rounded=0;orthogonalLoop=1;jettySize=auto;html=1;" edge="1" parent="1" source="dI0PJrfHZjMLXNORlnSs-3" target="_AfLNXQa3lP72RdjYh_J-1">
          <mxGeometry relative="1" as="geometry" />
        </mxCell>
        <mxCell id="_AfLNXQa3lP72RdjYh_J-4" value="Sai" style="edgeStyle=orthogonalEdgeStyle;rounded=0;orthogonalLoop=1;jettySize=auto;html=1;" edge="1" parent="1" source="dI0PJrfHZjMLXNORlnSs-3" target="_AfLNXQa3lP72RdjYh_J-3">
          <mxGeometry relative="1" as="geometry" />
        </mxCell>
        <mxCell id="dI0PJrfHZjMLXNORlnSs-3" value="Kiểm tra điều&amp;nbsp;&lt;div&gt;kiện nhập&lt;/div&gt;" style="rhombus;whiteSpace=wrap;html=1;fillColor=#d5e8d4;strokeColor=#82b366;" vertex="1" parent="1">
          <mxGeometry x="417.5" y="670" width="115" height="120" as="geometry" />
        </mxCell>
        <mxCell id="_AfLNXQa3lP72RdjYh_J-7" value="Đúng" style="edgeStyle=orthogonalEdgeStyle;rounded=0;orthogonalLoop=1;jettySize=auto;html=1;" edge="1" parent="1" source="_AfLNXQa3lP72RdjYh_J-1" target="_AfLNXQa3lP72RdjYh_J-6">
          <mxGeometry relative="1" as="geometry" />
        </mxCell>
        <mxCell id="_AfLNXQa3lP72RdjYh_J-1" value="&lt;div&gt;&lt;br&gt;&lt;/div&gt;Kiểm tra số lượng&amp;nbsp;&lt;div&gt;vé còn lại&amp;nbsp;&lt;/div&gt;" style="rhombus;whiteSpace=wrap;html=1;fillColor=#d5e8d4;strokeColor=#82b366;" vertex="1" parent="1">
          <mxGeometry x="415" y="840" width="120" height="120" as="geometry" />
        </mxCell>
        <mxCell id="9pV4f0Mx8YKD6piD85fC-5" style="edgeStyle=orthogonalEdgeStyle;rounded=0;orthogonalLoop=1;jettySize=auto;html=1;exitX=0.5;exitY=0;exitDx=0;exitDy=0;" edge="1" parent="1" source="_AfLNXQa3lP72RdjYh_J-3">
          <mxGeometry relative="1" as="geometry">
            <mxPoint x="475" y="472" as="targetPoint" />
            <Array as="points">
              <mxPoint x="280" y="472" />
            </Array>
          </mxGeometry>
        </mxCell>
        <mxCell id="_AfLNXQa3lP72RdjYh_J-3" value="Hiển thị thông báo lỗi và yêu cầu nhập lại" style="whiteSpace=wrap;html=1;fillColor=#dae8fc;strokeColor=#6c8ebf;" vertex="1" parent="1">
          <mxGeometry x="220" y="700" width="120" height="60" as="geometry" />
        </mxCell>
        <mxCell id="QDGjG7MIFozxsaGwBkKe-5" value="" style="edgeStyle=orthogonalEdgeStyle;rounded=0;orthogonalLoop=1;jettySize=auto;html=1;" edge="1" parent="1" source="_AfLNXQa3lP72RdjYh_J-6" target="QDGjG7MIFozxsaGwBkKe-4">
          <mxGeometry relative="1" as="geometry" />
        </mxCell>
        <mxCell id="_AfLNXQa3lP72RdjYh_J-6" value="Hệ thống chuyển người dùng đến bước xác nhận thanh toán" style="whiteSpace=wrap;html=1;fillColor=#dae8fc;strokeColor=#6c8ebf;" vertex="1" parent="1">
          <mxGeometry x="415" y="1012" width="120" height="60" as="geometry" />
        </mxCell>
        <mxCell id="_AfLNXQa3lP72RdjYh_J-8" value="Sai" style="edgeStyle=orthogonalEdgeStyle;rounded=0;orthogonalLoop=1;jettySize=auto;html=1;entryX=0.455;entryY=1.039;entryDx=0;entryDy=0;entryPerimeter=0;" edge="1" parent="1" source="_AfLNXQa3lP72RdjYh_J-1" target="_AfLNXQa3lP72RdjYh_J-3">
          <mxGeometry x="-0.7015" relative="1" as="geometry">
            <mxPoint as="offset" />
          </mxGeometry>
        </mxCell>
        <mxCell id="QDGjG7MIFozxsaGwBkKe-3" value="" style="edgeStyle=orthogonalEdgeStyle;rounded=0;orthogonalLoop=1;jettySize=auto;html=1;" edge="1" parent="1" source="QDGjG7MIFozxsaGwBkKe-1" target="dI0PJrfHZjMLXNORlnSs-3">
          <mxGeometry relative="1" as="geometry" />
        </mxCell>
        <mxCell id="QDGjG7MIFozxsaGwBkKe-1" value="Chọn &quot;Payment&quot;" style="whiteSpace=wrap;html=1;fillColor=#dae8fc;strokeColor=#6c8ebf;" vertex="1" parent="1">
          <mxGeometry x="415" y="595" width="120" height="37" as="geometry" />
        </mxCell>
        <mxCell id="QDGjG7MIFozxsaGwBkKe-4" value="Kết thúc" style="ellipse;whiteSpace=wrap;html=1;fillColor=#fff2cc;strokeColor=#d6b656;" vertex="1" parent="1">
          <mxGeometry x="415.5" y="1112" width="120" height="80" as="geometry" />
        </mxCell>
        <mxCell id="9pV4f0Mx8YKD6piD85fC-1" value="&lt;div&gt;&lt;div&gt;&lt;div&gt;&lt;br&gt;&lt;/div&gt;&lt;div&gt;Nhập số lượng vé&amp;nbsp;&lt;/div&gt;&lt;div&gt;muốn mua ở các ô theo&lt;/div&gt;&lt;div&gt;&amp;nbsp;từng khu vực ghế&lt;/div&gt;&lt;/div&gt;&lt;/div&gt;&lt;div&gt;&lt;br&gt;&lt;/div&gt;" style="shape=parallelogram;perimeter=parallelogramPerimeter;whiteSpace=wrap;html=1;fixedSize=1;fillColor=#f8cecc;strokeColor=#b85450;" vertex="1" parent="1">
          <mxGeometry x="395" y="492" width="160" height="60" as="geometry" />
        </mxCell>
        <mxCell id="uLqooL3gnOaS8QB5w6WV-3" value="" style="edgeStyle=orthogonalEdgeStyle;rounded=0;orthogonalLoop=1;jettySize=auto;html=1;" edge="1" parent="1" source="uLqooL3gnOaS8QB5w6WV-1" target="FXHuuTmdMfarynpQRhEC-5">
          <mxGeometry relative="1" as="geometry" />
        </mxCell>
        <mxCell id="uLqooL3gnOaS8QB5w6WV-1" value="Hệ thống lấy thông tin trận đấu trên database&amp;nbsp;" style="whiteSpace=wrap;html=1;fillColor=#dae8fc;strokeColor=#6c8ebf;" vertex="1" parent="1">
          <mxGeometry x="415.5" y="272" width="120" height="60" as="geometry" />
        </mxCell>
      </root>
    </mxGraphModel>
  </diagram>
  <diagram id="yNi8kVV4GE6soT6wM4pG" name="Payment">
    <mxGraphModel grid="1" page="1" gridSize="10" guides="1" tooltips="1" connect="1" arrows="1" fold="1" pageScale="1" pageWidth="850" pageHeight="1100" math="0" shadow="0">
      <root>
        <mxCell id="0" />
        <mxCell id="1" parent="0" />
        <mxCell id="3VGE_PyOpdREhcGvO7bR-3" value="" style="edgeStyle=orthogonalEdgeStyle;rounded=0;orthogonalLoop=1;jettySize=auto;html=1;" edge="1" parent="1" source="3VGE_PyOpdREhcGvO7bR-1" target="3VGE_PyOpdREhcGvO7bR-2">
          <mxGeometry relative="1" as="geometry" />
        </mxCell>
        <mxCell id="3VGE_PyOpdREhcGvO7bR-1" value="Bắt đầu" style="ellipse;whiteSpace=wrap;html=1;strokeColor=#d6b656;fillColor=#fff2cc;" vertex="1" parent="1">
          <mxGeometry x="210" y="100" width="120" height="80" as="geometry" />
        </mxCell>
        <mxCell id="3VGE_PyOpdREhcGvO7bR-11" value="" style="edgeStyle=orthogonalEdgeStyle;rounded=0;orthogonalLoop=1;jettySize=auto;html=1;" edge="1" parent="1" source="3VGE_PyOpdREhcGvO7bR-2" target="3VGE_PyOpdREhcGvO7bR-10">
          <mxGeometry relative="1" as="geometry" />
        </mxCell>
        <mxCell id="3VGE_PyOpdREhcGvO7bR-2" value="Hệ thống hiển thị cửa sổ popup xác nhận vé" style="whiteSpace=wrap;html=1;fillColor=#dae8fc;strokeColor=#6c8ebf;" vertex="1" parent="1">
          <mxGeometry x="210" y="270" width="120" height="60" as="geometry" />
        </mxCell>
        <mxCell id="9EDpJ0-DILdyN6r3pOKq-16" value="" style="edgeStyle=orthogonalEdgeStyle;rounded=0;orthogonalLoop=1;jettySize=auto;html=1;" edge="1" parent="1" source="3VGE_PyOpdREhcGvO7bR-6" target="9EDpJ0-DILdyN6r3pOKq-15">
          <mxGeometry relative="1" as="geometry" />
        </mxCell>
        <mxCell id="3VGE_PyOpdREhcGvO7bR-6" value="Người dùng chọn “Confirm Payment”&amp;nbsp;&lt;div&gt;để thanh toán&lt;/div&gt;" style="whiteSpace=wrap;html=1;fillColor=#dae8fc;strokeColor=#6c8ebf;" vertex="1" parent="1">
          <mxGeometry x="210" y="540" width="120" height="60" as="geometry" />
        </mxCell>
        <mxCell id="3VGE_PyOpdREhcGvO7bR-13" value="Có" style="edgeStyle=orthogonalEdgeStyle;rounded=0;orthogonalLoop=1;jettySize=auto;html=1;" edge="1" parent="1" source="3VGE_PyOpdREhcGvO7bR-10" target="3VGE_PyOpdREhcGvO7bR-12">
          <mxGeometry relative="1" as="geometry" />
        </mxCell>
        <mxCell id="9EDpJ0-DILdyN6r3pOKq-9" value="Không" style="edgeStyle=orthogonalEdgeStyle;rounded=0;orthogonalLoop=1;jettySize=auto;html=1;" edge="1" parent="1" source="3VGE_PyOpdREhcGvO7bR-10" target="3VGE_PyOpdREhcGvO7bR-6">
          <mxGeometry relative="1" as="geometry" />
        </mxCell>
        <mxCell id="3VGE_PyOpdREhcGvO7bR-10" value="Người dùng&amp;nbsp;&lt;div&gt;chọn&amp;nbsp;&lt;span style=&quot;background-color: transparent; color: light-dark(rgb(0, 0, 0), rgb(255, 255, 255));&quot;&gt;hủy vé&lt;/span&gt;&lt;/div&gt;" style="rhombus;whiteSpace=wrap;html=1;fillColor=#d5e8d4;strokeColor=#82b366;" vertex="1" parent="1">
          <mxGeometry x="215" y="370" width="110" height="110" as="geometry" />
        </mxCell>
        <mxCell id="9EDpJ0-DILdyN6r3pOKq-11" value="" style="edgeStyle=orthogonalEdgeStyle;rounded=0;orthogonalLoop=1;jettySize=auto;html=1;" edge="1" parent="1" source="3VGE_PyOpdREhcGvO7bR-12" target="9EDpJ0-DILdyN6r3pOKq-10">
          <mxGeometry relative="1" as="geometry" />
        </mxCell>
        <mxCell id="3VGE_PyOpdREhcGvO7bR-12" value="Chọn &quot;Cancel&quot;" style="whiteSpace=wrap;html=1;fillColor=#dae8fc;strokeColor=#6c8ebf;" vertex="1" parent="1">
          <mxGeometry x="400" y="395" width="120" height="60" as="geometry" />
        </mxCell>
        <mxCell id="9EDpJ0-DILdyN6r3pOKq-5" style="edgeStyle=orthogonalEdgeStyle;rounded=0;orthogonalLoop=1;jettySize=auto;html=1;exitX=0.5;exitY=0;exitDx=0;exitDy=0;" edge="1" parent="1" source="9EDpJ0-DILdyN6r3pOKq-1">
          <mxGeometry relative="1" as="geometry">
            <mxPoint x="270" y="220" as="targetPoint" />
            <Array as="points">
              <mxPoint x="617" y="220" />
            </Array>
          </mxGeometry>
        </mxCell>
        <mxCell id="9EDpJ0-DILdyN6r3pOKq-1" value="Quay về màn hình &quot;Select Section&quot; điều chỉnh lựa chọn" style="whiteSpace=wrap;html=1;fillColor=#dae8fc;strokeColor=#6c8ebf;" vertex="1" parent="1">
          <mxGeometry x="557" y="270" width="120" height="60" as="geometry" />
        </mxCell>
        <mxCell id="9EDpJ0-DILdyN6r3pOKq-12" value="Có" style="edgeStyle=orthogonalEdgeStyle;rounded=0;orthogonalLoop=1;jettySize=auto;html=1;" edge="1" parent="1" source="9EDpJ0-DILdyN6r3pOKq-10" target="9EDpJ0-DILdyN6r3pOKq-1">
          <mxGeometry relative="1" as="geometry" />
        </mxCell>
        <mxCell id="9EDpJ0-DILdyN6r3pOKq-14" value="Không" style="edgeStyle=orthogonalEdgeStyle;rounded=0;orthogonalLoop=1;jettySize=auto;html=1;" edge="1" parent="1" source="9EDpJ0-DILdyN6r3pOKq-10" target="9EDpJ0-DILdyN6r3pOKq-13">
          <mxGeometry relative="1" as="geometry" />
        </mxCell>
        <mxCell id="9EDpJ0-DILdyN6r3pOKq-10" value="Người dùng&amp;nbsp;&lt;div&gt;chọn đặt&amp;nbsp;&lt;div&gt;lại vé&amp;nbsp;&lt;/div&gt;&lt;/div&gt;" style="rhombus;whiteSpace=wrap;html=1;fillColor=#d5e8d4;strokeColor=#82b366;" vertex="1" parent="1">
          <mxGeometry x="562" y="370" width="110" height="110" as="geometry" />
        </mxCell>
        <mxCell id="9EDpJ0-DILdyN6r3pOKq-17" style="edgeStyle=orthogonalEdgeStyle;rounded=0;orthogonalLoop=1;jettySize=auto;html=1;entryX=1;entryY=0.5;entryDx=0;entryDy=0;" edge="1" parent="1" source="9EDpJ0-DILdyN6r3pOKq-13" target="9EDpJ0-DILdyN6r3pOKq-15">
          <mxGeometry relative="1" as="geometry">
            <Array as="points">
              <mxPoint x="617" y="700" />
            </Array>
          </mxGeometry>
        </mxCell>
        <mxCell id="9EDpJ0-DILdyN6r3pOKq-13" value="Trở về &quot;Main page&quot; hoặc &quot;Log out&quot;" style="whiteSpace=wrap;html=1;fillColor=#dae8fc;strokeColor=#6c8ebf;" vertex="1" parent="1">
          <mxGeometry x="557" y="540" width="120" height="60" as="geometry" />
        </mxCell>
        <mxCell id="9EDpJ0-DILdyN6r3pOKq-15" value="Kết thúc" style="ellipse;whiteSpace=wrap;html=1;fillColor=#fff2cc;strokeColor=#d6b656;" vertex="1" parent="1">
          <mxGeometry x="210" y="660" width="120" height="80" as="geometry" />
        </mxCell>
      </root>
    </mxGraphModel>
  </diagram>
  <diagram id="t2nChA50I5MApJ8F8FQ7" name="Contact">
    <mxGraphModel grid="1" page="1" gridSize="10" guides="1" tooltips="1" connect="1" arrows="1" fold="1" pageScale="1" pageWidth="850" pageHeight="1100" math="0" shadow="0">
      <root>
        <mxCell id="0" />
        <mxCell id="1" parent="0" />
        <mxCell id="r7w3xSCd8h11Zcr3W0MH-3" value="" style="edgeStyle=orthogonalEdgeStyle;rounded=0;orthogonalLoop=1;jettySize=auto;html=1;" edge="1" parent="1" source="r7w3xSCd8h11Zcr3W0MH-1" target="r7w3xSCd8h11Zcr3W0MH-2">
          <mxGeometry relative="1" as="geometry" />
        </mxCell>
        <mxCell id="r7w3xSCd8h11Zcr3W0MH-1" value="Bắt đầu" style="ellipse;whiteSpace=wrap;html=1;fillColor=#fff2cc;strokeColor=#d6b656;" vertex="1" parent="1">
          <mxGeometry x="365" y="45" width="120" height="80" as="geometry" />
        </mxCell>
        <mxCell id="r7w3xSCd8h11Zcr3W0MH-5" value="Không" style="edgeStyle=orthogonalEdgeStyle;rounded=0;orthogonalLoop=1;jettySize=auto;html=1;" edge="1" parent="1" source="r7w3xSCd8h11Zcr3W0MH-2" target="r7w3xSCd8h11Zcr3W0MH-4">
          <mxGeometry relative="1" as="geometry" />
        </mxCell>
        <mxCell id="r7w3xSCd8h11Zcr3W0MH-7" value="Có" style="edgeStyle=orthogonalEdgeStyle;rounded=0;orthogonalLoop=1;jettySize=auto;html=1;" edge="1" parent="1" source="r7w3xSCd8h11Zcr3W0MH-2" target="r7w3xSCd8h11Zcr3W0MH-6">
          <mxGeometry relative="1" as="geometry" />
        </mxCell>
        <mxCell id="r7w3xSCd8h11Zcr3W0MH-2" value="&lt;div&gt;&lt;br&gt;&lt;/div&gt;Người dùng đã&amp;nbsp;&lt;div&gt;đăng nhập vào hệ thống&lt;/div&gt;" style="rhombus;whiteSpace=wrap;html=1;fillColor=#d5e8d4;strokeColor=#82b366;" vertex="1" parent="1">
          <mxGeometry x="368" y="165" width="115" height="110" as="geometry" />
        </mxCell>
        <mxCell id="r7w3xSCd8h11Zcr3W0MH-9" value="" style="edgeStyle=orthogonalEdgeStyle;rounded=0;orthogonalLoop=1;jettySize=auto;html=1;exitX=0.5;exitY=1;exitDx=0;exitDy=0;" edge="1" parent="1" target="r7w3xSCd8h11Zcr3W0MH-8">
          <mxGeometry relative="1" as="geometry">
            <mxPoint x="250" y="234" as="sourcePoint" />
            <Array as="points">
              <mxPoint x="250" y="339" />
            </Array>
          </mxGeometry>
        </mxCell>
        <mxCell id="r7w3xSCd8h11Zcr3W0MH-4" value="Hệ thống hiển thị trang &quot;Log in&quot;" style="whiteSpace=wrap;html=1;fillColor=#dae8fc;strokeColor=#6c8ebf;" vertex="1" parent="1">
          <mxGeometry x="190" y="190" width="120" height="60" as="geometry" />
        </mxCell>
        <mxCell id="r7w3xSCd8h11Zcr3W0MH-13" value="" style="edgeStyle=orthogonalEdgeStyle;rounded=0;orthogonalLoop=1;jettySize=auto;html=1;" edge="1" parent="1" source="r7w3xSCd8h11Zcr3W0MH-6" target="r7w3xSCd8h11Zcr3W0MH-12">
          <mxGeometry relative="1" as="geometry" />
        </mxCell>
        <mxCell id="r7w3xSCd8h11Zcr3W0MH-6" value="Nhấn chọn &quot;Avatar User&quot;" style="whiteSpace=wrap;html=1;fillColor=#dae8fc;strokeColor=#6c8ebf;" vertex="1" parent="1">
          <mxGeometry x="530" y="190" width="120" height="60" as="geometry" />
        </mxCell>
        <mxCell id="r7w3xSCd8h11Zcr3W0MH-11" value="" style="edgeStyle=orthogonalEdgeStyle;rounded=0;orthogonalLoop=1;jettySize=auto;html=1;" edge="1" parent="1" source="r7w3xSCd8h11Zcr3W0MH-8" target="r7w3xSCd8h11Zcr3W0MH-10">
          <mxGeometry relative="1" as="geometry" />
        </mxCell>
        <mxCell id="r7w3xSCd8h11Zcr3W0MH-8" value="Chọn &quot;Contact&quot;" style="whiteSpace=wrap;html=1;fillColor=#dae8fc;strokeColor=#6c8ebf;" vertex="1" parent="1">
          <mxGeometry x="365.5" y="309" width="120" height="60" as="geometry" />
        </mxCell>
        <mxCell id="r7w3xSCd8h11Zcr3W0MH-16" value="" style="edgeStyle=orthogonalEdgeStyle;rounded=0;orthogonalLoop=1;jettySize=auto;html=1;" edge="1" parent="1" source="r7w3xSCd8h11Zcr3W0MH-10" target="r7w3xSCd8h11Zcr3W0MH-15">
          <mxGeometry relative="1" as="geometry" />
        </mxCell>
        <mxCell id="r7w3xSCd8h11Zcr3W0MH-10" value="&lt;div&gt;Hệ thống mở trình duyệt &quot;Facebook&quot;&lt;/div&gt;" style="whiteSpace=wrap;html=1;fillColor=#dae8fc;strokeColor=#6c8ebf;" vertex="1" parent="1">
          <mxGeometry x="365.5" y="413" width="120" height="60" as="geometry" />
        </mxCell>
        <mxCell id="r7w3xSCd8h11Zcr3W0MH-14" style="edgeStyle=orthogonalEdgeStyle;rounded=0;orthogonalLoop=1;jettySize=auto;html=1;entryX=1;entryY=0.5;entryDx=0;entryDy=0;" edge="1" parent="1" target="r7w3xSCd8h11Zcr3W0MH-8">
          <mxGeometry relative="1" as="geometry">
            <mxPoint x="760" y="234" as="sourcePoint" />
            <Array as="points">
              <mxPoint x="760" y="339" />
            </Array>
          </mxGeometry>
        </mxCell>
        <mxCell id="r7w3xSCd8h11Zcr3W0MH-12" value="Hệ thống hiển thị trang &quot;Information Customer&quot;" style="whiteSpace=wrap;html=1;fillColor=#dae8fc;strokeColor=#6c8ebf;" vertex="1" parent="1">
          <mxGeometry x="700" y="190" width="120" height="60" as="geometry" />
        </mxCell>
        <mxCell id="r7w3xSCd8h11Zcr3W0MH-18" value="Có" style="edgeStyle=orthogonalEdgeStyle;rounded=0;orthogonalLoop=1;jettySize=auto;html=1;" edge="1" parent="1" source="r7w3xSCd8h11Zcr3W0MH-15" target="r7w3xSCd8h11Zcr3W0MH-17">
          <mxGeometry relative="1" as="geometry" />
        </mxCell>
        <mxCell id="r7w3xSCd8h11Zcr3W0MH-26" value="Không" style="edgeStyle=orthogonalEdgeStyle;rounded=0;orthogonalLoop=1;jettySize=auto;html=1;" edge="1" parent="1" source="r7w3xSCd8h11Zcr3W0MH-15" target="r7w3xSCd8h11Zcr3W0MH-25">
          <mxGeometry relative="1" as="geometry" />
        </mxCell>
        <mxCell id="r7w3xSCd8h11Zcr3W0MH-15" value="&lt;div&gt;&lt;br&gt;&lt;/div&gt;Người dùng đã&amp;nbsp;&lt;div&gt;có tài khoản &quot;Facebook&quot;&lt;/div&gt;" style="rhombus;whiteSpace=wrap;html=1;fillColor=#d5e8d4;strokeColor=#82b366;" vertex="1" parent="1">
          <mxGeometry x="362" y="523" width="125.5" height="100" as="geometry" />
        </mxCell>
        <mxCell id="r7w3xSCd8h11Zcr3W0MH-20" value="" style="edgeStyle=orthogonalEdgeStyle;rounded=0;orthogonalLoop=1;jettySize=auto;html=1;" edge="1" parent="1" source="r7w3xSCd8h11Zcr3W0MH-17" target="r7w3xSCd8h11Zcr3W0MH-19">
          <mxGeometry relative="1" as="geometry" />
        </mxCell>
        <mxCell id="r7w3xSCd8h11Zcr3W0MH-17" value="Đăng nhập vào &quot;Facebook&quot;" style="whiteSpace=wrap;html=1;fillColor=#dae8fc;strokeColor=#6c8ebf;" vertex="1" parent="1">
          <mxGeometry x="365.5" y="673" width="120" height="60" as="geometry" />
        </mxCell>
        <mxCell id="r7w3xSCd8h11Zcr3W0MH-22" value="" style="edgeStyle=orthogonalEdgeStyle;rounded=0;orthogonalLoop=1;jettySize=auto;html=1;" edge="1" parent="1" source="r7w3xSCd8h11Zcr3W0MH-19" target="r7w3xSCd8h11Zcr3W0MH-21">
          <mxGeometry relative="1" as="geometry" />
        </mxCell>
        <mxCell id="r7w3xSCd8h11Zcr3W0MH-19" value="Hiển thị Fanpage" style="whiteSpace=wrap;html=1;fillColor=#dae8fc;strokeColor=#6c8ebf;" vertex="1" parent="1">
          <mxGeometry x="365.5" y="783" width="120" height="60" as="geometry" />
        </mxCell>
        <mxCell id="r7w3xSCd8h11Zcr3W0MH-24" value="" style="edgeStyle=orthogonalEdgeStyle;rounded=0;orthogonalLoop=1;jettySize=auto;html=1;" edge="1" parent="1" source="r7w3xSCd8h11Zcr3W0MH-21" target="r7w3xSCd8h11Zcr3W0MH-23">
          <mxGeometry relative="1" as="geometry" />
        </mxCell>
        <mxCell id="r7w3xSCd8h11Zcr3W0MH-21" value="Người dùng liên hệ" style="whiteSpace=wrap;html=1;fillColor=#dae8fc;strokeColor=#6c8ebf;" vertex="1" parent="1">
          <mxGeometry x="365.5" y="893" width="120" height="60" as="geometry" />
        </mxCell>
        <mxCell id="r7w3xSCd8h11Zcr3W0MH-23" value="Kết thúc" style="ellipse;whiteSpace=wrap;html=1;fillColor=#fff2cc;strokeColor=#d6b656;" vertex="1" parent="1">
          <mxGeometry x="365.5" y="985" width="120" height="80" as="geometry" />
        </mxCell>
        <mxCell id="r7w3xSCd8h11Zcr3W0MH-27" style="edgeStyle=orthogonalEdgeStyle;rounded=0;orthogonalLoop=1;jettySize=auto;html=1;entryX=0;entryY=0.5;entryDx=0;entryDy=0;" edge="1" parent="1" source="r7w3xSCd8h11Zcr3W0MH-25" target="r7w3xSCd8h11Zcr3W0MH-17">
          <mxGeometry relative="1" as="geometry">
            <Array as="points">
              <mxPoint x="250" y="703" />
            </Array>
          </mxGeometry>
        </mxCell>
        <mxCell id="r7w3xSCd8h11Zcr3W0MH-25" value="Đăng ký tài khoản &quot;Facebook&quot;" style="whiteSpace=wrap;html=1;fillColor=#dae8fc;strokeColor=#6c8ebf;" vertex="1" parent="1">
          <mxGeometry x="190" y="543" width="120" height="60" as="geometry" />
        </mxCell>
      </root>
    </mxGraphModel>
  </diagram>
  <diagram id="6N3VRSmnrtuS_32peyaJ" name="Activity Log in/Sign up ">
    <mxGraphModel grid="1" page="1" gridSize="10" guides="1" tooltips="1" connect="1" arrows="1" fold="1" pageScale="1" pageWidth="850" pageHeight="1100" math="0" shadow="0">
      <root>
        <mxCell id="0" />
        <mxCell id="1" parent="0" />
        <mxCell id="KnBhReZshsChLlfX4STr-1" value="" style="group;movable=1;resizable=1;rotatable=1;deletable=1;editable=1;locked=0;connectable=1;" connectable="0" vertex="1" parent="1">
          <mxGeometry x="20" y="100" width="820" height="850" as="geometry" />
        </mxCell>
        <mxCell id="KnBhReZshsChLlfX4STr-2" value="&lt;p style=&quot;margin: 4px 0px 0px; text-align: center;&quot;&gt;&lt;span style=&quot;font-size: 16px;&quot;&gt;&lt;b&gt;Cơ sở dữ liệu&lt;/b&gt;&lt;/span&gt;&lt;/p&gt;&lt;hr size=&quot;1&quot; style=&quot;border-style:solid;&quot;&gt;&lt;p style=&quot;margin:0px;margin-left:8px;&quot;&gt;&lt;br&gt;&lt;/p&gt;" style="verticalAlign=top;align=left;overflow=fill;html=1;whiteSpace=wrap;" vertex="1" parent="KnBhReZshsChLlfX4STr-1">
          <mxGeometry x="590" width="230" height="850" as="geometry" />
        </mxCell>
        <mxCell id="KnBhReZshsChLlfX4STr-3" value="&lt;p style=&quot;margin: 4px 0px 0px; text-align: center;&quot;&gt;&lt;b&gt;&lt;font style=&quot;font-size: 16px;&quot;&gt;Hệ thống&lt;/font&gt;&lt;/b&gt;&lt;/p&gt;&lt;hr size=&quot;1&quot; style=&quot;border-style:solid;&quot;&gt;&lt;p style=&quot;margin:0px;margin-left:8px;&quot;&gt;&lt;br&gt;&lt;/p&gt;" style="verticalAlign=top;align=left;overflow=fill;html=1;whiteSpace=wrap;" vertex="1" parent="KnBhReZshsChLlfX4STr-1">
          <mxGeometry x="210" width="380" height="850" as="geometry" />
        </mxCell>
        <mxCell id="KnBhReZshsChLlfX4STr-4" value="&lt;p style=&quot;margin: 4px 0px 0px; text-align: center;&quot;&gt;&lt;span style=&quot;font-size: 16px;&quot;&gt;&lt;b&gt;Actor&lt;/b&gt;&lt;/span&gt;&lt;/p&gt;&lt;hr size=&quot;1&quot; style=&quot;border-style:solid;&quot;&gt;&lt;p style=&quot;margin:0px;margin-left:8px;&quot;&gt;&lt;br&gt;&lt;/p&gt;" style="verticalAlign=top;align=left;overflow=fill;html=1;whiteSpace=wrap;" vertex="1" parent="KnBhReZshsChLlfX4STr-1">
          <mxGeometry width="210" height="850" as="geometry" />
        </mxCell>
        <mxCell id="KnBhReZshsChLlfX4STr-5" style="edgeStyle=orthogonalEdgeStyle;rounded=0;orthogonalLoop=1;jettySize=auto;html=1;exitX=0.5;exitY=1;exitDx=0;exitDy=0;entryX=0.5;entryY=0;entryDx=0;entryDy=0;" edge="1" parent="1" source="KnBhReZshsChLlfX4STr-6" target="KnBhReZshsChLlfX4STr-8">
          <mxGeometry relative="1" as="geometry" />
        </mxCell>
        <mxCell id="KnBhReZshsChLlfX4STr-6" value="" style="ellipse;whiteSpace=wrap;html=1;aspect=fixed;fillColor=#000066;" vertex="1" parent="1">
          <mxGeometry x="78" y="180" width="50" height="50" as="geometry" />
        </mxCell>
        <mxCell id="KnBhReZshsChLlfX4STr-7" style="edgeStyle=orthogonalEdgeStyle;rounded=0;orthogonalLoop=1;jettySize=auto;html=1;exitX=1;exitY=0.5;exitDx=0;exitDy=0;entryX=0;entryY=0.5;entryDx=0;entryDy=0;" edge="1" parent="1" source="KnBhReZshsChLlfX4STr-8" target="KnBhReZshsChLlfX4STr-10">
          <mxGeometry relative="1" as="geometry" />
        </mxCell>
        <mxCell id="KnBhReZshsChLlfX4STr-8" value="Chọn vai trò" style="rounded=1;whiteSpace=wrap;html=1;fillColor=#cce5ff;strokeColor=#36393d;" vertex="1" parent="1">
          <mxGeometry x="43" y="280" width="120" height="60" as="geometry" />
        </mxCell>
        <mxCell id="KnBhReZshsChLlfX4STr-9" style="edgeStyle=orthogonalEdgeStyle;rounded=0;orthogonalLoop=1;jettySize=auto;html=1;exitX=0.5;exitY=1;exitDx=0;exitDy=0;entryX=0.5;entryY=0;entryDx=0;entryDy=0;" edge="1" parent="1" source="KnBhReZshsChLlfX4STr-10" target="KnBhReZshsChLlfX4STr-12">
          <mxGeometry relative="1" as="geometry" />
        </mxCell>
        <mxCell id="KnBhReZshsChLlfX4STr-10" value="Hiển thị trang thông tin theo vai trò" style="rounded=1;whiteSpace=wrap;html=1;fillColor=#cce5ff;strokeColor=#36393d;" vertex="1" parent="1">
          <mxGeometry x="283" y="280" width="120" height="60" as="geometry" />
        </mxCell>
        <mxCell id="KnBhReZshsChLlfX4STr-11" style="edgeStyle=orthogonalEdgeStyle;rounded=0;orthogonalLoop=1;jettySize=auto;html=1;exitX=1;exitY=0.5;exitDx=0;exitDy=0;entryX=0;entryY=0.5;entryDx=0;entryDy=0;" edge="1" parent="1" source="KnBhReZshsChLlfX4STr-12" target="KnBhReZshsChLlfX4STr-14">
          <mxGeometry relative="1" as="geometry" />
        </mxCell>
        <mxCell id="KnBhReZshsChLlfX4STr-12" value="Chọn phương thức&amp;nbsp;" style="rounded=1;whiteSpace=wrap;html=1;fillColor=#cce5ff;strokeColor=#36393d;" vertex="1" parent="1">
          <mxGeometry x="43" y="400" width="120" height="60" as="geometry" />
        </mxCell>
        <mxCell id="KnBhReZshsChLlfX4STr-13" style="edgeStyle=orthogonalEdgeStyle;rounded=0;orthogonalLoop=1;jettySize=auto;html=1;exitX=0.5;exitY=1;exitDx=0;exitDy=0;entryX=0.5;entryY=0;entryDx=0;entryDy=0;" edge="1" parent="1" source="KnBhReZshsChLlfX4STr-14" target="KnBhReZshsChLlfX4STr-16">
          <mxGeometry relative="1" as="geometry" />
        </mxCell>
        <mxCell id="KnBhReZshsChLlfX4STr-14" value="Yêu cầu thông&lt;span style=&quot;color: rgba(0, 0, 0, 0); font-family: monospace; font-size: 0px; text-align: start; text-wrap-mode: nowrap;&quot;&gt;%3CmxGraphModel%3E%3Croot%3E%3CmxCell%20id%3D%220%22%2F%3E%3CmxCell%20id%3D%221%22%20parent%3D%220%22%2F%3E%3CmxCell%20id%3D%222%22%20value%3D%22Ch%E1%BB%8Dn%20ph%C6%B0%C6%A1ng%20th%E1%BB%A9c%26amp%3Bnbsp%3B%22%20style%3D%22rounded%3D1%3BwhiteSpace%3Dwrap%3Bhtml%3D1%3B%22%20vertex%3D%221%22%20parent%3D%221%22%3E%3CmxGeometry%20x%3D%2245%22%20y%3D%22400%22%20width%3D%22120%22%20height%3D%2260%22%20as%3D%22geometry%22%2F%3E%3C%2FmxCell%3E%3C%2Froot%3E%3C%2FmxGraphModel%3E&lt;/span&gt;&amp;nbsp;tin cần thiết" style="rounded=1;whiteSpace=wrap;html=1;fillColor=#cce5ff;strokeColor=#36393d;" vertex="1" parent="1">
          <mxGeometry x="283" y="400" width="120" height="60" as="geometry" />
        </mxCell>
        <mxCell id="KnBhReZshsChLlfX4STr-15" style="edgeStyle=orthogonalEdgeStyle;rounded=0;orthogonalLoop=1;jettySize=auto;html=1;exitX=1;exitY=0.5;exitDx=0;exitDy=0;entryX=0;entryY=0.5;entryDx=0;entryDy=0;" edge="1" parent="1" source="KnBhReZshsChLlfX4STr-16" target="KnBhReZshsChLlfX4STr-18">
          <mxGeometry relative="1" as="geometry" />
        </mxCell>
        <mxCell id="KnBhReZshsChLlfX4STr-16" value="Nhập thông&lt;span style=&quot;color: rgba(0, 0, 0, 0); font-family: monospace; font-size: 0px; text-align: start; text-wrap-mode: nowrap;&quot;&gt;%3CmxGraphModel%3E%3Croot%3E%3CmxCell%20id%3D%220%22%2F%3E%3CmxCell%20id%3D%221%22%20parent%3D%220%22%2F%3E%3CmxCell%20id%3D%222%22%20value%3D%22Ch%E1%BB%8Dn%20ph%C6%B0%C6%A1ng%20th%E1%BB%A9c%26amp%3Bnbsp%3B%22%20style%3D%22rounded%3D1%3BwhiteSpace%3Dwrap%3Bhtml%3D1%3B%22%20vertex%3D%221%22%20parent%3D%221%22%3E%3CmxGeometry%20x%3D%2245%22%20y%3D%22400%22%20width%3D%22120%22%20height%3D%2260%22%20as%3D%22geometry%22%2F%3E%3C%2FmxCell%3E%3C%2Froot%3E%3C%2FmxGraphModel%3E&lt;/span&gt;&amp;nbsp;tin cần thiết" style="rounded=1;whiteSpace=wrap;html=1;fillColor=#cce5ff;strokeColor=#36393d;" vertex="1" parent="1">
          <mxGeometry x="43" y="510" width="120" height="60" as="geometry" />
        </mxCell>
        <mxCell id="KnBhReZshsChLlfX4STr-17" style="edgeStyle=orthogonalEdgeStyle;rounded=0;orthogonalLoop=1;jettySize=auto;html=1;exitX=1;exitY=0.5;exitDx=0;exitDy=0;entryX=0;entryY=0.5;entryDx=0;entryDy=0;" edge="1" parent="1" source="KnBhReZshsChLlfX4STr-18" target="KnBhReZshsChLlfX4STr-21">
          <mxGeometry relative="1" as="geometry" />
        </mxCell>
        <mxCell id="KnBhReZshsChLlfX4STr-18" value="Kiểm tra tính hợp lệ" style="rounded=1;whiteSpace=wrap;html=1;fillColor=#cce5ff;strokeColor=#36393d;" vertex="1" parent="1">
          <mxGeometry x="283" y="510" width="120" height="60" as="geometry" />
        </mxCell>
        <mxCell id="KnBhReZshsChLlfX4STr-19" style="edgeStyle=orthogonalEdgeStyle;rounded=0;orthogonalLoop=1;jettySize=auto;html=1;exitX=0.5;exitY=0;exitDx=0;exitDy=0;entryX=0.5;entryY=1;entryDx=0;entryDy=0;" edge="1" parent="1" source="KnBhReZshsChLlfX4STr-21" target="KnBhReZshsChLlfX4STr-23">
          <mxGeometry relative="1" as="geometry" />
        </mxCell>
        <mxCell id="KnBhReZshsChLlfX4STr-20" style="edgeStyle=orthogonalEdgeStyle;rounded=0;orthogonalLoop=1;jettySize=auto;html=1;exitX=1;exitY=0.5;exitDx=0;exitDy=0;entryX=0;entryY=0.5;entryDx=0;entryDy=0;" edge="1" parent="1" source="KnBhReZshsChLlfX4STr-21" target="KnBhReZshsChLlfX4STr-25">
          <mxGeometry relative="1" as="geometry" />
        </mxCell>
        <mxCell id="KnBhReZshsChLlfX4STr-21" value="" style="rhombus;whiteSpace=wrap;html=1;fillColor=#CCFFCC;strokeColor=#36393d;" vertex="1" parent="1">
          <mxGeometry x="488" y="515" width="50" height="50" as="geometry" />
        </mxCell>
        <mxCell id="KnBhReZshsChLlfX4STr-22" style="edgeStyle=orthogonalEdgeStyle;rounded=0;orthogonalLoop=1;jettySize=auto;html=1;exitX=0;exitY=0.5;exitDx=0;exitDy=0;entryX=0.5;entryY=0;entryDx=0;entryDy=0;" edge="1" parent="1" source="KnBhReZshsChLlfX4STr-23" target="KnBhReZshsChLlfX4STr-35">
          <mxGeometry relative="1" as="geometry">
            <Array as="points">
              <mxPoint x="438" y="430" />
              <mxPoint x="438" y="600" />
              <mxPoint x="343" y="600" />
            </Array>
          </mxGeometry>
        </mxCell>
        <mxCell id="KnBhReZshsChLlfX4STr-23" value="Thông báo lỗi&lt;span style=&quot;color: rgba(0, 0, 0, 0); font-family: monospace; font-size: 0px; text-align: start; text-wrap-mode: nowrap;&quot;&gt;%3CmxGraphModel%3E%3Croot%3E%3CmxCell%20id%3D%220%22%2F%3E%3CmxCell%20id%3D%221%22%20parent%3D%220%22%2F%3E%3CmxCell%20id%3D%222%22%20value%3D%22Nh%E1%BA%ADp%20th%C3%B4ng%26lt%3Bspan%20style%3D%26quot%3Bcolor%3A%20rgba(0%2C%200%2C%200%2C%200)%3B%20font-family%3A%20monospace%3B%20font-size%3A%200px%3B%20text-align%3A%20start%3B%20text-wrap-mode%3A%20nowrap%3B%26quot%3B%26gt%3B%253CmxGraphModel%253E%253Croot%253E%253CmxCell%2520id%253D%25220%2522%252F%253E%253CmxCell%2520id%253D%25221%2522%2520parent%253D%25220%2522%252F%253E%253CmxCell%2520id%253D%25222%2522%2520value%253D%2522Ch%25E1%25BB%258Dn%2520ph%25C6%25B0%25C6%25A1ng%2520th%25E1%25BB%25A9c%2526amp%253Bnbsp%253B%2522%2520style%253D%2522rounded%253D1%253BwhiteSpace%253Dwrap%253Bhtml%253D1%253B%2522%2520vertex%253D%25221%2522%2520parent%253D%25221%2522%253E%253CmxGeometry%2520x%253D%252245%2522%2520y%253D%2522400%2522%2520width%253D%2522120%2522%2520height%253D%252260%2522%2520as%253D%2522geometry%2522%252F%253E%253C%252FmxCell%253E%253C%252Froot%253E%253C%252FmxGraphModel%253E%26lt%3B%2Fspan%26gt%3B%26amp%3Bnbsp%3Btin%20c%E1%BA%A7n%20thi%E1%BA%BFt%22%20style%3D%22rounded%3D1%3BwhiteSpace%3Dwrap%3Bhtml%3D1%3B%22%20vertex%3D%221%22%20parent%3D%221%22%3E%3CmxGeometry%20x%3D%2245%22%20y%3D%22510%22%20width%3D%22120%22%20height%3D%2260%22%20as%3D%22geometry%22%2F%3E%3C%2FmxCell%3E%3C%2Froot%3E%3C%2FmxGraphModel%3E&lt;/span&gt;" style="rounded=1;whiteSpace=wrap;html=1;fillColor=#cce5ff;strokeColor=#36393d;" vertex="1" parent="1">
          <mxGeometry x="453" y="400" width="120" height="60" as="geometry" />
        </mxCell>
        <mxCell id="KnBhReZshsChLlfX4STr-24" style="edgeStyle=orthogonalEdgeStyle;rounded=0;orthogonalLoop=1;jettySize=auto;html=1;exitX=0.5;exitY=1;exitDx=0;exitDy=0;entryX=0.5;entryY=0;entryDx=0;entryDy=0;" edge="1" parent="1" source="KnBhReZshsChLlfX4STr-25" target="KnBhReZshsChLlfX4STr-29">
          <mxGeometry relative="1" as="geometry" />
        </mxCell>
        <mxCell id="KnBhReZshsChLlfX4STr-25" value="Cập nhập và đối chiếu thông tin" style="rounded=1;whiteSpace=wrap;html=1;fillColor=#cce5ff;strokeColor=#36393d;" vertex="1" parent="1">
          <mxGeometry x="688" y="510" width="120" height="60" as="geometry" />
        </mxCell>
        <mxCell id="KnBhReZshsChLlfX4STr-26" style="edgeStyle=orthogonalEdgeStyle;rounded=0;orthogonalLoop=1;jettySize=auto;html=1;exitX=0;exitY=0.5;exitDx=0;exitDy=0;entryX=1;entryY=0.5;entryDx=0;entryDy=0;" edge="1" parent="1" source="KnBhReZshsChLlfX4STr-27" target="KnBhReZshsChLlfX4STr-35">
          <mxGeometry relative="1" as="geometry" />
        </mxCell>
        <mxCell id="KnBhReZshsChLlfX4STr-27" value="Thông báo lỗi&lt;span style=&quot;color: rgba(0, 0, 0, 0); font-family: monospace; font-size: 0px; text-align: start; text-wrap-mode: nowrap;&quot;&gt;%3CmxGraphModel%3E%3Croot%3E%3CmxCell%20id%3D%220%22%2F%3E%3CmxCell%20id%3D%221%22%20parent%3D%220%22%2F%3E%3CmxCell%20id%3D%222%22%20value%3D%22Nh%E1%BA%ADp%20th%C3%B4ng%26lt%3Bspan%20style%3D%26quot%3Bcolor%3A%20rgba(0%2C%200%2C%200%2C%200)%3B%20font-family%3A%20monospace%3B%20font-size%3A%200px%3B%20text-align%3A%20start%3B%20text-wrap-mode%3A%20nowrap%3B%26quot%3B%26gt%3B%253CmxGraphModel%253E%253Croot%253E%253CmxCell%2520id%253D%25220%2522%252F%253E%253CmxCell%2520id%253D%25221%2522%2520parent%253D%25220%2522%252F%253E%253CmxCell%2520id%253D%25222%2522%2520value%253D%2522Ch%25E1%25BB%258Dn%2520ph%25C6%25B0%25C6%25A1ng%2520th%25E1%25BB%25A9c%2526amp%253Bnbsp%253B%2522%2520style%253D%2522rounded%253D1%253BwhiteSpace%253Dwrap%253Bhtml%253D1%253B%2522%2520vertex%253D%25221%2522%2520parent%253D%25221%2522%253E%253CmxGeometry%2520x%253D%252245%2522%2520y%253D%2522400%2522%2520width%253D%2522120%2522%2520height%253D%252260%2522%2520as%253D%2522geometry%2522%252F%253E%253C%252FmxCell%253E%253C%252Froot%253E%253C%252FmxGraphModel%253E%26lt%3B%2Fspan%26gt%3B%26amp%3Bnbsp%3Btin%20c%E1%BA%A7n%20thi%E1%BA%BFt%22%20style%3D%22rounded%3D1%3BwhiteSpace%3Dwrap%3Bhtml%3D1%3B%22%20vertex%3D%221%22%20parent%3D%221%22%3E%3CmxGeometry%20x%3D%2245%22%20y%3D%22510%22%20width%3D%22120%22%20height%3D%2260%22%20as%3D%22geometry%22%2F%3E%3C%2FmxCell%3E%3C%2Froot%3E%3C%2FmxGraphModel%3E&lt;/span&gt;" style="rounded=1;whiteSpace=wrap;html=1;fillColor=#cce5ff;strokeColor=#36393d;" vertex="1" parent="1">
          <mxGeometry x="453" y="620" width="120" height="60" as="geometry" />
        </mxCell>
        <mxCell id="KnBhReZshsChLlfX4STr-28" style="edgeStyle=orthogonalEdgeStyle;rounded=0;orthogonalLoop=1;jettySize=auto;html=1;exitX=0;exitY=0.5;exitDx=0;exitDy=0;entryX=1;entryY=0.5;entryDx=0;entryDy=0;" edge="1" parent="1" source="KnBhReZshsChLlfX4STr-29" target="KnBhReZshsChLlfX4STr-27">
          <mxGeometry relative="1" as="geometry" />
        </mxCell>
        <mxCell id="KnBhReZshsChLlfX4STr-29" value="" style="rhombus;whiteSpace=wrap;html=1;fillColor=#CCFFCC;strokeColor=#36393d;" vertex="1" parent="1">
          <mxGeometry x="723" y="625" width="50" height="50" as="geometry" />
        </mxCell>
        <mxCell id="KnBhReZshsChLlfX4STr-30" style="edgeStyle=orthogonalEdgeStyle;rounded=0;orthogonalLoop=1;jettySize=auto;html=1;exitX=0;exitY=0.5;exitDx=0;exitDy=0;" edge="1" parent="1" source="KnBhReZshsChLlfX4STr-31" target="KnBhReZshsChLlfX4STr-33">
          <mxGeometry relative="1" as="geometry" />
        </mxCell>
        <mxCell id="KnBhReZshsChLlfX4STr-31" value="Thông báo thành công" style="rounded=1;whiteSpace=wrap;html=1;fillColor=#cce5ff;strokeColor=#36393d;" vertex="1" parent="1">
          <mxGeometry x="453" y="752.5" width="120" height="60" as="geometry" />
        </mxCell>
        <mxCell id="KnBhReZshsChLlfX4STr-32" style="edgeStyle=orthogonalEdgeStyle;rounded=0;orthogonalLoop=1;jettySize=auto;html=1;exitX=0;exitY=0.5;exitDx=0;exitDy=0;entryX=1;entryY=0.5;entryDx=0;entryDy=0;" edge="1" parent="1" source="KnBhReZshsChLlfX4STr-33" target="KnBhReZshsChLlfX4STr-36">
          <mxGeometry relative="1" as="geometry" />
        </mxCell>
        <mxCell id="KnBhReZshsChLlfX4STr-33" value="Hiển thị trang chức năng" style="rounded=1;whiteSpace=wrap;html=1;fillColor=#cce5ff;strokeColor=#36393d;" vertex="1" parent="1">
          <mxGeometry x="278" y="752.5" width="120" height="60" as="geometry" />
        </mxCell>
        <mxCell id="KnBhReZshsChLlfX4STr-34" style="edgeStyle=orthogonalEdgeStyle;rounded=0;orthogonalLoop=1;jettySize=auto;html=1;exitX=0;exitY=0.5;exitDx=0;exitDy=0;entryX=0.5;entryY=1;entryDx=0;entryDy=0;" edge="1" parent="1" source="KnBhReZshsChLlfX4STr-35" target="KnBhReZshsChLlfX4STr-16">
          <mxGeometry relative="1" as="geometry" />
        </mxCell>
        <mxCell id="KnBhReZshsChLlfX4STr-35" value="Cho phép nhập lại thông tin" style="rounded=1;whiteSpace=wrap;html=1;fillColor=#cce5ff;strokeColor=#36393d;" vertex="1" parent="1">
          <mxGeometry x="283" y="620" width="120" height="60" as="geometry" />
        </mxCell>
        <mxCell id="KnBhReZshsChLlfX4STr-36" value="" style="ellipse;whiteSpace=wrap;html=1;aspect=fixed;" vertex="1" parent="1">
          <mxGeometry x="90.5" y="755" width="55" height="55" as="geometry" />
        </mxCell>
        <mxCell id="KnBhReZshsChLlfX4STr-37" value="" style="ellipse;whiteSpace=wrap;html=1;aspect=fixed;fillColor=#000066;" vertex="1" parent="1">
          <mxGeometry x="98" y="762.5" width="40" height="40" as="geometry" />
        </mxCell>
        <mxCell id="KnBhReZshsChLlfX4STr-38" value="Không hợp lệ" style="text;html=1;align=center;verticalAlign=middle;whiteSpace=wrap;rounded=0;" vertex="1" parent="1">
          <mxGeometry x="458" y="485" width="60" height="30" as="geometry" />
        </mxCell>
        <mxCell id="KnBhReZshsChLlfX4STr-39" value="Không hợp lệ" style="text;html=1;align=center;verticalAlign=middle;whiteSpace=wrap;rounded=0;" vertex="1" parent="1">
          <mxGeometry x="643" y="620" width="80" height="30" as="geometry" />
        </mxCell>
        <mxCell id="KnBhReZshsChLlfX4STr-40" value="Hợp lệ" style="text;html=1;align=center;verticalAlign=middle;whiteSpace=wrap;rounded=0;" vertex="1" parent="1">
          <mxGeometry x="538" y="515" width="60" height="30" as="geometry" />
        </mxCell>
        <mxCell id="KnBhReZshsChLlfX4STr-41" value="Hợp lệ" style="text;html=1;align=center;verticalAlign=middle;whiteSpace=wrap;rounded=0;" vertex="1" parent="1">
          <mxGeometry x="748" y="675" width="50" height="30" as="geometry" />
        </mxCell>
        <mxCell id="KnBhReZshsChLlfX4STr-42" style="edgeStyle=orthogonalEdgeStyle;rounded=0;orthogonalLoop=1;jettySize=auto;html=1;exitX=0.5;exitY=1;exitDx=0;exitDy=0;entryX=1;entryY=0.5;entryDx=0;entryDy=0;" edge="1" parent="1" source="KnBhReZshsChLlfX4STr-29" target="KnBhReZshsChLlfX4STr-31">
          <mxGeometry relative="1" as="geometry">
            <mxPoint x="588" y="790" as="targetPoint" />
          </mxGeometry>
        </mxCell>
      </root>
    </mxGraphModel>
  </diagram>
  <diagram id="RDGOAF9zTz-KRU6y3I9P" name="Activity Admin">
    <mxGraphModel grid="1" page="1" gridSize="10" guides="1" tooltips="1" connect="1" arrows="1" fold="1" pageScale="1" pageWidth="850" pageHeight="1100" math="0" shadow="0">
      <root>
        <mxCell id="0" />
        <mxCell id="1" parent="0" />
        <mxCell id="jbZRu70DIGxZtHq-SqyZ-1" value="&lt;p style=&quot;margin: 4px 0px 0px; text-align: center;&quot;&gt;&lt;span style=&quot;font-size: 16px;&quot;&gt;&lt;b&gt;Cơ sở dữ liệu&lt;/b&gt;&lt;/span&gt;&lt;/p&gt;&lt;hr size=&quot;1&quot; style=&quot;border-style:solid;&quot;&gt;&lt;p style=&quot;margin:0px;margin-left:8px;&quot;&gt;&lt;br&gt;&lt;/p&gt;" style="verticalAlign=top;align=left;overflow=fill;html=1;whiteSpace=wrap;movable=1;resizable=1;rotatable=1;deletable=1;editable=1;locked=0;connectable=1;" vertex="1" parent="1">
          <mxGeometry x="1120" y="80" width="330" height="1470" as="geometry" />
        </mxCell>
        <mxCell id="jbZRu70DIGxZtHq-SqyZ-2" value="&lt;p style=&quot;margin: 4px 0px 0px; text-align: center;&quot;&gt;&lt;span style=&quot;font-size: 16px;&quot;&gt;&lt;b&gt;Hệ thống&lt;/b&gt;&lt;/span&gt;&lt;/p&gt;&lt;hr size=&quot;1&quot; style=&quot;border-style:solid;&quot;&gt;&lt;p style=&quot;margin:0px;margin-left:8px;&quot;&gt;&lt;br&gt;&lt;/p&gt;" style="verticalAlign=top;align=left;overflow=fill;html=1;whiteSpace=wrap;movable=1;resizable=1;rotatable=1;deletable=1;editable=1;locked=0;connectable=1;" vertex="1" parent="1">
          <mxGeometry x="690" y="80" width="430" height="1470" as="geometry" />
        </mxCell>
        <mxCell id="jbZRu70DIGxZtHq-SqyZ-3" value="&lt;p style=&quot;margin: 4px 0px 0px; text-align: center;&quot;&gt;&lt;span style=&quot;font-size: 16px;&quot;&gt;&lt;b&gt;Admin&lt;/b&gt;&lt;/span&gt;&lt;/p&gt;&lt;hr size=&quot;1&quot; style=&quot;border-style:solid;&quot;&gt;&lt;p style=&quot;margin:0px;margin-left:8px;&quot;&gt;&lt;br&gt;&lt;/p&gt;" style="verticalAlign=top;align=left;overflow=fill;html=1;whiteSpace=wrap;movable=1;resizable=1;rotatable=1;deletable=1;editable=1;locked=0;connectable=1;" vertex="1" parent="1">
          <mxGeometry x="240" y="80" width="450" height="1470" as="geometry" />
        </mxCell>
        <mxCell id="jbZRu70DIGxZtHq-SqyZ-4" style="edgeStyle=orthogonalEdgeStyle;rounded=0;orthogonalLoop=1;jettySize=auto;html=1;exitX=0.5;exitY=1;exitDx=0;exitDy=0;entryX=0.5;entryY=0;entryDx=0;entryDy=0;" edge="1" parent="1" source="jbZRu70DIGxZtHq-SqyZ-5" target="jbZRu70DIGxZtHq-SqyZ-7">
          <mxGeometry relative="1" as="geometry" />
        </mxCell>
        <mxCell id="jbZRu70DIGxZtHq-SqyZ-5" value="" style="ellipse;whiteSpace=wrap;html=1;aspect=fixed;fillColor=#000066;" vertex="1" parent="1">
          <mxGeometry x="355" y="130" width="50" height="50" as="geometry" />
        </mxCell>
        <mxCell id="jbZRu70DIGxZtHq-SqyZ-6" style="edgeStyle=orthogonalEdgeStyle;rounded=0;orthogonalLoop=1;jettySize=auto;html=1;exitX=1;exitY=0.5;exitDx=0;exitDy=0;entryX=0;entryY=0.5;entryDx=0;entryDy=0;" edge="1" parent="1" source="jbZRu70DIGxZtHq-SqyZ-7" target="jbZRu70DIGxZtHq-SqyZ-67">
          <mxGeometry relative="1" as="geometry" />
        </mxCell>
        <mxCell id="jbZRu70DIGxZtHq-SqyZ-7" value="Chọn chức năng Dashboard để xem" style="rounded=1;whiteSpace=wrap;html=1;fillColor=#dae8fc;strokeColor=#6c8ebf;" vertex="1" parent="1">
          <mxGeometry x="320" y="210" width="120" height="60" as="geometry" />
        </mxCell>
        <mxCell id="jbZRu70DIGxZtHq-SqyZ-8" style="edgeStyle=orthogonalEdgeStyle;rounded=0;orthogonalLoop=1;jettySize=auto;html=1;exitX=0;exitY=0.5;exitDx=0;exitDy=0;entryX=0.5;entryY=0;entryDx=0;entryDy=0;" edge="1" parent="1" source="jbZRu70DIGxZtHq-SqyZ-9" target="jbZRu70DIGxZtHq-SqyZ-11">
          <mxGeometry relative="1" as="geometry" />
        </mxCell>
        <mxCell id="jbZRu70DIGxZtHq-SqyZ-9" value="Hiển thị trang thông tin Dashboard" style="rounded=1;whiteSpace=wrap;html=1;fillColor=#dae8fc;strokeColor=#6c8ebf;" vertex="1" parent="1">
          <mxGeometry x="750" y="260" width="120" height="60" as="geometry" />
        </mxCell>
        <mxCell id="jbZRu70DIGxZtHq-SqyZ-10" style="edgeStyle=orthogonalEdgeStyle;rounded=0;orthogonalLoop=1;jettySize=auto;html=1;exitX=1;exitY=0.5;exitDx=0;exitDy=0;" edge="1" parent="1" source="jbZRu70DIGxZtHq-SqyZ-11" target="jbZRu70DIGxZtHq-SqyZ-68">
          <mxGeometry relative="1" as="geometry" />
        </mxCell>
        <mxCell id="jbZRu70DIGxZtHq-SqyZ-11" value="Chọn chức năng Invoices để xem" style="rounded=1;whiteSpace=wrap;html=1;fillColor=#dae8fc;strokeColor=#6c8ebf;" vertex="1" parent="1">
          <mxGeometry x="320" y="320" width="120" height="60" as="geometry" />
        </mxCell>
        <mxCell id="jbZRu70DIGxZtHq-SqyZ-12" style="edgeStyle=orthogonalEdgeStyle;rounded=0;orthogonalLoop=1;jettySize=auto;html=1;exitX=0;exitY=0.5;exitDx=0;exitDy=0;entryX=0.5;entryY=0;entryDx=0;entryDy=0;" edge="1" parent="1" source="jbZRu70DIGxZtHq-SqyZ-13" target="jbZRu70DIGxZtHq-SqyZ-15">
          <mxGeometry relative="1" as="geometry" />
        </mxCell>
        <mxCell id="jbZRu70DIGxZtHq-SqyZ-13" value="Hiển thị trang thông tin Invoices" style="rounded=1;whiteSpace=wrap;html=1;fillColor=#dae8fc;strokeColor=#6c8ebf;" vertex="1" parent="1">
          <mxGeometry x="750" y="370" width="120" height="60" as="geometry" />
        </mxCell>
        <mxCell id="jbZRu70DIGxZtHq-SqyZ-14" style="edgeStyle=orthogonalEdgeStyle;rounded=0;orthogonalLoop=1;jettySize=auto;html=1;exitX=1;exitY=0.5;exitDx=0;exitDy=0;entryX=0;entryY=0.5;entryDx=0;entryDy=0;" edge="1" parent="1" source="jbZRu70DIGxZtHq-SqyZ-15" target="jbZRu70DIGxZtHq-SqyZ-17">
          <mxGeometry relative="1" as="geometry" />
        </mxCell>
        <mxCell id="jbZRu70DIGxZtHq-SqyZ-15" value="Chọn đối tượng bất kỳ để xem thông tin vé đã bán" style="rounded=1;whiteSpace=wrap;html=1;fillColor=#dae8fc;strokeColor=#6c8ebf;" vertex="1" parent="1">
          <mxGeometry x="320" y="430" width="120" height="60" as="geometry" />
        </mxCell>
        <mxCell id="jbZRu70DIGxZtHq-SqyZ-16" style="edgeStyle=orthogonalEdgeStyle;rounded=0;orthogonalLoop=1;jettySize=auto;html=1;exitX=0.5;exitY=1;exitDx=0;exitDy=0;entryX=0.5;entryY=0;entryDx=0;entryDy=0;" edge="1" parent="1" source="jbZRu70DIGxZtHq-SqyZ-17" target="jbZRu70DIGxZtHq-SqyZ-21">
          <mxGeometry relative="1" as="geometry" />
        </mxCell>
        <mxCell id="jbZRu70DIGxZtHq-SqyZ-17" value="Hiển thị popup thông tin vé được chọn" style="rounded=1;whiteSpace=wrap;html=1;fillColor=#dae8fc;strokeColor=#6c8ebf;" vertex="1" parent="1">
          <mxGeometry x="940" y="430" width="120" height="60" as="geometry" />
        </mxCell>
        <mxCell id="jbZRu70DIGxZtHq-SqyZ-18" style="edgeStyle=orthogonalEdgeStyle;rounded=0;orthogonalLoop=1;jettySize=auto;html=1;exitX=0.5;exitY=1;exitDx=0;exitDy=0;entryX=1;entryY=0.5;entryDx=0;entryDy=0;" edge="1" parent="1" source="jbZRu70DIGxZtHq-SqyZ-19" target="jbZRu70DIGxZtHq-SqyZ-40">
          <mxGeometry relative="1" as="geometry" />
        </mxCell>
        <mxCell id="jbZRu70DIGxZtHq-SqyZ-19" value="Hiển thị popup thông tin trận đấu" style="rounded=1;whiteSpace=wrap;html=1;fillColor=#dae8fc;strokeColor=#6c8ebf;" vertex="1" parent="1">
          <mxGeometry x="940" y="650" width="120" height="60" as="geometry" />
        </mxCell>
        <mxCell id="jbZRu70DIGxZtHq-SqyZ-20" style="edgeStyle=orthogonalEdgeStyle;rounded=0;orthogonalLoop=1;jettySize=auto;html=1;exitX=1;exitY=0.5;exitDx=0;exitDy=0;entryX=0;entryY=0.5;entryDx=0;entryDy=0;" edge="1" parent="1" source="jbZRu70DIGxZtHq-SqyZ-21" target="jbZRu70DIGxZtHq-SqyZ-70">
          <mxGeometry relative="1" as="geometry" />
        </mxCell>
        <mxCell id="jbZRu70DIGxZtHq-SqyZ-21" value="Chọn chức năng Products để xem" style="rounded=1;whiteSpace=wrap;html=1;fillColor=#dae8fc;strokeColor=#6c8ebf;" vertex="1" parent="1">
          <mxGeometry x="320" y="540" width="120" height="60" as="geometry" />
        </mxCell>
        <mxCell id="jbZRu70DIGxZtHq-SqyZ-22" style="edgeStyle=orthogonalEdgeStyle;rounded=0;orthogonalLoop=1;jettySize=auto;html=1;exitX=1;exitY=0.5;exitDx=0;exitDy=0;entryX=0;entryY=0.5;entryDx=0;entryDy=0;" edge="1" parent="1" source="jbZRu70DIGxZtHq-SqyZ-23" target="jbZRu70DIGxZtHq-SqyZ-19">
          <mxGeometry relative="1" as="geometry" />
        </mxCell>
        <mxCell id="jbZRu70DIGxZtHq-SqyZ-23" value="Chọn đối tượng bất kỳ để xem và điều chỉnh trận đấ&lt;span style=&quot;color: rgba(0, 0, 0, 0); font-family: monospace; font-size: 0px; text-align: start; text-wrap-mode: nowrap;&quot;&gt;%3CmxGraphModel%3E%3Croot%3E%3CmxCell%20id%3D%220%22%2F%3E%3CmxCell%20id%3D%221%22%20parent%3D%220%22%2F%3E%3CmxCell%20id%3D%222%22%20value%3D%22Ch%E1%BB%8Dn%20ch%E1%BB%A9c%20n%C4%83ng%20Products%22%20style%3D%22rounded%3D1%3BwhiteSpace%3Dwrap%3Bhtml%3D1%3BfillColor%3D%23cce5ff%3BstrokeColor%3D%2336393d%3B%22%20vertex%3D%221%22%20parent%3D%221%22%3E%3CmxGeometry%20x%3D%2245%22%20y%3D%22490%22%20width%3D%22120%22%20height%3D%2260%22%20as%3D%22geometry%22%2F%3E%3C%2FmxCell%3E%3C%2Froot%3E%3C%2FmxGraphModel%3E&lt;/span&gt;u" style="rounded=1;whiteSpace=wrap;html=1;fillColor=#dae8fc;strokeColor=#6c8ebf;" vertex="1" parent="1">
          <mxGeometry x="320" y="650" width="120" height="60" as="geometry" />
        </mxCell>
        <mxCell id="jbZRu70DIGxZtHq-SqyZ-24" style="edgeStyle=orthogonalEdgeStyle;rounded=0;orthogonalLoop=1;jettySize=auto;html=1;exitX=1;exitY=0.5;exitDx=0;exitDy=0;entryX=0;entryY=0.5;entryDx=0;entryDy=0;" edge="1" parent="1" source="jbZRu70DIGxZtHq-SqyZ-25" target="jbZRu70DIGxZtHq-SqyZ-75">
          <mxGeometry relative="1" as="geometry" />
        </mxCell>
        <mxCell id="jbZRu70DIGxZtHq-SqyZ-25" value="Chọn chức năng Customers để xem" style="rounded=1;whiteSpace=wrap;html=1;fillColor=#dae8fc;strokeColor=#6c8ebf;" vertex="1" parent="1">
          <mxGeometry x="320" y="1290" width="120" height="60" as="geometry" />
        </mxCell>
        <mxCell id="jbZRu70DIGxZtHq-SqyZ-26" style="edgeStyle=orthogonalEdgeStyle;rounded=0;orthogonalLoop=1;jettySize=auto;html=1;exitX=1;exitY=0.5;exitDx=0;exitDy=0;entryX=0;entryY=0.5;entryDx=0;entryDy=0;" edge="1" parent="1" source="jbZRu70DIGxZtHq-SqyZ-27" target="jbZRu70DIGxZtHq-SqyZ-35">
          <mxGeometry relative="1" as="geometry" />
        </mxCell>
        <mxCell id="jbZRu70DIGxZtHq-SqyZ-27" value="Chọn đối tượng bất kỳ để xem vé đã mua của customer đó" style="rounded=1;whiteSpace=wrap;html=1;fillColor=#dae8fc;strokeColor=#6c8ebf;" vertex="1" parent="1">
          <mxGeometry x="520" y="1420" width="120" height="60" as="geometry" />
        </mxCell>
        <mxCell id="jbZRu70DIGxZtHq-SqyZ-28" style="edgeStyle=orthogonalEdgeStyle;rounded=0;orthogonalLoop=1;jettySize=auto;html=1;exitX=0;exitY=0.5;exitDx=0;exitDy=0;entryX=0.5;entryY=0;entryDx=0;entryDy=0;" edge="1" parent="1" source="jbZRu70DIGxZtHq-SqyZ-29" target="jbZRu70DIGxZtHq-SqyZ-23">
          <mxGeometry relative="1" as="geometry" />
        </mxCell>
        <mxCell id="jbZRu70DIGxZtHq-SqyZ-29" value="Hiển thị trang thông tin Products&amp;nbsp;" style="rounded=1;whiteSpace=wrap;html=1;fillColor=#dae8fc;strokeColor=#6c8ebf;" vertex="1" parent="1">
          <mxGeometry x="750" y="590" width="120" height="60" as="geometry" />
        </mxCell>
        <mxCell id="jbZRu70DIGxZtHq-SqyZ-30" style="edgeStyle=orthogonalEdgeStyle;rounded=0;orthogonalLoop=1;jettySize=auto;html=1;exitX=0.5;exitY=1;exitDx=0;exitDy=0;entryX=0.5;entryY=0;entryDx=0;entryDy=0;" edge="1" parent="1" source="jbZRu70DIGxZtHq-SqyZ-31" target="jbZRu70DIGxZtHq-SqyZ-46">
          <mxGeometry relative="1" as="geometry">
            <Array as="points">
              <mxPoint x="810" y="1050" />
              <mxPoint x="1000" y="1050" />
            </Array>
          </mxGeometry>
        </mxCell>
        <mxCell id="jbZRu70DIGxZtHq-SqyZ-31" value="Hiển thị trang thông tin Add New Products&amp;nbsp;" style="rounded=1;whiteSpace=wrap;html=1;fillColor=#dae8fc;strokeColor=#6c8ebf;" vertex="1" parent="1">
          <mxGeometry x="750" y="970" width="120" height="60" as="geometry" />
        </mxCell>
        <mxCell id="jbZRu70DIGxZtHq-SqyZ-32" style="edgeStyle=orthogonalEdgeStyle;rounded=0;orthogonalLoop=1;jettySize=auto;html=1;exitX=0;exitY=0.5;exitDx=0;exitDy=0;entryX=0.5;entryY=0;entryDx=0;entryDy=0;" edge="1" parent="1" source="jbZRu70DIGxZtHq-SqyZ-33" target="jbZRu70DIGxZtHq-SqyZ-27">
          <mxGeometry relative="1" as="geometry" />
        </mxCell>
        <mxCell id="jbZRu70DIGxZtHq-SqyZ-33" value="Hiển thị trang thông tin Customers&amp;nbsp;" style="rounded=1;whiteSpace=wrap;html=1;fillColor=#dae8fc;strokeColor=#6c8ebf;" vertex="1" parent="1">
          <mxGeometry x="750" y="1350" width="120" height="60" as="geometry" />
        </mxCell>
        <mxCell id="jbZRu70DIGxZtHq-SqyZ-34" style="edgeStyle=orthogonalEdgeStyle;rounded=0;orthogonalLoop=1;jettySize=auto;html=1;exitX=0.5;exitY=1;exitDx=0;exitDy=0;entryX=1;entryY=0.5;entryDx=0;entryDy=0;" edge="1" parent="1" source="jbZRu70DIGxZtHq-SqyZ-35" target="jbZRu70DIGxZtHq-SqyZ-61">
          <mxGeometry relative="1" as="geometry" />
        </mxCell>
        <mxCell id="jbZRu70DIGxZtHq-SqyZ-35" value="Hiển thị popup thông tin vé đã được customer mua" style="rounded=1;whiteSpace=wrap;html=1;fillColor=#dae8fc;strokeColor=#6c8ebf;" vertex="1" parent="1">
          <mxGeometry x="940" y="1420" width="120" height="60" as="geometry" />
        </mxCell>
        <mxCell id="jbZRu70DIGxZtHq-SqyZ-36" style="edgeStyle=orthogonalEdgeStyle;rounded=0;orthogonalLoop=1;jettySize=auto;html=1;exitX=1;exitY=0.5;exitDx=0;exitDy=0;entryX=0;entryY=0.5;entryDx=0;entryDy=0;" edge="1" parent="1" source="jbZRu70DIGxZtHq-SqyZ-38" target="jbZRu70DIGxZtHq-SqyZ-44">
          <mxGeometry relative="1" as="geometry" />
        </mxCell>
        <mxCell id="jbZRu70DIGxZtHq-SqyZ-37" style="edgeStyle=orthogonalEdgeStyle;rounded=0;orthogonalLoop=1;jettySize=auto;html=1;exitX=0;exitY=0.5;exitDx=0;exitDy=0;entryX=0.5;entryY=0;entryDx=0;entryDy=0;" edge="1" parent="1" source="jbZRu70DIGxZtHq-SqyZ-38" target="jbZRu70DIGxZtHq-SqyZ-79">
          <mxGeometry relative="1" as="geometry" />
        </mxCell>
        <mxCell id="jbZRu70DIGxZtHq-SqyZ-38" value="" style="rhombus;whiteSpace=wrap;html=1;fillColor=#d5e8d4;strokeColor=#82b366;" vertex="1" parent="1">
          <mxGeometry x="555" y="790" width="50" height="50" as="geometry" />
        </mxCell>
        <mxCell id="jbZRu70DIGxZtHq-SqyZ-39" style="edgeStyle=orthogonalEdgeStyle;rounded=0;orthogonalLoop=1;jettySize=auto;html=1;exitX=0.5;exitY=1;exitDx=0;exitDy=0;entryX=0.5;entryY=0;entryDx=0;entryDy=0;" edge="1" parent="1" source="jbZRu70DIGxZtHq-SqyZ-40" target="jbZRu70DIGxZtHq-SqyZ-38">
          <mxGeometry relative="1" as="geometry" />
        </mxCell>
        <mxCell id="jbZRu70DIGxZtHq-SqyZ-40" value="Điều chỉnh thông tin trận đấu" style="rounded=1;whiteSpace=wrap;html=1;fillColor=#dae8fc;strokeColor=#6c8ebf;" vertex="1" parent="1">
          <mxGeometry x="520" y="700" width="120" height="60" as="geometry" />
        </mxCell>
        <mxCell id="jbZRu70DIGxZtHq-SqyZ-41" value="Không" style="text;html=1;align=center;verticalAlign=middle;whiteSpace=wrap;rounded=0;" vertex="1" parent="1">
          <mxGeometry x="500" y="785" width="60" height="30" as="geometry" />
        </mxCell>
        <mxCell id="jbZRu70DIGxZtHq-SqyZ-42" value="Có" style="text;html=1;align=center;verticalAlign=middle;whiteSpace=wrap;rounded=0;" vertex="1" parent="1">
          <mxGeometry x="590" y="785" width="60" height="30" as="geometry" />
        </mxCell>
        <mxCell id="jbZRu70DIGxZtHq-SqyZ-43" style="edgeStyle=orthogonalEdgeStyle;rounded=0;orthogonalLoop=1;jettySize=auto;html=1;exitX=0.5;exitY=0;exitDx=0;exitDy=0;" edge="1" parent="1" source="jbZRu70DIGxZtHq-SqyZ-44" target="jbZRu70DIGxZtHq-SqyZ-29">
          <mxGeometry relative="1" as="geometry">
            <Array as="points">
              <mxPoint x="1270" y="770" />
              <mxPoint x="810" y="770" />
            </Array>
          </mxGeometry>
        </mxCell>
        <mxCell id="jbZRu70DIGxZtHq-SqyZ-44" value="Cập nhật dữ liệu / Xóa dữ liệu" style="rounded=1;whiteSpace=wrap;html=1;fillColor=#dae8fc;strokeColor=#6c8ebf;" vertex="1" parent="1">
          <mxGeometry x="1210" y="785" width="120" height="60" as="geometry" />
        </mxCell>
        <mxCell id="jbZRu70DIGxZtHq-SqyZ-45" style="edgeStyle=orthogonalEdgeStyle;rounded=0;orthogonalLoop=1;jettySize=auto;html=1;exitX=0;exitY=0.5;exitDx=0;exitDy=0;entryX=0.5;entryY=0;entryDx=0;entryDy=0;" edge="1" parent="1" source="jbZRu70DIGxZtHq-SqyZ-46" target="jbZRu70DIGxZtHq-SqyZ-48">
          <mxGeometry relative="1" as="geometry" />
        </mxCell>
        <mxCell id="jbZRu70DIGxZtHq-SqyZ-46" value="Yêu cầu thông tin cần thiết" style="rounded=1;whiteSpace=wrap;html=1;fillColor=#dae8fc;strokeColor=#6c8ebf;" vertex="1" parent="1">
          <mxGeometry x="940" y="1070" width="120" height="60" as="geometry" />
        </mxCell>
        <mxCell id="jbZRu70DIGxZtHq-SqyZ-47" style="edgeStyle=orthogonalEdgeStyle;rounded=0;orthogonalLoop=1;jettySize=auto;html=1;exitX=1;exitY=0.5;exitDx=0;exitDy=0;entryX=0;entryY=0.5;entryDx=0;entryDy=0;" edge="1" parent="1" source="jbZRu70DIGxZtHq-SqyZ-48" target="jbZRu70DIGxZtHq-SqyZ-51">
          <mxGeometry relative="1" as="geometry" />
        </mxCell>
        <mxCell id="jbZRu70DIGxZtHq-SqyZ-48" value="Nhập cầu thông tin cần thiết" style="rounded=1;whiteSpace=wrap;html=1;fillColor=#dae8fc;strokeColor=#6c8ebf;" vertex="1" parent="1">
          <mxGeometry x="520" y="1140" width="120" height="60" as="geometry" />
        </mxCell>
        <mxCell id="jbZRu70DIGxZtHq-SqyZ-49" value="Lưu thông tin và cập nhật vào dữ liệu" style="rounded=1;whiteSpace=wrap;html=1;fillColor=#dae8fc;strokeColor=#6c8ebf;" vertex="1" parent="1">
          <mxGeometry x="1205" y="1140" width="120" height="60" as="geometry" />
        </mxCell>
        <mxCell id="jbZRu70DIGxZtHq-SqyZ-50" style="edgeStyle=orthogonalEdgeStyle;rounded=0;orthogonalLoop=1;jettySize=auto;html=1;exitX=1;exitY=0.5;exitDx=0;exitDy=0;entryX=0;entryY=0.5;entryDx=0;entryDy=0;" edge="1" parent="1" source="jbZRu70DIGxZtHq-SqyZ-51" target="jbZRu70DIGxZtHq-SqyZ-54">
          <mxGeometry relative="1" as="geometry" />
        </mxCell>
        <mxCell id="jbZRu70DIGxZtHq-SqyZ-51" value="Kiểm tra thông tin" style="rounded=1;whiteSpace=wrap;html=1;fillColor=#dae8fc;strokeColor=#6c8ebf;" vertex="1" parent="1">
          <mxGeometry x="750" y="1140" width="120" height="60" as="geometry" />
        </mxCell>
        <mxCell id="jbZRu70DIGxZtHq-SqyZ-52" style="edgeStyle=orthogonalEdgeStyle;rounded=0;orthogonalLoop=1;jettySize=auto;html=1;exitX=0.5;exitY=1;exitDx=0;exitDy=0;entryX=0.5;entryY=0;entryDx=0;entryDy=0;" edge="1" parent="1" source="jbZRu70DIGxZtHq-SqyZ-54" target="jbZRu70DIGxZtHq-SqyZ-56">
          <mxGeometry relative="1" as="geometry" />
        </mxCell>
        <mxCell id="jbZRu70DIGxZtHq-SqyZ-53" style="edgeStyle=orthogonalEdgeStyle;rounded=0;orthogonalLoop=1;jettySize=auto;html=1;exitX=1;exitY=0.5;exitDx=0;exitDy=0;entryX=0;entryY=0.5;entryDx=0;entryDy=0;" edge="1" parent="1" source="jbZRu70DIGxZtHq-SqyZ-54" target="jbZRu70DIGxZtHq-SqyZ-49">
          <mxGeometry relative="1" as="geometry" />
        </mxCell>
        <mxCell id="jbZRu70DIGxZtHq-SqyZ-54" value="" style="rhombus;whiteSpace=wrap;html=1;fillColor=#d5e8d4;strokeColor=#82b366;" vertex="1" parent="1">
          <mxGeometry x="975" y="1145" width="50" height="50" as="geometry" />
        </mxCell>
        <mxCell id="jbZRu70DIGxZtHq-SqyZ-55" style="edgeStyle=orthogonalEdgeStyle;rounded=0;orthogonalLoop=1;jettySize=auto;html=1;exitX=0;exitY=0.5;exitDx=0;exitDy=0;entryX=1;entryY=0.5;entryDx=0;entryDy=0;" edge="1" parent="1" source="jbZRu70DIGxZtHq-SqyZ-56" target="jbZRu70DIGxZtHq-SqyZ-57">
          <mxGeometry relative="1" as="geometry" />
        </mxCell>
        <mxCell id="jbZRu70DIGxZtHq-SqyZ-56" value="Thông báo lỗi" style="rounded=1;whiteSpace=wrap;html=1;fillColor=#dae8fc;strokeColor=#6c8ebf;" vertex="1" parent="1">
          <mxGeometry x="940" y="1240" width="120" height="60" as="geometry" />
        </mxCell>
        <mxCell id="jbZRu70DIGxZtHq-SqyZ-57" value="Cho phép nhập lại" style="rounded=1;whiteSpace=wrap;html=1;fillColor=#dae8fc;strokeColor=#6c8ebf;" vertex="1" parent="1">
          <mxGeometry x="750" y="1240" width="120" height="60" as="geometry" />
        </mxCell>
        <mxCell id="jbZRu70DIGxZtHq-SqyZ-58" style="edgeStyle=orthogonalEdgeStyle;rounded=0;orthogonalLoop=1;jettySize=auto;html=1;exitX=0;exitY=0.5;exitDx=0;exitDy=0;entryX=0.5;entryY=1;entryDx=0;entryDy=0;snapToPoint=0;" edge="1" parent="1" source="jbZRu70DIGxZtHq-SqyZ-57" target="jbZRu70DIGxZtHq-SqyZ-48">
          <mxGeometry relative="1" as="geometry" />
        </mxCell>
        <mxCell id="jbZRu70DIGxZtHq-SqyZ-59" value="Hợp lệ" style="text;html=1;align=center;verticalAlign=middle;whiteSpace=wrap;rounded=0;" vertex="1" parent="1">
          <mxGeometry x="1025" y="1170" width="60" height="30" as="geometry" />
        </mxCell>
        <mxCell id="jbZRu70DIGxZtHq-SqyZ-60" value="Không hợp lệ" style="text;html=1;align=center;verticalAlign=middle;whiteSpace=wrap;rounded=0;" vertex="1" parent="1">
          <mxGeometry x="940" y="1195" width="60" height="30" as="geometry" />
        </mxCell>
        <mxCell id="jbZRu70DIGxZtHq-SqyZ-61" value="" style="ellipse;whiteSpace=wrap;html=1;aspect=fixed;" vertex="1" parent="1">
          <mxGeometry x="360" y="1480" width="55" height="55" as="geometry" />
        </mxCell>
        <mxCell id="jbZRu70DIGxZtHq-SqyZ-62" value="" style="ellipse;whiteSpace=wrap;html=1;aspect=fixed;fillColor=#000066;" vertex="1" parent="1">
          <mxGeometry x="367.5" y="1487.5" width="40" height="40" as="geometry" />
        </mxCell>
        <mxCell id="jbZRu70DIGxZtHq-SqyZ-63" style="edgeStyle=orthogonalEdgeStyle;rounded=0;orthogonalLoop=1;jettySize=auto;html=1;exitX=0.5;exitY=1;exitDx=0;exitDy=0;entryX=0.5;entryY=0;entryDx=0;entryDy=0;" edge="1" parent="1" source="jbZRu70DIGxZtHq-SqyZ-65" target="jbZRu70DIGxZtHq-SqyZ-25">
          <mxGeometry relative="1" as="geometry" />
        </mxCell>
        <mxCell id="jbZRu70DIGxZtHq-SqyZ-64" style="edgeStyle=orthogonalEdgeStyle;rounded=0;orthogonalLoop=1;jettySize=auto;html=1;exitX=1;exitY=0.5;exitDx=0;exitDy=0;entryX=0;entryY=0.5;entryDx=0;entryDy=0;" edge="1" parent="1" source="jbZRu70DIGxZtHq-SqyZ-65" target="jbZRu70DIGxZtHq-SqyZ-77">
          <mxGeometry relative="1" as="geometry" />
        </mxCell>
        <mxCell id="jbZRu70DIGxZtHq-SqyZ-65" value="" style="rhombus;whiteSpace=wrap;html=1;fillColor=#d5e8d4;strokeColor=#82b366;" vertex="1" parent="1">
          <mxGeometry x="355" y="930" width="50" height="50" as="geometry" />
        </mxCell>
        <mxCell id="jbZRu70DIGxZtHq-SqyZ-66" style="edgeStyle=orthogonalEdgeStyle;rounded=0;orthogonalLoop=1;jettySize=auto;html=1;exitX=0.5;exitY=1;exitDx=0;exitDy=0;entryX=1;entryY=0.5;entryDx=0;entryDy=0;" edge="1" parent="1" source="jbZRu70DIGxZtHq-SqyZ-67" target="jbZRu70DIGxZtHq-SqyZ-9">
          <mxGeometry relative="1" as="geometry" />
        </mxCell>
        <mxCell id="jbZRu70DIGxZtHq-SqyZ-67" value="Cập nhật lại dữ liệu thực tại" style="rounded=1;whiteSpace=wrap;html=1;fillColor=#dae8fc;strokeColor=#6c8ebf;" vertex="1" parent="1">
          <mxGeometry x="1205" y="210" width="120" height="60" as="geometry" />
        </mxCell>
        <mxCell id="jbZRu70DIGxZtHq-SqyZ-68" value="Cập nhật lại dữ liệu thực tại" style="rounded=1;whiteSpace=wrap;html=1;fillColor=#dae8fc;strokeColor=#6c8ebf;" vertex="1" parent="1">
          <mxGeometry x="1205" y="320" width="120" height="60" as="geometry" />
        </mxCell>
        <mxCell id="jbZRu70DIGxZtHq-SqyZ-69" style="edgeStyle=orthogonalEdgeStyle;rounded=0;orthogonalLoop=1;jettySize=auto;html=1;exitX=0.5;exitY=1;exitDx=0;exitDy=0;" edge="1" parent="1" source="jbZRu70DIGxZtHq-SqyZ-70" target="jbZRu70DIGxZtHq-SqyZ-29">
          <mxGeometry relative="1" as="geometry" />
        </mxCell>
        <mxCell id="jbZRu70DIGxZtHq-SqyZ-70" value="Cập nhật lại dữ liệu thực tại" style="rounded=1;whiteSpace=wrap;html=1;fillColor=#dae8fc;strokeColor=#6c8ebf;" vertex="1" parent="1">
          <mxGeometry x="1205" y="540" width="120" height="60" as="geometry" />
        </mxCell>
        <mxCell id="jbZRu70DIGxZtHq-SqyZ-71" style="edgeStyle=orthogonalEdgeStyle;rounded=0;orthogonalLoop=1;jettySize=auto;html=1;exitX=0.5;exitY=1;exitDx=0;exitDy=0;entryX=1;entryY=0.5;entryDx=0;entryDy=0;" edge="1" parent="1" source="jbZRu70DIGxZtHq-SqyZ-68" target="jbZRu70DIGxZtHq-SqyZ-13">
          <mxGeometry relative="1" as="geometry" />
        </mxCell>
        <mxCell id="jbZRu70DIGxZtHq-SqyZ-72" style="edgeStyle=orthogonalEdgeStyle;rounded=0;orthogonalLoop=1;jettySize=auto;html=1;exitX=0.5;exitY=1;exitDx=0;exitDy=0;entryX=0.5;entryY=0;entryDx=0;entryDy=0;" edge="1" parent="1" source="jbZRu70DIGxZtHq-SqyZ-73" target="jbZRu70DIGxZtHq-SqyZ-31">
          <mxGeometry relative="1" as="geometry" />
        </mxCell>
        <mxCell id="jbZRu70DIGxZtHq-SqyZ-73" value="Cập nhật lại dữ liệu thực tại" style="rounded=1;whiteSpace=wrap;html=1;fillColor=#dae8fc;strokeColor=#6c8ebf;" vertex="1" parent="1">
          <mxGeometry x="1210" y="870" width="120" height="60" as="geometry" />
        </mxCell>
        <mxCell id="jbZRu70DIGxZtHq-SqyZ-74" style="edgeStyle=orthogonalEdgeStyle;rounded=0;orthogonalLoop=1;jettySize=auto;html=1;exitX=0.5;exitY=1;exitDx=0;exitDy=0;entryX=1;entryY=0.5;entryDx=0;entryDy=0;" edge="1" parent="1" source="jbZRu70DIGxZtHq-SqyZ-75" target="jbZRu70DIGxZtHq-SqyZ-33">
          <mxGeometry relative="1" as="geometry" />
        </mxCell>
        <mxCell id="jbZRu70DIGxZtHq-SqyZ-75" value="Cập nhật lại dữ liệu thực tại" style="rounded=1;whiteSpace=wrap;html=1;fillColor=#dae8fc;strokeColor=#6c8ebf;" vertex="1" parent="1">
          <mxGeometry x="1210" y="1290" width="120" height="60" as="geometry" />
        </mxCell>
        <mxCell id="jbZRu70DIGxZtHq-SqyZ-76" style="edgeStyle=orthogonalEdgeStyle;rounded=0;orthogonalLoop=1;jettySize=auto;html=1;exitX=0.5;exitY=0;exitDx=0;exitDy=0;entryX=0;entryY=0.5;entryDx=0;entryDy=0;" edge="1" parent="1" source="jbZRu70DIGxZtHq-SqyZ-77" target="jbZRu70DIGxZtHq-SqyZ-73">
          <mxGeometry relative="1" as="geometry" />
        </mxCell>
        <mxCell id="jbZRu70DIGxZtHq-SqyZ-77" value="Chọn chức năng Add New Products để thêm trận đấu&amp;nbsp;" style="rounded=1;whiteSpace=wrap;html=1;fillColor=#dae8fc;strokeColor=#6c8ebf;" vertex="1" parent="1">
          <mxGeometry x="520" y="925" width="120" height="60" as="geometry" />
        </mxCell>
        <mxCell id="jbZRu70DIGxZtHq-SqyZ-78" style="edgeStyle=orthogonalEdgeStyle;rounded=0;orthogonalLoop=1;jettySize=auto;html=1;exitX=0.5;exitY=1;exitDx=0;exitDy=0;entryX=0.5;entryY=0;entryDx=0;entryDy=0;" edge="1" parent="1" source="jbZRu70DIGxZtHq-SqyZ-79" target="jbZRu70DIGxZtHq-SqyZ-65">
          <mxGeometry relative="1" as="geometry" />
        </mxCell>
        <mxCell id="jbZRu70DIGxZtHq-SqyZ-79" value="Thêm trận đấu mới" style="rounded=1;whiteSpace=wrap;html=1;fillColor=#dae8fc;strokeColor=#6c8ebf;" vertex="1" parent="1">
          <mxGeometry x="320" y="840" width="120" height="60" as="geometry" />
        </mxCell>
        <mxCell id="jbZRu70DIGxZtHq-SqyZ-80" value="Không" style="text;html=1;align=center;verticalAlign=middle;whiteSpace=wrap;rounded=0;" vertex="1" parent="1">
          <mxGeometry x="320" y="980" width="60" height="30" as="geometry" />
        </mxCell>
        <mxCell id="jbZRu70DIGxZtHq-SqyZ-81" value="Có" style="text;html=1;align=center;verticalAlign=middle;whiteSpace=wrap;rounded=0;" vertex="1" parent="1">
          <mxGeometry x="395" y="930" width="45" height="20" as="geometry" />
        </mxCell>
        <mxCell id="jbZRu70DIGxZtHq-SqyZ-82" value="" style="edgeStyle=orthogonalEdgeStyle;rounded=0;orthogonalLoop=1;jettySize=auto;html=1;exitX=0.5;exitY=0;exitDx=0;exitDy=0;entryX=1;entryY=0.5;entryDx=0;entryDy=0;" edge="1" parent="1" source="jbZRu70DIGxZtHq-SqyZ-49" target="jbZRu70DIGxZtHq-SqyZ-84">
          <mxGeometry relative="1" as="geometry">
            <mxPoint x="1270" y="1115" as="sourcePoint" />
            <mxPoint x="870" y="990" as="targetPoint" />
          </mxGeometry>
        </mxCell>
        <mxCell id="jbZRu70DIGxZtHq-SqyZ-83" style="edgeStyle=orthogonalEdgeStyle;rounded=0;orthogonalLoop=1;jettySize=auto;html=1;exitX=0;exitY=0.5;exitDx=0;exitDy=0;entryX=1;entryY=0.5;entryDx=0;entryDy=0;" edge="1" parent="1" source="jbZRu70DIGxZtHq-SqyZ-84" target="jbZRu70DIGxZtHq-SqyZ-31">
          <mxGeometry relative="1" as="geometry" />
        </mxCell>
        <mxCell id="jbZRu70DIGxZtHq-SqyZ-84" value="Thông báo thành công" style="rounded=1;whiteSpace=wrap;html=1;fillColor=#dae8fc;strokeColor=#6c8ebf;" vertex="1" parent="1">
          <mxGeometry x="940" y="970" width="120" height="60" as="geometry" />
        </mxCell>
      </root>
    </mxGraphModel>
  </diagram>
  <diagram id="Y70WUHp2Hu3qgnAT8KpU" name="Activity User">
    <mxGraphModel grid="1" page="1" gridSize="10" guides="1" tooltips="1" connect="1" arrows="1" fold="1" pageScale="1" pageWidth="850" pageHeight="1100" math="0" shadow="0">
      <root>
        <mxCell id="0" />
        <mxCell id="1" parent="0" />
        <mxCell id="TMmhdewhcLAFi1eM3X07-1" value="&lt;p style=&quot;margin: 4px 0px 0px; text-align: center;&quot;&gt;&lt;b style=&quot;&quot;&gt;&lt;font style=&quot;font-size: 16px;&quot;&gt;User&lt;/font&gt;&lt;/b&gt;&lt;/p&gt;&lt;hr style=&quot;border-style:solid;&quot; size=&quot;1&quot;&gt;&lt;p style=&quot;margin:0px;margin-left:8px;&quot;&gt;&lt;br&gt;&lt;/p&gt;" style="verticalAlign=top;align=left;overflow=fill;html=1;whiteSpace=wrap;fontFamily=Helvetica;" parent="1" vertex="1">
          <mxGeometry x="390" y="130" width="380" height="1330" as="geometry" />
        </mxCell>
        <mxCell id="TMmhdewhcLAFi1eM3X07-2" value="&lt;p style=&quot;margin: 4px 0px 0px; text-align: center;&quot;&gt;&lt;b&gt;&lt;font style=&quot;font-size: 16px;&quot;&gt;Hệ thống&lt;/font&gt;&lt;/b&gt;&lt;/p&gt;&lt;hr style=&quot;border-style:solid;&quot; size=&quot;1&quot;&gt;&lt;p style=&quot;margin:0px;margin-left:8px;&quot;&gt;&lt;br&gt;&lt;/p&gt;" style="verticalAlign=top;align=left;overflow=fill;html=1;whiteSpace=wrap;fontFamily=Helvetica;" parent="1" vertex="1">
          <mxGeometry x="770" y="130" width="580" height="1330" as="geometry" />
        </mxCell>
        <mxCell id="TMmhdewhcLAFi1eM3X07-3" value="&lt;p style=&quot;margin: 4px 0px 0px; text-align: center;&quot;&gt;&lt;b&gt;&lt;font style=&quot;font-size: 16px;&quot;&gt;Cơ sở dữ liệu&lt;/font&gt;&lt;/b&gt;&lt;/p&gt;&lt;hr style=&quot;border-style:solid;&quot; size=&quot;1&quot;&gt;&lt;p style=&quot;margin:0px;margin-left:8px;&quot;&gt;&lt;br&gt;&lt;/p&gt;" style="verticalAlign=top;align=left;overflow=fill;html=1;whiteSpace=wrap;fontFamily=Helvetica;" parent="1" vertex="1">
          <mxGeometry x="1350" y="130" width="440" height="1330" as="geometry" />
        </mxCell>
        <mxCell id="TMmhdewhcLAFi1eM3X07-4" value="" style="ellipse;html=1;shape=startState;fillColor=#0F2F56;strokeColor=none;fontColor=light-dark(#301570,#0F2F56);fontFamily=Helvetica;" parent="1" vertex="1">
          <mxGeometry x="550" y="175" width="60" height="60" as="geometry" />
        </mxCell>
        <mxCell id="TMmhdewhcLAFi1eM3X07-5" value="" style="edgeStyle=orthogonalEdgeStyle;html=1;verticalAlign=bottom;endArrow=open;endSize=8;strokeColor=#000000;rounded=0;fontFamily=Helvetica;" parent="1" source="TMmhdewhcLAFi1eM3X07-4" edge="1">
          <mxGeometry relative="1" as="geometry">
            <mxPoint x="580" y="270" as="targetPoint" />
          </mxGeometry>
        </mxCell>
        <mxCell id="TMmhdewhcLAFi1eM3X07-6" style="edgeStyle=orthogonalEdgeStyle;rounded=0;orthogonalLoop=1;jettySize=auto;html=1;fontFamily=Helvetica;" parent="1" source="TMmhdewhcLAFi1eM3X07-7" target="TMmhdewhcLAFi1eM3X07-9" edge="1">
          <mxGeometry relative="1" as="geometry" />
        </mxCell>
        <mxCell id="TMmhdewhcLAFi1eM3X07-7" value="&lt;span id=&quot;docs-internal-guid-4ec7ca90-7fff-b179-5bb1-fb69c447e156&quot;&gt;&lt;p dir=&quot;ltr&quot; style=&quot;line-height:1.2;margin-top:0pt;margin-bottom:0pt;&quot;&gt;&lt;span id=&quot;docs-internal-guid-1ea4708f-7fff-4028-9be4-8a242cfe5f32&quot;&gt;&lt;span style=&quot;font-size: 14pt; background-color: transparent; font-variant-numeric: normal; font-variant-east-asian: normal; font-variant-alternates: normal; font-variant-position: normal; font-variant-emoji: normal; vertical-align: baseline; white-space-collapse: preserve;&quot;&gt;Chọn câu lạc bộ tại Main page&lt;/span&gt;&lt;/span&gt;&lt;/p&gt;&lt;/span&gt;" style="rounded=1;whiteSpace=wrap;html=1;fillColor=#dae8fc;strokeColor=#6c8ebf;fontFamily=Helvetica;" parent="1" vertex="1">
          <mxGeometry x="495" y="290" width="170" height="60" as="geometry" />
        </mxCell>
        <mxCell id="TMmhdewhcLAFi1eM3X07-8" style="edgeStyle=orthogonalEdgeStyle;rounded=0;orthogonalLoop=1;jettySize=auto;html=1;entryX=1;entryY=0.5;entryDx=0;entryDy=0;fontFamily=Helvetica;" parent="1" source="TMmhdewhcLAFi1eM3X07-9" target="TMmhdewhcLAFi1eM3X07-11" edge="1">
          <mxGeometry relative="1" as="geometry">
            <Array as="points">
              <mxPoint x="1060" y="420" />
            </Array>
          </mxGeometry>
        </mxCell>
        <mxCell id="TMmhdewhcLAFi1eM3X07-9" value="&lt;span id=&quot;docs-internal-guid-4ec7ca90-7fff-b179-5bb1-fb69c447e156&quot;&gt;&lt;p dir=&quot;ltr&quot; style=&quot;line-height:1.2;margin-top:0pt;margin-bottom:0pt;&quot;&gt;&lt;span id=&quot;docs-internal-guid-1ea4708f-7fff-4028-9be4-8a242cfe5f32&quot;&gt;&lt;span style=&quot;font-size: 14pt; background-color: transparent; font-variant-numeric: normal; font-variant-east-asian: normal; font-variant-alternates: normal; font-variant-position: normal; font-variant-emoji: normal; vertical-align: baseline; white-space-collapse: preserve;&quot;&gt;Hiển thị danh sách các trận đấu &lt;/span&gt;&lt;/span&gt;&lt;/p&gt;&lt;/span&gt;" style="rounded=1;whiteSpace=wrap;html=1;fillColor=#dae8fc;strokeColor=#6c8ebf;fontFamily=Helvetica;" parent="1" vertex="1">
          <mxGeometry x="975" y="290" width="170" height="60" as="geometry" />
        </mxCell>
        <mxCell id="TMmhdewhcLAFi1eM3X07-10" style="edgeStyle=orthogonalEdgeStyle;rounded=0;orthogonalLoop=1;jettySize=auto;html=1;entryX=0;entryY=0.5;entryDx=0;entryDy=0;fontFamily=Helvetica;" parent="1" source="TMmhdewhcLAFi1eM3X07-11" target="TMmhdewhcLAFi1eM3X07-13" edge="1">
          <mxGeometry relative="1" as="geometry">
            <Array as="points">
              <mxPoint x="580" y="480" />
            </Array>
          </mxGeometry>
        </mxCell>
        <mxCell id="TMmhdewhcLAFi1eM3X07-11" value="&lt;span id=&quot;docs-internal-guid-4ec7ca90-7fff-b179-5bb1-fb69c447e156&quot;&gt;&lt;p dir=&quot;ltr&quot; style=&quot;line-height:1.2;margin-top:0pt;margin-bottom:0pt;&quot;&gt;&lt;span id=&quot;docs-internal-guid-1ea4708f-7fff-4028-9be4-8a242cfe5f32&quot;&gt;&lt;span style=&quot;font-size: 14pt; background-color: transparent; font-variant-numeric: normal; font-variant-east-asian: normal; font-variant-alternates: normal; font-variant-position: normal; font-variant-emoji: normal; vertical-align: baseline; white-space-collapse: preserve;&quot;&gt;Lựa chọn trận đấu&lt;/span&gt;&lt;/span&gt;&lt;/p&gt;&lt;/span&gt;" style="rounded=1;whiteSpace=wrap;html=1;fillColor=#dae8fc;strokeColor=#6c8ebf;fontFamily=Helvetica;" parent="1" vertex="1">
          <mxGeometry x="495" y="390" width="170" height="60" as="geometry" />
        </mxCell>
        <mxCell id="TMmhdewhcLAFi1eM3X07-12" style="edgeStyle=orthogonalEdgeStyle;rounded=0;orthogonalLoop=1;jettySize=auto;html=1;entryX=0.5;entryY=0;entryDx=0;entryDy=0;fontFamily=Helvetica;" parent="1" source="TMmhdewhcLAFi1eM3X07-13" target="TMmhdewhcLAFi1eM3X07-15" edge="1">
          <mxGeometry relative="1" as="geometry">
            <Array as="points">
              <mxPoint x="1060" y="550" />
              <mxPoint x="580" y="550" />
            </Array>
          </mxGeometry>
        </mxCell>
        <mxCell id="TMmhdewhcLAFi1eM3X07-13" value="&lt;span id=&quot;docs-internal-guid-4ec7ca90-7fff-b179-5bb1-fb69c447e156&quot;&gt;&lt;p dir=&quot;ltr&quot; style=&quot;line-height:1.2;margin-top:0pt;margin-bottom:0pt;&quot;&gt;&lt;span id=&quot;docs-internal-guid-1ea4708f-7fff-4028-9be4-8a242cfe5f32&quot;&gt;&lt;span style=&quot;font-size: 14pt; background-color: transparent; font-variant-numeric: normal; font-variant-east-asian: normal; font-variant-alternates: normal; font-variant-position: normal; font-variant-emoji: normal; vertical-align: baseline; white-space-collapse: preserve;&quot;&gt;Hiển thị danh sách &lt;/span&gt;&lt;/span&gt;&lt;span style=&quot;background-color: transparent; font-size: 14pt; white-space-collapse: preserve; color: light-dark(rgb(0, 0, 0), rgb(255, 255, 255));&quot;&gt;sơ đồ sân và giá vé theo các khu vực ghế ngồi&lt;/span&gt;&lt;/p&gt;&lt;/span&gt;" style="rounded=1;whiteSpace=wrap;html=1;fillColor=#dae8fc;strokeColor=#6c8ebf;fontFamily=Helvetica;" parent="1" vertex="1">
          <mxGeometry x="900" y="450" width="292.5" height="60" as="geometry" />
        </mxCell>
        <mxCell id="TMmhdewhcLAFi1eM3X07-14" style="edgeStyle=orthogonalEdgeStyle;rounded=0;orthogonalLoop=1;jettySize=auto;html=1;entryX=0.5;entryY=0;entryDx=0;entryDy=0;" parent="1" source="TMmhdewhcLAFi1eM3X07-15" target="TMmhdewhcLAFi1eM3X07-17" edge="1">
          <mxGeometry relative="1" as="geometry" />
        </mxCell>
        <mxCell id="TMmhdewhcLAFi1eM3X07-15" value="&lt;span id=&quot;docs-internal-guid-4ec7ca90-7fff-b179-5bb1-fb69c447e156&quot;&gt;&lt;p dir=&quot;ltr&quot; style=&quot;line-height:1.2;margin-top:0pt;margin-bottom:0pt;&quot;&gt;&lt;span id=&quot;docs-internal-guid-01d7c179-7fff-1888-b2ce-3f45cb39b31b&quot;&gt;&lt;span style=&quot;font-size: 14pt; background-color: transparent; font-variant-numeric: normal; font-variant-east-asian: normal; font-variant-alternates: normal; font-variant-position: normal; font-variant-emoji: normal; vertical-align: baseline; white-space-collapse: preserve;&quot;&gt;Chọn khu vực ngồi và số lượng vé&lt;/span&gt;&lt;/span&gt;&lt;/p&gt;&lt;/span&gt;" style="rounded=1;whiteSpace=wrap;html=1;fillColor=#dae8fc;strokeColor=#6c8ebf;fontFamily=Helvetica;" parent="1" vertex="1">
          <mxGeometry x="495" y="600" width="170" height="60" as="geometry" />
        </mxCell>
        <mxCell id="TMmhdewhcLAFi1eM3X07-16" style="edgeStyle=orthogonalEdgeStyle;rounded=0;orthogonalLoop=1;jettySize=auto;html=1;entryX=0;entryY=0.5;entryDx=0;entryDy=0;" parent="1" source="TMmhdewhcLAFi1eM3X07-17" target="TMmhdewhcLAFi1eM3X07-19" edge="1">
          <mxGeometry relative="1" as="geometry" />
        </mxCell>
        <mxCell id="TMmhdewhcLAFi1eM3X07-17" value="&lt;span id=&quot;docs-internal-guid-4ec7ca90-7fff-b179-5bb1-fb69c447e156&quot;&gt;&lt;p dir=&quot;ltr&quot; style=&quot;line-height:1.2;margin-top:0pt;margin-bottom:0pt;&quot;&gt;&lt;span id=&quot;docs-internal-guid-01d7c179-7fff-1888-b2ce-3f45cb39b31b&quot;&gt;&lt;span style=&quot;font-size: 14pt; background-color: transparent; font-variant-numeric: normal; font-variant-east-asian: normal; font-variant-alternates: normal; font-variant-position: normal; font-variant-emoji: normal; vertical-align: baseline; white-space-collapse: preserve;&quot;&gt;Chọn nút Payment&lt;/span&gt;&lt;/span&gt;&lt;/p&gt;&lt;/span&gt;" style="rounded=1;whiteSpace=wrap;html=1;fillColor=#dae8fc;strokeColor=#6c8ebf;fontFamily=Helvetica;" parent="1" vertex="1">
          <mxGeometry x="495" y="700" width="170" height="60" as="geometry" />
        </mxCell>
        <mxCell id="TMmhdewhcLAFi1eM3X07-18" value="" style="edgeStyle=orthogonalEdgeStyle;rounded=0;orthogonalLoop=1;jettySize=auto;html=1;fontFamily=Helvetica;" parent="1" source="TMmhdewhcLAFi1eM3X07-19" target="TMmhdewhcLAFi1eM3X07-22" edge="1">
          <mxGeometry relative="1" as="geometry" />
        </mxCell>
        <mxCell id="TMmhdewhcLAFi1eM3X07-19" value="&lt;span id=&quot;docs-internal-guid-4ec7ca90-7fff-b179-5bb1-fb69c447e156&quot; style=&quot;white-space-collapse: preserve;&quot;&gt;&lt;p dir=&quot;ltr&quot; style=&quot;line-height: 1.2; margin-top: 0pt; margin-bottom: 0pt;&quot;&gt;&lt;font style=&quot;font-size: 18.6667px;&quot;&gt;Kiểm tra hợp lệ&lt;/font&gt;&lt;/p&gt;&lt;/span&gt;" style="rounded=1;whiteSpace=wrap;html=1;fillColor=#dae8fc;strokeColor=#6c8ebf;fontFamily=Helvetica;" parent="1" vertex="1">
          <mxGeometry x="870" y="700" width="160" height="60" as="geometry" />
        </mxCell>
        <mxCell id="TMmhdewhcLAFi1eM3X07-20" style="edgeStyle=orthogonalEdgeStyle;rounded=0;orthogonalLoop=1;jettySize=auto;html=1;fontFamily=Helvetica;" parent="1" source="TMmhdewhcLAFi1eM3X07-22" target="TMmhdewhcLAFi1eM3X07-24" edge="1">
          <mxGeometry relative="1" as="geometry" />
        </mxCell>
        <mxCell id="TMmhdewhcLAFi1eM3X07-21" value="" style="edgeStyle=orthogonalEdgeStyle;rounded=0;orthogonalLoop=1;jettySize=auto;html=1;" parent="1" source="TMmhdewhcLAFi1eM3X07-22" target="TMmhdewhcLAFi1eM3X07-28" edge="1">
          <mxGeometry relative="1" as="geometry" />
        </mxCell>
        <mxCell id="TMmhdewhcLAFi1eM3X07-22" value="" style="rhombus;whiteSpace=wrap;html=1;fillColor=#d5e8d4;strokeColor=#82b366;fontFamily=Helvetica;" parent="1" vertex="1">
          <mxGeometry x="910" y="780" width="80" height="80" as="geometry" />
        </mxCell>
        <mxCell id="TMmhdewhcLAFi1eM3X07-23" style="edgeStyle=orthogonalEdgeStyle;rounded=0;orthogonalLoop=1;jettySize=auto;html=1;entryX=1;entryY=0.5;entryDx=0;entryDy=0;fontFamily=Helvetica;" parent="1" source="TMmhdewhcLAFi1eM3X07-24" target="TMmhdewhcLAFi1eM3X07-15" edge="1">
          <mxGeometry relative="1" as="geometry" />
        </mxCell>
        <mxCell id="TMmhdewhcLAFi1eM3X07-24" value="&lt;span id=&quot;docs-internal-guid-4ec7ca90-7fff-b179-5bb1-fb69c447e156&quot;&gt;&lt;p dir=&quot;ltr&quot; style=&quot;line-height:1.2;margin-top:0pt;margin-bottom:0pt;&quot;&gt;&lt;span id=&quot;docs-internal-guid-01d7c179-7fff-1888-b2ce-3f45cb39b31b&quot;&gt;&lt;span style=&quot;font-size: 14pt; background-color: transparent; font-variant-numeric: normal; font-variant-east-asian: normal; font-variant-alternates: normal; font-variant-position: normal; font-variant-emoji: normal; vertical-align: baseline; white-space-collapse: preserve;&quot;&gt;Thông báo lỗi&lt;/span&gt;&lt;/span&gt;&lt;/p&gt;&lt;/span&gt;" style="rounded=1;whiteSpace=wrap;html=1;fillColor=#dae8fc;strokeColor=#6c8ebf;fontFamily=Helvetica;" parent="1" vertex="1">
          <mxGeometry x="1080" y="600" width="170" height="60" as="geometry" />
        </mxCell>
        <mxCell id="TMmhdewhcLAFi1eM3X07-25" value="&lt;font style=&quot;font-size: 18px;&quot;&gt;Hợp lệ&lt;/font&gt;" style="text;html=1;align=center;verticalAlign=middle;whiteSpace=wrap;rounded=0;fontFamily=Helvetica;" parent="1" vertex="1">
          <mxGeometry x="880" y="870" width="60" height="30" as="geometry" />
        </mxCell>
        <mxCell id="TMmhdewhcLAFi1eM3X07-26" value="&lt;font style=&quot;font-size: 18px;&quot;&gt;Không hợp lệ&lt;/font&gt;" style="text;html=1;align=center;verticalAlign=middle;whiteSpace=wrap;rounded=0;fontFamily=Helvetica;" parent="1" vertex="1">
          <mxGeometry x="1020" y="780" width="120" height="30" as="geometry" />
        </mxCell>
        <mxCell id="TMmhdewhcLAFi1eM3X07-27" value="" style="edgeStyle=orthogonalEdgeStyle;rounded=0;orthogonalLoop=1;jettySize=auto;html=1;fontFamily=Helvetica;" parent="1" source="TMmhdewhcLAFi1eM3X07-28" target="TMmhdewhcLAFi1eM3X07-30" edge="1">
          <mxGeometry relative="1" as="geometry">
            <Array as="points">
              <mxPoint x="955" y="1000" />
            </Array>
          </mxGeometry>
        </mxCell>
        <mxCell id="TMmhdewhcLAFi1eM3X07-28" value="&lt;span id=&quot;docs-internal-guid-4ec7ca90-7fff-b179-5bb1-fb69c447e156&quot;&gt;&lt;p dir=&quot;ltr&quot; style=&quot;line-height:1.2;margin-top:0pt;margin-bottom:0pt;&quot;&gt;&lt;span id=&quot;docs-internal-guid-b866db9a-7fff-d0fc-d16e-d5b7a987a5c5&quot;&gt;&lt;span style=&quot;font-size: 14pt; background-color: transparent; font-variant-numeric: normal; font-variant-east-asian: normal; font-variant-alternates: normal; font-variant-position: normal; font-variant-emoji: normal; vertical-align: baseline; white-space-collapse: preserve;&quot;&gt;Hiển thị cửa sổ xác nhận vé&lt;/span&gt;&lt;/span&gt;&lt;/p&gt;&lt;/span&gt;" style="rounded=1;whiteSpace=wrap;html=1;fillColor=#dae8fc;strokeColor=#6c8ebf;fontFamily=Helvetica;" parent="1" vertex="1">
          <mxGeometry x="865" y="920" width="170" height="60" as="geometry" />
        </mxCell>
        <mxCell id="TMmhdewhcLAFi1eM3X07-29" value="" style="edgeStyle=orthogonalEdgeStyle;rounded=0;orthogonalLoop=1;jettySize=auto;html=1;fontFamily=Helvetica;" parent="1" source="TMmhdewhcLAFi1eM3X07-30" target="TMmhdewhcLAFi1eM3X07-32" edge="1">
          <mxGeometry relative="1" as="geometry" />
        </mxCell>
        <mxCell id="TMmhdewhcLAFi1eM3X07-30" value="&lt;span id=&quot;docs-internal-guid-4ec7ca90-7fff-b179-5bb1-fb69c447e156&quot;&gt;&lt;p dir=&quot;ltr&quot; style=&quot;line-height:1.2;margin-top:0pt;margin-bottom:0pt;&quot;&gt;&lt;span id=&quot;docs-internal-guid-b866db9a-7fff-d0fc-d16e-d5b7a987a5c5&quot;&gt;&lt;span style=&quot;font-size: 14pt; background-color: transparent; font-variant-numeric: normal; font-variant-east-asian: normal; font-variant-alternates: normal; font-variant-position: normal; font-variant-emoji: normal; vertical-align: baseline; white-space-collapse: preserve;&quot;&gt;Xác nhận thanh toán&lt;/span&gt;&lt;/span&gt;&lt;/p&gt;&lt;/span&gt;" style="rounded=1;whiteSpace=wrap;html=1;fillColor=#dae8fc;strokeColor=#6c8ebf;fontFamily=Helvetica;" parent="1" vertex="1">
          <mxGeometry x="480" y="970" width="170" height="60" as="geometry" />
        </mxCell>
        <mxCell id="TMmhdewhcLAFi1eM3X07-31" style="edgeStyle=orthogonalEdgeStyle;rounded=0;orthogonalLoop=1;jettySize=auto;html=1;entryX=0;entryY=0.5;entryDx=0;entryDy=0;fontFamily=Helvetica;" parent="1" source="TMmhdewhcLAFi1eM3X07-32" target="TMmhdewhcLAFi1eM3X07-37" edge="1">
          <mxGeometry relative="1" as="geometry">
            <Array as="points">
              <mxPoint x="565" y="1270" />
            </Array>
          </mxGeometry>
        </mxCell>
        <mxCell id="TMmhdewhcLAFi1eM3X07-32" value="" style="rhombus;whiteSpace=wrap;html=1;fillColor=#d5e8d4;strokeColor=#82b366;fontFamily=Helvetica;" parent="1" vertex="1">
          <mxGeometry x="525" y="1100" width="80" height="80" as="geometry" />
        </mxCell>
        <mxCell id="TMmhdewhcLAFi1eM3X07-33" value="&lt;span style=&quot;font-size: 18px;&quot;&gt;Đồng ý&lt;/span&gt;" style="text;html=1;align=center;verticalAlign=middle;whiteSpace=wrap;rounded=0;fontFamily=Helvetica;" parent="1" vertex="1">
          <mxGeometry x="574" y="1240" width="60" height="30" as="geometry" />
        </mxCell>
        <mxCell id="TMmhdewhcLAFi1eM3X07-34" value="&lt;span style=&quot;font-size: 18px;&quot;&gt;Không đồng ý&lt;/span&gt;" style="text;html=1;align=center;verticalAlign=middle;whiteSpace=wrap;rounded=0;fontFamily=Helvetica;" parent="1" vertex="1">
          <mxGeometry x="620" y="1106" width="120" height="30" as="geometry" />
        </mxCell>
        <mxCell id="TMmhdewhcLAFi1eM3X07-35" value="" style="edgeStyle=orthogonalEdgeStyle;rounded=0;orthogonalLoop=1;jettySize=auto;html=1;fontFamily=Helvetica;" parent="1" source="TMmhdewhcLAFi1eM3X07-37" target="TMmhdewhcLAFi1eM3X07-39" edge="1">
          <mxGeometry relative="1" as="geometry" />
        </mxCell>
        <mxCell id="TMmhdewhcLAFi1eM3X07-36" value="" style="edgeStyle=orthogonalEdgeStyle;rounded=0;orthogonalLoop=1;jettySize=auto;html=1;fontFamily=Helvetica;" parent="1" source="TMmhdewhcLAFi1eM3X07-37" target="TMmhdewhcLAFi1eM3X07-41" edge="1">
          <mxGeometry relative="1" as="geometry" />
        </mxCell>
        <mxCell id="TMmhdewhcLAFi1eM3X07-37" value="&lt;span id=&quot;docs-internal-guid-4ec7ca90-7fff-b179-5bb1-fb69c447e156&quot;&gt;&lt;p dir=&quot;ltr&quot; style=&quot;line-height:1.2;margin-top:0pt;margin-bottom:0pt;&quot;&gt;&lt;span id=&quot;docs-internal-guid-b866db9a-7fff-d0fc-d16e-d5b7a987a5c5&quot;&gt;&lt;span style=&quot;font-size: 14pt; background-color: transparent; font-variant-numeric: normal; font-variant-east-asian: normal; font-variant-alternates: normal; font-variant-position: normal; font-variant-emoji: normal; vertical-align: baseline; white-space-collapse: preserve;&quot;&gt;Hiển thị thanh toán thành công&lt;/span&gt;&lt;/span&gt;&lt;/p&gt;&lt;/span&gt;" style="rounded=1;whiteSpace=wrap;html=1;fillColor=#dae8fc;strokeColor=#6c8ebf;fontFamily=Helvetica;" parent="1" vertex="1">
          <mxGeometry x="970" y="1240" width="170" height="60" as="geometry" />
        </mxCell>
        <mxCell id="TMmhdewhcLAFi1eM3X07-38" style="edgeStyle=orthogonalEdgeStyle;rounded=0;orthogonalLoop=1;jettySize=auto;html=1;entryX=0.75;entryY=0;entryDx=0;entryDy=0;" parent="1" source="TMmhdewhcLAFi1eM3X07-39" target="TMmhdewhcLAFi1eM3X07-13" edge="1">
          <mxGeometry relative="1" as="geometry">
            <Array as="points">
              <mxPoint x="1585" y="410" />
              <mxPoint x="1120" y="410" />
              <mxPoint x="1120" y="430" />
            </Array>
          </mxGeometry>
        </mxCell>
        <mxCell id="TMmhdewhcLAFi1eM3X07-39" value="&lt;span id=&quot;docs-internal-guid-4ec7ca90-7fff-b179-5bb1-fb69c447e156&quot;&gt;&lt;p dir=&quot;ltr&quot; style=&quot;line-height:1.2;margin-top:0pt;margin-bottom:0pt;&quot;&gt;&lt;span id=&quot;docs-internal-guid-b866db9a-7fff-d0fc-d16e-d5b7a987a5c5&quot;&gt;&lt;span style=&quot;font-size: 14pt; background-color: transparent; font-variant-numeric: normal; font-variant-east-asian: normal; font-variant-alternates: normal; font-variant-position: normal; font-variant-emoji: normal; vertical-align: baseline; white-space-collapse: preserve;&quot;&gt;Lưu thông tin và cập nhật dữ liệu&lt;/span&gt;&lt;/span&gt;&lt;/p&gt;&lt;/span&gt;" style="rounded=1;whiteSpace=wrap;html=1;fillColor=#dae8fc;strokeColor=#6c8ebf;fontFamily=Helvetica;" parent="1" vertex="1">
          <mxGeometry x="1500" y="1240" width="170" height="60" as="geometry" />
        </mxCell>
        <mxCell id="TMmhdewhcLAFi1eM3X07-40" style="edgeStyle=orthogonalEdgeStyle;rounded=0;orthogonalLoop=1;jettySize=auto;html=1;entryX=1;entryY=0.5;entryDx=0;entryDy=0;exitX=1;exitY=0.5;exitDx=0;exitDy=0;fontFamily=Helvetica;" parent="1" source="TMmhdewhcLAFi1eM3X07-32" target="TMmhdewhcLAFi1eM3X07-13" edge="1">
          <mxGeometry relative="1" as="geometry">
            <mxPoint x="780" y="1140" as="sourcePoint" />
            <mxPoint x="1295" y="480" as="targetPoint" />
            <Array as="points">
              <mxPoint x="1300" y="1140" />
              <mxPoint x="1300" y="480" />
            </Array>
          </mxGeometry>
        </mxCell>
        <mxCell id="TMmhdewhcLAFi1eM3X07-41" value="" style="ellipse;html=1;shape=endState;fillColor=light-dark(#0F2F56,#EDEDED);strokeColor=default;fontFamily=Helvetica;" parent="1" vertex="1">
          <mxGeometry x="1025" y="1360" width="60" height="60" as="geometry" />
        </mxCell>
      </root>
    </mxGraphModel>
  </diagram>
</mxfile>
